{
.appVersion = "3530";
.formatVersion = 3;
DisplayStrings = (
"ABCDEFGHIJKLMN
OPQRSTUVWXYZ
abcdefghijklmn
opqrstuvwxyz

HHyHHmvwzk y",
""
);
axes = (
{
name = Weight;
tag = wght;
},
{
name = Width;
tag = wdth;
}
);
customParameters = (
{
name = "Enforce Compatibility Check";
value = 1;
},
{
name = fsType;
value = (
);
}
);
date = "2026-06-07 07:11:36 +0000";
familyName = "M PLUS F Latin";
featurePrefixes = (
{
automatic = 1;
code = "languagesystem DFLT dflt;
";
name = Languagesystems;
}
);
fontMaster = (
{
axesValues = (
100,
100
);
customParameters = (
{
name = typoAscender;
value = 880;
},
{
name = typoDescender;
value = -120;
},
{
name = typoLineGap;
value = 0;
},
{
name = winAscent;
value = 1160;
},
{
name = winDescent;
value = 288;
},
{
name = hheaAscender;
value = 1160;
},
{
name = hheaDescender;
value = -288;
},
{
name = hheaLineGap;
value = 0;
}
);
iconName = Light_SemiCondensed;
id = m004;
metricValues = (
{
over = 16;
pos = 860;
},
{
over = 11;
pos = 730;
},
{
over = 11;
pos = 520;
},
{
over = -11;
},
{
over = -15;
pos = -140;
},
{
}
);
name = "Thin F1";
stemValues = (
20,
20,
20,
20
);
userData = {
GSOffsetHorizontal = -20;
GSOffsetProportional = 1;
GSOffsetVertical = -20;
};
},
{
axesValues = (
500,
100
);
customParameters = (
{
name = typoAscender;
value = 880;
},
{
name = typoDescender;
value = -120;
},
{
name = typoLineGap;
value = 0;
},
{
name = winAscent;
value = 1160;
},
{
name = winDescent;
value = 288;
},
{
name = hheaAscender;
value = 1160;
},
{
name = hheaDescender;
value = -288;
},
{
name = hheaLineGap;
value = 0;
}
);
iconName = SemiCondensed;
id = m005;
metricValues = (
{
over = 16;
pos = 860;
},
{
over = 11;
pos = 730;
},
{
over = 11;
pos = 520;
},
{
over = -11;
},
{
over = -15;
pos = -140;
},
{
}
);
name = "Medium F1";
stemValues = (
100,
90,
110,
108
);
userData = {
GSOffsetHorizontal = -109;
GSOffsetProportional = 1;
GSOffsetVertical = 10;
};
},
{
axesValues = (
900,
100
);
customParameters = (
{
name = typoAscender;
value = 880;
},
{

glyphs = (
{
color = 4;
glyphname = A;
kernLeft = A;
kernRight = A;
lastChange = "2026-07-04 09:11:47 +0000";
layers = (
{
layerId = m01;
shapes = (
{
closed = 1;
nodes = (
(44,0,l),
(334,669,l),
(351,710,l),
(353,710,l),
(370,669,l),
(660,0,l),
(682,0,l),
(365,730,l),
(339,730,l),
(22,0,l)
);
},
{
closed = 1;
nodes = (
(542,290,l),
(542,310,l),
(162,310,l),
(162,290,l)
);
}
);
width = 704;
},
{
layerId = m002;
shapes = (
{
closed = 1;
nodes = (
(140,0,l),
(349,560,l),
(372,623,l),
(374,623,l),
(397,560,l),
(606,0,l),
(728,0,l),
(448,730,l),
(298,730,l),
(18,0,l)
);
},
{
closed = 1;
nodes = (
(563,221,l),
(563,319,l),
(183,319,l),
(183,221,l)
);
}
);
width = 746;
},
{
layerId = m003;
shapes = (
{
closed = 1;
nodes = (
(232,0,l),
(364,450,l),
(393,552,l),
(395,552,l),
(424,450,l),
(556,0,l),
(774,0,l),
(519,730,l),
(269,730,l),
(14,0,l)
);
},
{
closed = 1;
nodes = (
(584,153,l),
(584,327,l),
(204,327,l),
(204,153,l)
);
}
);
width = 788;
},
{
layerId = m004;
shapes = (
{
closed = 1;
nodes = (
(44,0,l),
(288,669,l),
(301,707,l),
(303,707,l),
(316,669,l),
(560,0,l),
(582,0,l),
(315,730,l),
(289,730,l),
(22,0,l)
);
},
{
closed = 1;
nodes = (
(477,260,l),
(477,280,l),
(127,280,l),
(127,260,l)
);
}
);
width = 604;
},
{
layerId = m005;
shapes = (
{
closed = 1;
nodes = (
(138,0,l),
(304,550,l),
(322,613,l),
(324,613,l),
(342,550,l),
(508,0,l),
(628,0,l),
(398,730,l),
(248,730,l),
(18,0,l)
);
},
{
closed = 1;
nodes = (
(498,191,l),
(498,289,l),
(148,289,l),
(148,191,l)
);
}
);
width = 646;
},
{
layerId = m006;
shapes = (
{
closed = 1;
nodes = (
(228,0,l),
(321,430,l),
(343,536,l),
(345,536,l),
(367,430,l),
(460,0,l),
(674,0,l),
(469,730,l),
(219,730,l),
(14,0,l)
);
},
{
closed = 1;
nodes = (
(519,123,l),
(519,297,l),
(169,297,l),
(169,123,l)
);
}
);
width = 688;
}
);
metricLeft = "=H*.2";
metricRight = "=|";
unicode = 65;
},
{
color = 4;
glyphname = B;
kernLeft = H;
kernRight = B;
lastChange = "2026-07-04 09:13:49 +0000";
layers = (
{
layerId = m01;
metricRight = "=H*.6";
shapes = (
{
closed = 1;
nodes = (
(456,-10,o),
(560,57,o),
(560,195,cs),
(560,303,o),
(498,369,o),
(383,391,c),
(383,393,l),
(467,417,o),
(514,474,o),
(514,560,cs),
(514,677,o),
(423,740,o),
(264,740,cs),
(224,740,o),
(187,736,o),
(110,726,c),
(110,4,l),
(167,-6,o),
(208,-10,o),
(257,-10,cs)
);
},
{
closed = 1;
nodes = (
(209,10,o),
(171,14,o),
(114,24,c),
(130,14,l),
(130,716,l),
(113,706,l),
(207,718,o),
(236,720,o),
(264,720,cs),
(414,720,o),
(494,664,o),
(494,560,cs),
(494,457,o),
(419,400,o),
(284,400,cs),
(120,400,l),
(120,380,l),
(284,380,ls),
(453,380,o),
(540,317,o),
(540,195,cs),
(540,71,o),
(447,10,o),
(257,10,cs)
);
}
);
width = 626;
},
{
associatedMasterId = m01;
attr = {
coordinates = (
200,
200
);
};
layerId = "045BF7CD-F08D-414D-A7F3-96A78B5CF3C8";
metricRight = "=H*.6";
name = "Jun 9, 26 at 21:10";
shapes = (
{
closed = 1;
nodes = (
(465,-10,o),
(570,57,o),
(570,196,cs),
(570,300,o),
(512,369,o),
(407,390,c),
(407,392,l),
(482,416,o),
(525,477,o),
(525,559,cs),
(525,678,o),
(434,740,o),
(266,740,cs),
(221,740,o),
(181,736,o),
(105,726,c),
(105,4,l),
(162,-6,o),
(206,-10,o),
(257,-10,cs)
);
},
{
closed = 1;
nodes = (
(218,30,o),
(170,34,o),
(121,42,c),
(147,19,l),
(147,712,l),
(120,688,l),
(197,698,o),
(240,701,o),
(270,701,cs),
(408,701,o),
(481,650,o),
(481,554,cs),
(481,459,o),
(413,407,o),
(288,407,cs),
(126,407,l),
(126,368,l),
(289,368,ls),
(446,368,o),
(526,311,o),
(526,199,cs),
(526,85,o),
(441,30,o),
(265,30,cs)
);
}
);
width = 633;
},
{
associatedMasterId = m01;
attr = {
axisRules = (
{
},
{
max = 150;
min = 100;
}
);
};
layerId = "0A0012AC-723E-4655-B905-BB0008F0DE8C";
metricRight = "=H*.6";
name = "Thin F1 [100‹wd‹150] Jun 15, 26 at 20:59";
shapes = (
{
closed = 1;
nodes = (
(459,0,o),
(560,65,o),
(560,195,cs),
(560,299,o),
(497,369,o),
(383,391,c),
(383,393,l),
(466,417,o),
(512,477,o),
(512,560,cs),
(512,672,o),
(428,730,o),
(264,730,cs),
(224,730,o),
(187,730,o),
(110,730,c),
(110,0,l),
(167,0,o),
(209,0,o),
(257,0,cs)
);
},
{
closed = 1;
nodes = (
(211,20,o),
(171,20,o),
(114,20,c),
(130,14,l),
(130,716,l),
(113,710,l),
(190,710,o),
(225,710,o),
(264,710,cs),
(419,710,o),
(492,659,o),
(492,560,cs),
(492,486,o),
(451,400,o),
(284,400,cs),
(120,400,l),
(120,380,l),
(284,380,ls),
(483,380,o),
(540,289,o),
(540,195,cs),
(540,79,o),
(450,20,o),
(257,20,cs)
);
}
);
width = 626;
},
{
associatedMasterId = m01;
attr = {
axisRules = (
{
},
{
max = 150;
min = 100;
}
);
coordinates = (
200,
200
);
};
layerId = "352600B3-56CE-4747-BD4F-228B2749AAB0";
metricRight = "=H*.6";
name = "Jun 15, 26 at 20:58";
shapes = (
{
closed = 1;
nodes = (
(468,0,o),
(570,64,o),
(570,196,cs),
(570,298,o),
(510,369,o),
(407,390,c),
(407,392,l),
(481,416,o),
(524,478,o),
(524,559,cs),
(524,673,o),
(439,730,o),
(269,730,cs),
(223,730,o),
(181,730,o),
(105,730,c),
(105,0,l),
(163,0,o),
(209,0,o),
(260,0,cs)
);
},
{
closed = 1;
nodes = (
(220,40,o),
(171,40,o),
(121,40,c),
(147,19,l),
(147,712,l),
(120,691,l),
(184,691,o),
(232,691,o),
(270,691,cs),
(412,691,o),
(480,644,o),
(480,552,cs),
(480,480,o),
(437,407,o),
(288,407,cs),
(126,407,l),
(126,368,l),
(289,368,ls),
(469,368,o),
(526,291,o),
(526,200,cs),
(526,93,o),
(443,40,o),
(265,40,cs)
);
}
);
width = 633;
},
{
layerId = m002;
metricRight = "=H*.5";
shapes = (
{
closed = 1;
nodes = (
(492,-10,o),
(600,56,o),
(600,198,cs),
(600,300,o),
(544,367,o),
(441,385,c),
(441,387,l),
(520,413,o),
(560,471,o),
(560,555,cs),
(560,682,o),
(469,740,o),
(272,740,cs),
(214,740,o),
(161,735,o),
(90,726,c),
(90,4,l),
(148,-6,o),
(201,-10,o),
(259,-10,cs)
);
},
{
closed = 1;
nodes = (
(248,88,o),
(174,92,o),
(144,96,c),
(199,32,l),
(199,699,l),
(144,634,l),
(169,638,o),
(255,642,o),
(290,642,cs),
(393,642,o),
(445,606,o),
(445,534,cs),
(445,464,o),
(396,428,o),
(300,428,cs),
(145,428,l),
(145,332,l),
(305,332,ls),
(427,332,o),
(485,293,o),
(485,211,cs),
(485,127,o),
(424,88,o),
(291,88,cs)
);
}
);
width = 645;
},
{
layerId = m003;
metricRight = "=H*.4";
shapes = (
{
closed = 1;
nodes = (
(528,-10,o),
(640,51,o),
(640,200,cs),
(640,303,o),
(587,364,o),
(485,378,c),
(485,380,l),
(572,409,o),
(610,460,o),
(610,550,cs),
(610,688,o),
(519,740,o),
(276,740,cs),
(201,740,o),
(135,735,o),
(70,726,c),
(70,4,l),
(147,-6,o),
(186,-10,o),
(256,-10,cs)
);
},
{
closed = 1;
nodes = (
(263,147,o),
(230,147,o),
(169,147,c),
(268,48,l),
(268,682,l),
(169,583,l),
(229,583,o),
(266,583,o),
(321,583,cs),
(376,583,o),
(400,562,o),
(400,513,cs),
(400,466,o),
(378,447,o),
(321,447,cs),
(169,447,l),
(169,293,l),
(331,293,ls),
(404,293,o),
(430,274,o),
(430,222,cs),
(430,168,o),
(402,147,o),
(331,147,cs)
);
}
);
width = 668;
},
{
layerId = m004;
metricRight = "=H*.6";
shapes = (
{
closed = 1;
nodes = (
(475,-10,o),
(580,58,o),
(580,195,cs),
(580,302,o),
(516,369,o),
(395,391,c),
(395,393,l),
(483,417,o),
(530,476,o),
(530,560,cs),
(530,677,o),
(439,740,o),
(271,740,cs),
(229,740,o),
(190,736,o),
(110,726,c),
(110,4,l),
(170,-6,o),
(213,-10,o),
(264,-10,cs)
);
},
{
closed = 1;
nodes = (
(214,10,o),
(173,14,o),
(113,24,c),
(130,14,l),
(130,716,l),
(112,706,l),
(192,716,o),
(230,720,o),
(271,720,cs),
(430,720,o),
(510,664,o),
(510,560,cs),
(510,457,o),
(432,400,o),
(292,400,cs),
(120,400,l),
(120,380,l),
(292,380,ls),
(468,380,o),
(560,316,o),
(560,195,cs),
(560,72,o),
(466,10,o),
(264,10,cs)
);
}
);
width = 646;
},
{
associatedMasterId = m004;
attr = {
coordinates = (
200,
100
);
};
layerId = "6536ABDB-027F-41C3-A38C-CA501C79773F";
metricRight = "=H*.6";
name = "{200} Jun 14, 26 at 17:39";
shapes = (
{
closed = 1;
nodes = (
(481,-10,o),
(587,58,o),
(587,196,cs),
(587,300,o),
(527,369,o),
(418,390,c),
(418,392,l),
(496,416,o),
(540,476,o),
(540,559,cs),
(540,678,o),
(448,740,o),
(272,740,cs),
(225,740,o),
(183,736,o),
(105,726,c),
(105,4,l),
(165,-6,o),
(210,-10,o),
(263,-10,cs)
);
},
{
closed = 1;
nodes = (
(223,30,o),
(174,33,o),
(120,42,c),
(147,19,l),
(147,712,l),
(119,688,l),
(185,696,o),
(236,701,o),
(276,701,cs),
(422,701,o),
(496,650,o),
(496,554,cs),
(496,459,o),
(425,407,o),
(295,407,cs),
(126,407,l),
(126,368,l),
(296,368,ls),
(459,368,o),
(543,310,o),
(543,199,cs),
(543,86,o),
(457,30,o),
(271,30,cs)
);
}
);
width = 650;
},
{
associatedMasterId = m004;
attr = {
axisRules = (
{
},
{
max = 150;
min = 100;
}
);
};
layerId = "2CD06F6B-4F8F-4796-94F0-062F0D0B15DF";
metricRight = "=H*.6";
name = "Jun 14, 26 at 17:45";
shapes = (
{
closed = 1;
nodes = (
(475,0,o),
(580,65,o),
(580,195,cs),
(580,299,o),
(514,369,o),
(395,391,c),
(395,393,l),
(482,417,o),
(530,477,o),
(530,560,cs),
(530,672,o),
(442,730,o),
(271,730,cs),
(229,730,o),
(190,730,o),
(110,730,c),
(110,0,l),
(170,0,o),
(213,0,o),
(264,0,cs)
);
},
{
closed = 1;
nodes = (
(214,20,o),
(173,20,o),
(113,20,c),
(130,14,l),
(130,716,l),
(112,710,l),
(192,710,o),
(230,710,o),
(271,710,cs),
(433,710,o),
(510,658,o),
(510,560,cs),
(510,486,o),
(467,400,o),
(292,400,cs),
(120,400,l),
(120,380,l),
(292,380,ls),
(500,380,o),
(560,289,o),
(560,195,cs),
(560,79,o),
(467,20,o),
(264,20,cs)
);
}
);
width = 646;
},
{
associatedMasterId = m004;
attr = {
axisRules = (
{
},
{
max = 150;
min = 100;
}
);
coordinates = (
200,
100
);
};
layerId = "4F1B4BE8-EDDA-468F-8D03-044AB595CA70";
metricRight = "=H*.6";
name = "Jun 9, 26 at 21:16";
shapes = (
{
closed = 1;
nodes = (
(482,0,o),
(587,64,o),
(587,196,cs),
(587,298,o),
(525,369,o),
(418,390,c),
(418,392,l),
(495,416,o),
(540,478,o),
(540,559,cs),
(540,673,o),
(452,730,o),
(275,730,cs),
(228,730,o),
(184,730,o),
(105,730,c),
(105,0,l),
(165,0,o),
(212,0,o),
(266,0,cs)
);
},
{
closed = 1;
nodes = (
(223,40,o),
(173,40,o),
(120,40,c),
(147,19,l),
(147,712,l),
(119,691,l),
(186,691,o),
(236,691,o),
(276,691,cs),
(425,691,o),
(496,643,o),
(496,552,cs),
(496,480,o),
(451,407,o),
(295,407,cs),
(126,407,l),
(126,368,l),
(296,368,ls),
(483,368,o),
(543,291,o),
(543,200,cs),
(543,93,o),
(458,40,o),
(271,40,cs)
);
}
);
width = 650;
},
{
layerId = m005;
metricRight = "=H*.5";
shapes = (
{
closed = 1;
nodes = (
(500,-10,o),
(610,56,o),
(610,198,cs),
(610,300,o),
(553,367,o),
(448,385,c),
(448,387,l),
(529,413,o),
(570,471,o),
(570,555,cs),
(570,682,o),
(477,740,o),
(276,740,cs),
(216,740,o),
(162,735,o),
(90,726,c),
(90,4,l),
(149,-6,o),
(203,-10,o),
(262,-10,cs)
);
},
{
closed = 1;
nodes = (
(251,88,o),
(174,92,o),
(143,96,c),
(199,32,l),
(199,699,l),
(143,634,l),
(169,637,o),
(254,642,o),
(294,642,cs),
(401,642,o),
(455,606,o),
(455,534,cs),
(455,464,o),
(404,428,o),
(304,428,cs),
(144,428,l),
(144,332,l),
(309,332,ls),
(435,332,o),
(495,293,o),
(495,211,cs),
(495,127,o),
(432,88,o),
(295,88,cs)
);
}
);
width = 655;
},
{
associatedMasterId = m005;
attr = {
axisRules = (
{
},
{
max = 150;
min = 100;
}
);
};
layerId = "8060C201-5DEE-4975-A598-B4EB239F2D66";
metricRight = "=H*.5";
name = "Jun 14, 26 at 17:28";
shapes = (
{
closed = 1;
nodes = (
(505,0,o),
(610,62,o),
(610,198,cs),
(610,300,o),
(551,367,o),
(448,385,c),
(448,387,l),
(527,413,o),
(570,470,o),
(570,555,cs),
(570,676,o),
(483,730,o),
(289,730,cs),
(225,730,o),
(167,730,o),
(90,730,c),
(90,0,l),
(153,0,o),
(212,0,o),
(275,0,cs)
);
},
{
closed = 1;
nodes = (
(250,98,o),
(174,98,o),
(143,98,c),
(199,32,l),
(199,699,l),
(143,632,l),
(169,632,o),
(257,632,o),
(294,632,cs),
(401,632,o),
(455,598,o),
(455,529,cs),
(455,462,o),
(404,428,o),
(304,428,cs),
(144,428,l),
(144,332,l),
(309,332,ls),
(435,332,o),
(495,295,o),
(495,216,cs),
(495,135,o),
(432,98,o),
(295,98,cs)
);
}
);
width = 655;
},
{
layerId = m006;
metricRight = "=H*.4";
shapes = (
{
closed = 1;
nodes = (
(528,-10,o),
(640,51,o),
(640,200,cs),
(640,303,o),
(587,364,o),
(485,378,c),
(485,380,l),
(572,409,o),
(610,460,o),
(610,550,cs),
(610,688,o),
(519,740,o),
(276,740,cs),
(201,740,o),
(135,735,o),
(70,726,c),
(70,4,l),
(147,-6,o),
(186,-10,o),
(256,-10,cs)
);
},
{
closed = 1;
nodes = (
(263,147,o),
(230,147,o),
(169,147,c),
(268,48,l),
(268,682,l),
(169,583,l),
(229,583,o),
(266,583,o),
(321,583,cs),
(376,583,o),
(400,562,o),
(400,513,cs),
(400,466,o),
(378,447,o),
(321,447,cs),
(169,447,l),
(169,293,l),
(331,293,ls),
(404,293,o),
(430,274,o),
(430,222,cs),
(430,168,o),
(402,147,o),
(331,147,cs)
);
}
);
width = 668;
},
{
associatedMasterId = m006;
attr = {
axisRules = (
{
},
{
max = 150;
min = 100;
}
);
};
layerId = "8D11030C-BE9D-4093-894E-515C8C7DF80E";
metricRight = "=H*.4";
name = "Jun 14, 26 at 17:14";
shapes = (
{
closed = 1;
nodes = (
(538,0,o),
(640,58,o),
(640,200,cs),
(640,303,o),
(586,364,o),
(485,378,c),
(485,380,l),
(572,409,o),
(610,461,o),
(610,550,cs),
(610,681,o),
(528,730,o),
(306,730,cs),
(220,730,o),
(144,730,o),
(70,730,c),
(70,0,l),
(159,0,o),
(205,0,o),
(286,0,cs)
);
},
{
closed = 1;
nodes = (
(263,157,o),
(230,157,o),
(169,157,c),
(268,48,l),
(268,682,l),
(169,573,l),
(229,573,o),
(266,573,o),
(321,573,cs),
(376,573,o),
(400,553,o),
(400,508,cs),
(400,464,o),
(378,447,o),
(321,447,cs),
(169,447,l),
(169,293,l),
(331,293,ls),
(404,293,o),
(430,275,o),
(430,227,cs),
(430,177,o),
(402,157,o),
(331,157,cs)
);
}
);
width = 668;
},
{
associatedMasterId = m002;
attr = {
axisRules = (
{
},
{
max = 150;
min = 100;
}
);
};
layerId = "2802B45B-26D9-4ABF-839D-724F2B009C71";
metricRight = "=H*.5";
name = "Jun 15, 26 at 20:59";
shapes = (
{
closed = 1;
nodes = (
(497,0,o),
(600,62,o),
(600,198,cs),
(600,300,o),
(542,367,o),
(441,385,c),
(441,387,l),
(519,413,o),
(561,470,o),
(561,555,cs),
(561,676,o),
(475,730,o),
(285,730,cs),
(222,730,o),
(166,730,o),
(90,730,c),
(90,0,l),
(152,0,o),
(210,0,o),
(271,0,cs)
);
},
{
closed = 1;
nodes = (
(248,98,o),
(174,98,o),
(144,98,c),
(199,32,l),
(199,699,l),
(144,632,l),
(169,632,o),
(255,632,o),
(290,632,cs),
(394,632,o),
(446,598,o),
(446,529,cs),
(446,462,o),
(397,428,o),
(300,428,cs),
(145,428,l),
(145,332,l),
(305,332,ls),
(427,332,o),
(485,295,o),
(485,216,cs),
(485,135,o),
(424,98,o),
(291,98,cs)
);
}
);
width = 645;
},
{
associatedMasterId = m003;
attr = {
axisRules = (
{
},
{
max = 150;
min = 100;
}
);
};
layerId = "6B768C5E-A1D0-4819-A003-44E97986E5A1";
metricRight = "=H*.4";
name = "Jun 15, 26 at 20:59";
shapes = (
{
closed = 1;
nodes = (
(538,0,o),
(640,58,o),
(640,200,cs),
(640,303,o),
(586,364,o),
(485,378,c),
(485,380,l),
(572,409,o),
(610,461,o),
(610,550,cs),
(610,681,o),
(528,730,o),
(306,730,cs),
(220,730,o),
(144,730,o),
(70,730,c),
(70,0,l),
(159,0,o),
(205,0,o),
(286,0,cs)
);
},
{
closed = 1;
nodes = (
(263,157,o),
(230,157,o),
(169,157,c),
(268,48,l),
(268,682,l),
(169,573,l),
(229,573,o),
(266,573,o),
(321,573,cs),
(376,573,o),
(400,553,o),
(400,508,cs),
(400,464,o),
(378,447,o),
(321,447,cs),
(169,447,l),
(169,293,l),
(331,293,ls),
(404,293,o),
(430,275,o),
(430,227,cs),
(430,177,o),
(402,157,o),
(331,157,cs)
);
}
);
width = 668;
}
);
metricLeft = "=H";
metricRight = "=H*.6";
unicode = 66;
},
{
color = 4;
glyphname = C;
kernLeft = O;
kernRight = C;
lastChange = "2026-07-04 09:13:51 +0000";
layers = (
{
layerId = m01;
shapes = (
{
closed = 1;
nodes = (
(537,-20,o),
(633,1,o),
(705,36,c),
(696,54,l),
(626,20,o),
(535,0,o),
(450,0,cs),
(224,0,o),
(75,145,o),
(75,365,cs),
(75,585,o),
(224,730,o),
(450,730,cs),
(535,730,o),
(626,710,o),
(696,676,c),
(705,694,l),
(633,729,o),
(537,750,o),
(450,750,cs),
(213,750,o),
(55,596,o),
(55,365,cs),
(55,134,o),
(213,-20,o),
(450,-20,cs)
);
}
);
width = 793;
},
{
layerId = m002;
shapes = (
{
closed = 1;
nodes = (
(535,-20,o),
(632,1,o),
(705,36,c),
(683,134,l),
(619,104,o),
(531,85,o),
(456,85,cs),
(275,85,o),
(160,194,o),
(160,365,cs),
(160,536,o),
(275,645,o),
(456,645,cs),
(531,645,o),
(619,626,o),
(683,596,c),
(705,694,l),
(632,729,o),
(535,750,o),
(446,750,cs),
(206,750,o),
(45,596,o),
(45,365,cs),
(45,134,o),
(206,-20,o),
(446,-20,cs)
);
}
);
width = 777;
},
{
layerId = m005;
shapes = (
{
closed = 1;
nodes = (
(482,-20,o),
(578,2,o),
(645,36,c),
(623,134,l),
(566,105,o),
(480,85,o),
(412,85,cs),
(256,85,o),
(160,192,o),
(160,365,cs),
(160,538,o),
(256,645,o),
(412,645,cs),
(480,645,o),
(566,625,o),
(623,596,c),
(645,694,l),
(578,728,o),
(482,750,o),
(401,750,cs),
(187,750,o),
(45,596,o),
(45,365,cs),
(45,134,o),
(187,-20,o),
(401,-20,cs)
);
}
);
width = 717;
},
{
layerId = m003;
name = Black;
shapes = (
{
closed = 1;
nodes = (
(532,-20,o),
(631,1,o),
(705,36,c),
(669,214,l),
(612,188,o),
(530,170,o),
(462,170,cs),
(325,170,o),
(245,242,o),
(245,365,cs),
(245,488,o),
(325,560,o),
(462,560,cs),
(530,560,o),
(612,542,o),
(669,516,c),
(705,694,l),
(631,729,o),
(532,750,o),
(442,750,cs),
(198,750,o),
(35,596,o),
(35,365,cs),
(35,134,o),
(198,-20,o),
(442,-20,cs)
);
}
);
width = 761;
},
{
layerId = m006;
name = "Black F2";
shapes = (
{
closed = 1;
nodes = (
(500,-20,o),
(603,2,o),
(675,36,c),
(639,214,l),
(587,189,o),
(500,170,o),
(437,170,cs),
(315,170,o),
(245,241,o),
(245,365,cs),
(245,489,o),
(315,560,o),
(437,560,cs),
(500,560,o),
(587,541,o),
(639,516,c),
(675,694,l),
(603,728,o),
(500,750,o),
(414,750,cs),
(187,750,o),
(35,596,o),
(35,365,cs),
(35,134,o),
(187,-20,o),
(414,-20,cs)
);
}
);
width = 731;
},
{
layerId = m004;
name = "Thin F2";
shapes = (
{
closed = 1;
nodes = (
(462,-20,o),
(552,2,o),
(615,36,c),
(606,54,l),
(545,21,o),
(459,0,o),
(387,0,cs),
(200,0,o),
(75,144,o),
(75,365,cs),
(75,586,o),
(200,730,o),
(387,730,cs),
(459,730,o),
(545,709,o),
(606,676,c),
(615,694,l),
(552,728,o),
(462,750,o),
(387,750,cs),
(188,750,o),
(55,596,o),
(55,365,cs),
(55,134,o),
(188,-20,o),
(387,-20,cs)
);
}
);
width = 703;
}
);
metricLeft = "=O";
metricRight = "=H*.8";
unicode = 67;
},
{
color = 4;
glyphname = D;
kernLeft = H;
kernRight = O;
lastChange = "2026-07-04 09:13:52 +0000";
layers = (
{
layerId = m01;
shapes = (
{
closed = 1;
nodes = (
(486,-10,o),
(600,119,o),
(600,365,cs),
(600,611,o),
(486,740,o),
(270,740,cs),
(223,740,o),
(159,734,o),
(110,726,c),
(110,4,l),
(159,-4,o),
(223,-10,o),
(270,-10,cs)
);
},
{
closed = 1;
nodes = (
(224,10,o),
(162,16,o),
(113,24,c),
(130,5,l),
(130,725,l),
(113,706,l),
(162,714,o),
(224,720,o),
(270,720,cs),
(474,720,o),
(580,601,o),
(580,365,cs),
(580,129,o),
(474,10,o),
(270,10,cs)
);
}
);
width = 655;
},
{
layerId = m002;
shapes = (
{
closed = 1;
nodes = (
(505,-10,o),
(630,119,o),
(630,365,cs),
(630,611,o),
(505,740,o),
(267,740,cs),
(220,740,o),
(159,735,o),
(90,726,c),
(90,4,l),
(159,-5,o),
(220,-10,o),
(267,-10,cs)
);
},
{
closed = 1;
nodes = (
(248,88,o),
(181,91,o),
(142,95,c),
(200,38,l),
(200,693,l),
(142,635,l),
(181,639,o),
(248,642,o),
(278,642,cs),
(439,642,o),
(517,552,o),
(517,365,cs),
(517,178,o),
(440,88,o),
(278,88,cs)
);
}
);
width = 675;
},
{
layerId = m003;
shapes = (
{
closed = 1;
nodes = (
(523,-10,o),
(660,119,o),
(660,365,cs),
(660,611,o),
(523,740,o),
(263,740,cs),
(217,740,o),
(159,736,o),
(70,726,c),
(70,4,l),
(159,-6,o),
(217,-10,o),
(263,-10,cs)
);
},
{
closed = 1;
nodes = (
(259,166,o),
(210,166,o),
(170,166,c),
(270,70,l),
(270,660,l),
(170,564,l),
(210,564,o),
(259,564,o),
(285,564,cs),
(403,564,o),
(454,504,o),
(454,365,cs),
(454,226,o),
(403,166,o),
(285,166,cs)
);
}
);
width = 695;
},
{
layerId = m004;
shapes = (
{
closed = 1;
nodes = (
(494,-10,o),
(610,119,o),
(610,365,cs),
(610,611,o),
(494,740,o),
(273,740,cs),
(225,740,o),
(160,734,o),
(110,726,c),
(110,4,l),
(160,-4,o),
(225,-10,o),
(273,-10,cs)
);
},
{
closed = 1;
nodes = (
(226,10,o),
(163,16,o),
(113,24,c),
(130,5,l),
(130,725,l),
(113,706,l),
(163,714,o),
(226,720,o),
(273,720,cs),
(482,720,o),
(590,601,o),
(590,365,cs),
(590,129,o),
(482,10,o),
(273,10,cs)
);
}
);
width = 665;
},
{
layerId = m005;
shapes = (
{
closed = 1;
nodes = (
(513,-10,o),
(640,119,o),
(640,365,cs),
(640,611,o),
(513,740,o),
(270,740,cs),
(222,740,o),
(160,735,o),
(90,726,c),
(90,4,l),
(160,-5,o),
(222,-10,o),
(270,-10,cs)
);
},
{
closed = 1;
nodes = (
(250,88,o),
(181,91,o),
(141,95,c),
(200,38,l),
(200,693,l),
(141,635,l),
(181,639,o),
(250,642,o),
(280,642,cs),
(447,642,o),
(527,552,o),
(527,365,cs),
(527,178,o),
(447,88,o),
(280,88,cs)
);
}
);
width = 685;
},
{
associatedMasterId = m006;
attr = {
axisRules = (
{
},
{
max = 150;
min = 100;
}
);
};
layerId = "917F88B9-AC39-4EB0-AEDC-ED192323635B";
name = "Jun 14, 26 at 20:14";
shapes = (
{
closed = 1;
nodes = (
(542,0,o),
(670,125,o),
(670,365,cs),
(670,605,o),
(542,730,o),
(297,730,cs),
(243,730,o),
(175,730,o),
(70,730,c),
(70,0,l),
(175,0,o),
(243,0,o),
(297,0,cs)
);
},
{
closed = 1;
nodes = (
(268,176,o),
(213,176,o),
(169,176,c),
(270,70,l),
(270,660,l),
(169,554,l),
(213,554,o),
(268,554,o),
(297,554,cs),
(414,554,o),
(464,497,o),
(464,365,cs),
(464,233,o),
(414,176,o),
(297,176,cs)
);
}
);
width = 705;
},
{
layerId = m006;
name = "Black F2";
shapes = (
{
closed = 1;
nodes = (
(531,-10,o),
(670,119,o),
(670,365,cs),
(670,611,o),
(531,740,o),
(266,740,cs),
(219,740,o),
(161,736,o),
(70,726,c),
(70,4,l),
(161,-6,o),
(219,-10,o),
(266,-10,cs)
);
},
{
closed = 1;
nodes = (
(261,166,o),
(210,166,o),
(169,166,c),
(270,70,l),
(270,660,l),
(169,564,l),
(210,564,o),
(261,564,o),
(288,564,cs),
(411,564,o),
(464,504,o),
(464,365,cs),
(464,226,o),
(411,166,o),
(288,166,cs)
);
}
);
width = 705;
},
{
associatedMasterId = m004;
attr = {
axisRules = (
{
},
{
max = 150;
min = 100;
}
);
};
layerId = "2C313F7F-C172-496B-8618-15F2998ADFC4";
name = "Jun 14, 26 at 20:18";
shapes = (
{
closed = 1;
nodes = (
(504,0,o),
(610,125,o),
(610,365,cs),
(610,605,o),
(504,730,o),
(299,730,cs),
(254,730,o),
(198,730,o),
(110,730,c),
(110,0,l),
(198,0,o),
(254,0,o),
(299,0,cs)
);
},
{
closed = 1;
nodes = (
(254,20,o),
(208,20,o),
(120,20,c),
(130,10,l),
(130,720,l),
(120,710,l),
(208,710,o),
(254,710,o),
(299,710,cs),
(492,710,o),
(590,595,o),
(590,365,cs),
(590,135,o),
(492,20,o),
(299,20,cs)
);
}
);
width = 665;
},
{
associatedMasterId = m005;
attr = {
axisRules = (
{
},
{
max = 150;
min = 100;
}
);
};
layerId = "0B885725-F10F-4644-9827-EA65289D82C3";
name = "Jun 14, 26 at 20:30";
shapes = (
{
closed = 1;
nodes = (
(522,0,o),
(640,126,o),
(640,365,cs),
(640,604,o),
(522,730,o),
(298,730,cs),
(243,730,o),
(171,730,o),
(90,730,c),
(90,0,l),
(171,0,o),
(243,0,o),
(298,0,cs)
);
},
{
closed = 1;
nodes = (
(264,98,o),
(186,98,o),
(141,98,c),
(200,38,l),
(200,693,l),
(141,632,l),
(186,632,o),
(264,632,o),
(298,632,cs),
(453,632,o),
(527,546,o),
(527,365,cs),
(527,184,o),
(453,98,o),
(298,98,cs)
);
}
);
width = 685;
},
{
associatedMasterId = m01;
attr = {
axisRules = (
{
},
{
max = 150;
min = 100;
}
);
};
layerId = "08845D47-9C10-4CC7-8019-E07738689642";
name = "Jun 15, 26 at 20:56";
shapes = (
{
closed = 1;
nodes = (
(496,0,o),
(600,125,o),
(600,365,cs),
(600,605,o),
(496,730,o),
(295,730,cs),
(251,730,o),
(196,730,o),
(110,730,c),
(110,0,l),
(196,0,o),
(251,0,o),
(295,0,cs)
);
},
{
closed = 1;
nodes = (
(251,20,o),
(206,20,o),
(120,20,c),
(130,10,l),
(130,720,l),
(120,710,l),
(206,710,o),
(251,710,o),
(295,710,cs),
(484,710,o),
(580,595,o),
(580,365,cs),
(580,135,o),
(484,20,o),
(295,20,cs)
);
}
);
width = 655;
},
{
associatedMasterId = m002;
attr = {
axisRules = (
{
},
{
max = 150;
min = 100;
}
);
};
layerId = "0A29775C-4A36-4DE7-8E65-A7018B973283";
name = "Jun 15, 26 at 20:56";
shapes = (
{
closed = 1;
nodes = (
(514,0,o),
(630,126,o),
(630,365,cs),
(630,604,o),
(514,730,o),
(294,730,cs),
(240,730,o),
(170,730,o),
(90,730,c),
(90,0,l),
(170,0,o),
(240,0,o),
(294,0,cs)
);
},
{
closed = 1;
nodes = (
(262,98,o),
(186,98,o),
(142,98,c),
(200,38,l),
(200,693,l),
(142,632,l),
(186,632,o),
(262,632,o),
(294,632,cs),
(445,632,o),
(517,546,o),
(517,365,cs),
(517,184,o),
(445,98,o),
(294,98,cs)
);
}
);
width = 675;
},
{
associatedMasterId = m003;
attr = {
axisRules = (
{
},
{
max = 150;
min = 100;
}
);
};
layerId = "DC3B71D2-4A19-40D9-869C-876F9570803E";
name = "Jun 15, 26 at 20:56";
shapes = (
{
closed = 1;
nodes = (
(534,0,o),
(660,125,o),
(660,365,cs),
(660,605,o),
(534,730,o),
(293,730,cs),
(240,730,o),
(173,730,o),
(70,730,c),
(70,0,l),
(173,0,o),
(240,0,o),
(293,0,cs)
);
},
{
closed = 1;
nodes = (
(266,176,o),
(213,176,o),
(172,176,c),
(270,70,l),
(270,660,l),
(172,554,l),
(213,554,o),
(266,554,o),
(294,554,cs),
(406,554,o),
(454,497,o),
(454,365,cs),
(454,233,o),
(406,176,o),
(294,176,cs)
);
}
);
width = 695;
}
);
metricLeft = "=H";
metricRight = "=O";
unicode = 68;
},
{
color = 4;
glyphname = E;
kernLeft = H;
kernRight = E;
lastChange = "2026-07-04 09:13:54 +0000";
layers = (
{
layerId = m01;
shapes = (
{
closed = 1;
nodes = (
(490,0,l),
(490,20,l),
(130,20,l),
(130,380,l),
(470,380,l),
(470,400,l),
(130,400,l),
(130,710,l),
(490,710,l),
(490,730,l),
(110,730,l),
(110,0,l)
);
}
);
width = 589;
},
{
layerId = m002;
shapes = (
{
closed = 1;
nodes = (
(510,0,l),
(510,98,l),
(200,98,l),
(200,331,l),
(490,331,l),
(490,429,l),
(200,429,l),
(200,632,l),
(510,632,l),
(510,730,l),
(90,730,l),
(90,0,l)
);
}
);
width = 591;
},
{
layerId = m003;
shapes = (
{
closed = 1;
nodes = (
(530,0,l),
(530,172,l),
(270,172,l),
(270,285,l),
(510,285,l),
(510,455,l),
(270,455,l),
(270,558,l),
(530,558,l),
(530,730,l),
(70,730,l),
(70,0,l)
);
}
);
width = 593;
},
{
layerId = m004;
shapes = (
{
closed = 1;
nodes = (
(510,0,l),
(510,20,l),
(130,20,l),
(130,380,l),
(490,380,l),
(490,400,l),
(130,400,l),
(130,710,l),
(510,710,l),
(510,730,l),
(110,730,l),
(110,0,l)
);
}
);
width = 609;
},
{
layerId = m005;
shapes = (
{
closed = 1;
nodes = (
(540,0,l),
(540,98,l),
(200,98,l),
(200,331,l),
(520,331,l),
(520,429,l),
(200,429,l),
(200,632,l),
(540,632,l),
(540,730,l),
(90,730,l),
(90,0,l)
);
}
);
width = 621;
},
{
layerId = m006;
shapes = (
{
closed = 1;
nodes = (
(570,0,l),
(570,172,l),
(270,172,l),
(270,285,l),
(550,285,l),
(550,455,l),
(270,455,l),
(270,558,l),
(570,558,l),
(570,730,l),
(70,730,l),
(70,0,l)
);
}
);
width = 633;
}
);
metricLeft = "=H";
metricRight = "=H*.9";
unicode = 69;
},
{
color = 4;
glyphname = F;
kernLeft = H;
kernRight = F;
lastChange = "2026-07-04 09:13:56 +0000";
layers = (
{
layerId = m01;
shapes = (
{
closed = 1;
nodes = (
(130,0,l),
(130,380,l),
(470,380,l),
(470,400,l),
(130,400,l),
(130,710,l),
(490,710,l),
(490,730,l),
(110,730,l),
(110,0,l)
);
}
);
width = 556;
},
{
layerId = m002;
shapes = (
{
closed = 1;
nodes = (
(200,0,l),
(200,326,l),
(495,326,l),
(495,424,l),
(200,424,l),
(200,632,l),
(515,632,l),
(515,730,l),
(90,730,l),
(90,0,l)
);
}
);
width = 569;
},
{
layerId = m003;
shapes = (
{
closed = 1;
nodes = (
(270,0,l),
(270,272,l),
(520,272,l),
(520,448,l),
(270,448,l),
(270,554,l),
(540,554,l),
(540,730,l),
(70,730,l),
(70,0,l)
);
}
);
width = 582;
},
{
layerId = m004;
shapes = (
{
closed = 1;
nodes = (
(130,0,l),
(130,380,l),
(510,380,l),
(510,400,l),
(130,400,l),
(130,710,l),
(530,710,l),
(530,730,l),
(110,730,l),
(110,0,l)
);
}
);
width = 596;
},
{
layerId = m005;
shapes = (
{
closed = 1;
nodes = (
(200,0,l),
(200,326,l),
(535,326,l),
(535,424,l),
(200,424,l),
(200,632,l),
(555,632,l),
(555,730,l),
(90,730,l),
(90,0,l)
);
}
);
width = 609;
},
{
layerId = m006;
shapes = (
{
closed = 1;
nodes = (
(270,0,l),
(270,272,l),
(560,272,l),
(560,448,l),
(270,448,l),
(270,554,l),
(580,554,l),
(580,730,l),
(70,730,l),
(70,0,l)
);
}
);
width = 622;
}
);
metricLeft = "=H";
metricRight = "=H*.6";
unicode = 70;
},
{
color = 4;
glyphname = G;
kernLeft = O;
kernRight = G;
lastChange = "2026-07-04 09:13:59 +0000";
layers = (
{
layerId = m003;
name = "Black F1";
shapes = (
{
closed = 1;
nodes = (
(558,-20,o),
(680,5,o),
(755,42,c),
(755,449,l),
(389,449,l),
(389,271,l),
(555,271,l),
(555,156,l),
(570,181,l),
(534,166,o),
(504,160,o),
(464,160,cs),
(321,160,o),
(241,233,o),
(241,365,cs),
(241,495,o),
(318,570,o),
(452,570,cs),
(523,570,o),
(610,549,o),
(664,519,c),
(706,693,l),
(635,730,o),
(546,750,o),
(451,750,cs),
(193,750,o),
(35,603,o),
(35,365,cs),
(35,127,o),
(193,-20,o),
(451,-20,cs)
);
}
);
width = 818;
},
{
layerId = m002;
name = "Medium F1";
shapes = (
{
closed = 1;
nodes = (
(560,-20,o),
(672,3,o),
(745,39,c),
(745,419,l),
(391,419,l),
(391,321,l),
(635,321,l),
(635,81,l),
(648,117,l),
(596,93,o),
(532,80,o),
(465,80,cs),
(273,80,o),
(158,186,o),
(158,365,cs),
(158,543,o),
(271,650,o),
(459,650,cs),
(540,650,o),
(618,630,o),
(682,593,c),
(706,691,l),
(636,730,o),
(553,750,o),
(459,750,cs),
(203,750,o),
(45,603,o),
(45,365,cs),
(45,127,o),
(204,-20,o),
(459,-20,cs)
);
}
);
width = 826;
},
{
layerId = m01;
name = "Thin F1";
shapes = (
{
closed = 1;
nodes = (
(561,-20,o),
(664,1,o),
(735,35,c),
(735,390,l),
(393,390,l),
(393,370,l),
(715,370,l),
(715,36,l),
(726,53,l),
(657,20,o),
(559,0,o),
(466,0,cs),
(224,0,o),
(75,139,o),
(75,365,cs),
(75,591,o),
(224,730,o),
(466,730,cs),
(556,730,o),
(629,711,o),
(695,671,c),
(705,688,l),
(636,730,o),
(559,750,o),
(466,750,cs),
(213,750,o),
(55,602,o),
(55,365,cs),
(55,128,o),
(213,-20,o),
(466,-20,cs)
);
}
);
width = 834;
},
{
layerId = m005;
name = "Medium F2";
shapes = (
{
closed = 1;
nodes = (
(523,-20,o),
(627,3,o),
(695,39,c),
(695,419,l),
(366,419,l),
(366,321,l),
(585,321,l),
(585,96,l),
(603,117,l),
(553,92,o),
(496,80,o),
(437,80,cs),
(262,80,o),
(158,186,o),
(158,365,cs),
(158,543,o),
(261,650,o),
(432,650,cs),
(506,650,o),
(577,630,o),
(633,595,c),
(658,691,l),
(593,730,o),
(516,750,o),
(429,750,cs),
(192,750,o),
(45,603,o),
(45,365,cs),
(45,127,o),
(192,-20,o),
(429,-20,cs)
);
}
);
width = 776;
},
{
layerId = m004;
name = "Thin F2";
shapes = (
{
closed = 1;
nodes = (
(509,-20,o),
(601,1,o),
(665,35,c),
(665,390,l),
(358,390,l),
(358,370,l),
(645,370,l),
(645,36,l),
(656,53,l),
(594,20,o),
(506,0,o),
(424,0,cs),
(208,0,o),
(75,139,o),
(75,365,cs),
(75,591,o),
(208,730,o),
(424,730,cs),
(504,730,o),
(568,711,o),
(627,671,c),
(638,688,l),
(576,730,o),
(507,750,o),
(424,750,cs),
(197,750,o),
(55,602,o),
(55,365,cs),
(55,128,o),
(197,-20,o),
(424,-20,cs)
);
}
);
width = 764;
},
{
layerId = m006;
name = "Black F2";
shapes = (
{
closed = 1;
nodes = (
(536,-20,o),
(653,5,o),
(725,42,c),
(725,449,l),
(374,449,l),
(374,271,l),
(525,271,l),
(525,156,l),
(550,181,l),
(516,166,o),
(488,160,o),
(450,160,cs),
(316,160,o),
(241,233,o),
(241,365,cs),
(241,495,o),
(313,570,o),
(440,570,cs),
(507,570,o),
(585,549,o),
(638,519,c),
(678,693,l),
(610,730,o),
(525,750,o),
(434,750,cs),
(187,750,o),
(35,604,o),
(35,365,cs),
(35,126,o),
(187,-20,o),
(434,-20,cs)
);
}
);
width = 788;
}
);
metricLeft = "=O";
metricRight = "=H*.9";
unicode = 71;
},
{
color = 4;
glyphname = H;
kernLeft = H;
kernRight = H;
lastChange = "2026-07-04 09:12:37 +0000";
layers = (
{
layerId = m01;
shapes = (
{
closed = 1;
nodes = (
(130,0,l),
(130,400,l),
(650,400,l),
(650,0,l),
(670,0,l),
(670,730,l),
(650,730,l),
(650,420,l),
(130,420,l),
(130,730,l),
(110,730,l),
(110,0,l)
);
}
);
width = 780;
},
{
layerId = m002;
shapes = (
{
closed = 1;
nodes = (
(200,0,l),
(200,350,l),
(590,350,l),
(590,0,l),
(700,0,l),
(700,730,l),
(590,730,l),
(590,450,l),
(200,450,l),
(200,730,l),
(90,730,l),
(90,0,l)
);
}
);
width = 790;
},
{
layerId = m003;
shapes = (
{
closed = 1;
nodes = (
(270,0,l),
(270,300,l),
(530,300,l),
(530,0,l),
(730,0,l),
(730,730,l),
(530,730,l),
(530,480,l),
(270,480,l),
(270,730,l),
(70,730,l),
(70,0,l)
);
}
);
width = 800;
},
{
layerId = m004;
shapes = (
{
closed = 1;
nodes = (
(130,0,l),
(130,380,l),
(590,380,l),
(590,0,l),
(610,0,l),
(610,730,l),
(590,730,l),
(590,400,l),
(130,400,l),
(130,730,l),
(110,730,l),
(110,0,l)
);
}
);
width = 720;
},
{
layerId = m005;
shapes = (
{
closed = 1;
nodes = (
(200,0,l),
(200,330,l),
(530,330,l),
(530,0,l),
(640,0,l),
(640,730,l),
(530,730,l),
(530,430,l),
(200,430,l),
(200,730,l),
(90,730,l),
(90,0,l)
);
}
);
width = 730;
},
{
layerId = m006;
shapes = (
{
closed = 1;
nodes = (
(270,0,l),
(270,280,l),
(470,280,l),
(470,0,l),
(670,0,l),
(670,730,l),
(470,730,l),
(470,460,l),
(270,460,l),
(270,730,l),
(70,730,l),
(70,0,l)
);
}
);
width = 740;
}
);
metricRight = "=|";
unicode = 72;
},
{
color = 4;
glyphname = I;
kernLeft = I;
kernRight = I;
lastChange = "2026-07-04 09:12:41 +0000";
layers = (
{
layerId = m01;
shapes = (
{
closed = 1;
nodes = (
(152,0,l),
(152,730,l),
(132,730,l),
(132,0,l)
);
}
);
width = 284;
},
{
layerId = m002;
shapes = (
{
closed = 1;
nodes = (
(222,0,l),
(222,730,l),
(108,730,l),
(108,0,l)
);
}
);
width = 330;
},
{
layerId = m003;
shapes = (
{
closed = 1;
nodes = (
(294,0,l),
(294,730,l),
(84,730,l),
(84,0,l)
);
}
);
width = 378;
},
{
layerId = m004;
shapes = (
{
closed = 1;
nodes = (
(152,0,l),
(152,730,l),
(132,730,l),
(132,0,l)
);
}
);
width = 284;
},
{
layerId = m005;
shapes = (
{
closed = 1;
nodes = (
(222,0,l),
(222,730,l),
(108,730,l),
(108,0,l)
);
}
);
width = 330;
},
{
layerId = m006;
shapes = (
{
closed = 1;
nodes = (
(294,0,l),
(294,730,l),
(84,730,l),
(84,0,l)
);
}
);
width = 378;
}
);
metricLeft = "=H*1.2";
metricRight = "=|";
unicode = 73;
},
{
color = 4;
glyphname = J;
kernLeft = I;
kernRight = I;
lastChange = "2026-07-04 09:14:03 +0000";
layers = (
{
layerId = m01;
metricLeft = "=I-160";
shapes = (
{
closed = 1;
nodes = (
(115,-171,o),
(162,-84,o),
(162,84,cs),
(162,730,l),
(142,730,l),
(142,84,ls),
(142,-77,o),
(98,-158,o),
(-28,-233,c),
(-18,-250,l)
);
}
);
width = 294;
},
{
layerId = m002;
metricLeft = "=I-155";
shapes = (
{
closed = 1;
nodes = (
(181,-143,o),
(233,-41,o),
(233,154,cs),
(233,730,l),
(119,730,l),
(119,154,ls),
(119,1,o),
(80,-73,o),
(-47,-159,c),
(27,-250,l)
);
}
);
width = 341;
},
{
layerId = m003;
metricLeft = "=I-150";
shapes = (
{
closed = 1;
nodes = (
(247,-114,o),
(304,3,o),
(304,224,cs),
(304,730,l),
(96,730,l),
(96,224,ls),
(96,71,o),
(63,6,o),
(-66,-94,c),
(72,-250,l)
);
}
);
width = 388;
},
{
layerId = m004;
metricLeft = "=I-200";
shapes = (
{
closed = 1;
nodes = (
(95,-194,o),
(162,-94,o),
(162,84,cs),
(162,730,l),
(142,730,l),
(142,84,ls),
(142,-86,o),
(80,-178,o),
(-68,-231,c),
(-61,-250,l)
);
}
);
width = 294;
},
{
layerId = m005;
metricLeft = "=I-195";
shapes = (
{
closed = 1;
nodes = (
(163,-159,o),
(233,-50,o),
(233,154,cs),
(233,730,l),
(119,730,l),
(119,154,ls),
(119,-8,o),
(67,-86,o),
(-87,-156,c),
(-27,-250,l)
);
}
);
width = 341;
},
{
layerId = m006;
metricLeft = "=I-190";
shapes = (
{
closed = 1;
nodes = (
(234,-124,o),
(304,-7,o),
(304,224,cs),
(304,730,l),
(96,730,l),
(96,224,ls),
(96,61,o),
(55,-4,o),
(-106,-94,c),
(20,-250,l)
);
}
);
width = 388;
}
);
metricLeft = "=I-210";
metricRight = "=I";
unicode = 74;
},
{
color = 4;
glyphname = K;
kernLeft = H;
kernRight = X;
lastChange = "2026-07-04 09:12:43 +0000";
layers = (
{
layerId = m01;
metricRight = "=H*.2";
shapes = (
{
closed = 1;
nodes = (
(130,0,l),
(130,365,l),
(132,365,l),
(132,395,l),
(130,395,l),
(130,730,l),
(110,730,l),
(110,0,l)
);
},
{
closed = 1;
nodes = (
(138,374,l),
(138,374,l),
(138,374,l),
(610,730,l),
(577,730,l),
(116,383,l)
);
},
{
closed = 1;
nodes = (
(620,0,l),
(141,384,l),
(117,377,l),
(587,0,l)
);
}
);
width = 642;
},
{
layerId = m002;
metricRight = "=H*.14";
shapes = (
{
closed = 1;
nodes = (
(200,0,l),
(200,356,l),
(202,356,l),
(202,410,l),
(200,410,l),
(200,730,l),
(90,730,l),
(90,0,l)
);
},
{
closed = 1;
nodes = (
(285,353,l),
(285,353,l),
(285,353,l),
(650,730,l),
(512,730,l),
(151,362,l)
);
},
{
closed = 1;
nodes = (
(660,0,l),
(294,405,l),
(161,397,l),
(520,0,l)
);
}
);
width = 673;
},
{
layerId = m003;
metricRight = "=H*.08";
name = Black;
shapes = (
{
closed = 1;
nodes = (
(270,0,l),
(270,336,l),
(272,336,l),
(272,416,l),
(270,416,l),
(270,730,l),
(70,730,l),
(70,0,l)
);
},
{
closed = 1;
nodes = (
(444,336,l),
(444,336,l),
(444,336,l),
(720,730,l),
(490,730,l),
(229,354,l)
);
},
{
closed = 1;
nodes = (
(730,0,l),
(437,427,l),
(237,389,l),
(494,0,l)
);
}
);
width = 736;
},
{
layerId = m004;
metricRight = "=H*.2";
shapes = (
{
closed = 1;
nodes = (
(130,0,l),
(130,365,l),
(132,365,l),
(132,395,l),
(130,395,l),
(130,730,l),
(110,730,l),
(110,0,l)
);
},
{
closed = 1;
nodes = (
(138,374,l),
(138,374,l),
(138,374,l),
(600,730,l),
(567,730,l),
(116,383,l)
);
},
{
closed = 1;
nodes = (
(610,0,l),
(142,383,l),
(119,376,l),
(578,0,l)
);
}
);
width = 632;
},
{
background = {
shapes = (
{
closed = 0;
nodes = (
(640,730,l),
(304,369,l)
);
},
{
closed = 0;
nodes = (
(312,383,l),
(650,0,l)
);
}
);
};
layerId = m005;
metricRight = "=H*.14";
shapes = (
{
closed = 1;
nodes = (
(200,0,l),
(200,358,l),
(202,358,l),
(202,406,l),
(200,406,l),
(200,730,l),
(90,730,l),
(90,0,l)
);
},
{
closed = 1;
nodes = (
(288,355,l),
(288,355,l),
(288,355,l),
(640,730,l),
(504,730,l),
(168,369,l)
);
},
{
closed = 1;
nodes = (
(650,0,l),
(290,405,l),
(180,383,l),
(518,0,l)
);
}
);
width = 663;
},
{
layerId = m006;
metricRight = "=H*.08";
shapes = (
{
closed = 1;
nodes = (
(270,0,l),
(270,350,l),
(272,350,l),
(272,417,l),
(270,417,l),
(270,730,l),
(70,730,l),
(70,0,l)
);
},
{
closed = 1;
nodes = (
(450,336,l),
(450,336,l),
(444,336,l),
(680,730,l),
(456,730,l),
(235,354,l)
);
},
{
closed = 1;
nodes = (
(690,0,l),
(434,427,l),
(250,389,l),
(470,0,l)
);
}
);
width = 696;
}
);
metricLeft = "=H";
metricRight = "=H*.3";
unicode = 75;
},
{
color = 4;
glyphname = L;
kernLeft = I;
kernRight = L;
lastChange = "2026-07-04 09:12:47 +0000";
layers = (
{
layerId = m01;
shapes = (
{
closed = 1;
nodes = (
(490,0,l),
(490,20,l),
(130,20,l),
(130,730,l),
(110,730,l),
(110,0,l)
);
}
);
width = 534;
},
{
layerId = m002;
shapes = (
{
closed = 1;
nodes = (
(520,0,l),
(520,100,l),
(204,100,l),
(204,730,l),
(90,730,l),
(90,0,l)
);
}
);
width = 556;
},
{
layerId = m003;
shapes = (
{
closed = 1;
nodes = (
(550,0,l),
(550,180,l),
(278,180,l),
(278,730,l),
(70,730,l),
(70,0,l)
);
}
);
width = 578;
},
{
layerId = m004;
shapes = (
{
closed = 1;
nodes = (
(550,0,l),
(550,20,l),
(130,20,l),
(130,730,l),
(110,730,l),
(110,0,l)
);
}
);
width = 594;
},
{
layerId = m005;
shapes = (
{
closed = 1;
nodes = (
(570,0,l),
(570,100,l),
(204,100,l),
(204,730,l),
(90,730,l),
(90,0,l)
);
}
);
width = 606;
},
{
layerId = m006;
shapes = (
{
closed = 1;
nodes = (
(590,0,l),
(590,180,l),
(278,180,l),
(278,730,l),
(70,730,l),
(70,0,l)
);
}
);
width = 618;
}
);
metricLeft = "=H";
metricRight = "=H*.4";
unicode = 76;
},
{
color = 4;
glyphname = M;
kernLeft = H;
kernRight = H;
lastChange = "2026-07-04 09:12:49 +0000";
layers = (
{
layerId = m01;
shapes = (
{
closed = 1;
nodes = (
(130,0,l),
(130,649,l),
(130,709,l),
(132,709,l),
(464,155,l),
(496,155,l),
(828,709,l),
(830,709,l),
(830,649,l),
(830,0,l),
(850,0,l),
(850,730,l),
(814,730,l),
(481,174,l),
(479,174,l),
(146,730,l),
(110,730,l),
(110,0,l)
);
}
);
width = 960;
},
{
layerId = m002;
shapes = (
{
closed = 1;
nodes = (
(200,0,l),
(200,485,l),
(198,565,l),
(200,565,l),
(427,155,l),
(533,155,l),
(760,565,l),
(762,565,l),
(760,485,l),
(760,0,l),
(870,0,l),
(870,730,l),
(724,730,l),
(481,291,l),
(479,291,l),
(236,730,l),
(90,730,l),
(90,0,l)
);
}
);
width = 960;
},
{
layerId = m004;
shapes = (
{
closed = 1;
nodes = (
(130,0,l),
(130,649,l),
(130,709,l),
(132,709,l),
(408,155,l),
(432,155,l),
(708,709,l),
(710,709,l),
(710,649,l),
(710,0,l),
(730,0,l),
(730,730,l),
(698,730,l),
(421,174,l),
(419,174,l),
(142,730,l),
(110,730,l),
(110,0,l)
);
}
);
width = 840;
},
{
layerId = m005;
shapes = (
{
closed = 1;
nodes = (
(200,0,l),
(200,485,l),
(198,565,l),
(200,565,l),
(382,155,l),
(488,155,l),
(670,565,l),
(672,565,l),
(670,485,l),
(670,0,l),
(780,0,l),
(780,730,l),
(622,730,l),
(436,310,l),
(434,310,l),
(248,730,l),
(90,730,l),
(90,0,l)
);
}
);
width = 870;
},
{
layerId = m006;
shapes = (
{
closed = 1;
nodes = (
(270,0,l),
(270,320,l),
(268,420,l),
(270,420,l),
(360,155,l),
(540,155,l),
(630,420,l),
(632,420,l),
(630,320,l),
(630,0,l),
(830,0,l),
(830,730,l),
(570,730,l),
(451,380,l),
(449,380,l),
(330,730,l),
(70,730,l),
(70,0,l)
);
}
);
width = 900;
},
{
layerId = m003;
name = Black;
shapes = (
{
closed = 1;
nodes = (
(270,0,l),
(270,320,l),
(268,420,l),
(270,420,l),
(390,155,l),
(570,155,l),
(690,420,l),
(692,420,l),
(690,320,l),
(690,0,l),
(890,0,l),
(890,730,l),
(634,730,l),
(481,390,l),
(479,390,l),
(326,730,l),
(70,730,l),
(70,0,l)
);
}
);
width = 960;
}
);
metricLeft = "=H";
metricRight = "=|";
unicode = 77;
},
{
color = 4;
glyphname = N;
kernLeft = H;
kernRight = H;
lastChange = "2026-07-04 09:12:51 +0000";
layers = (
{
layerId = m01;
shapes = (
{
closed = 1;
nodes = (
(130,0,l),
(130,627,l),
(130,707,l),
(132,707,l),
(640,0,l),
(670,0,l),
(670,730,l),
(650,730,l),
(650,103,l),
(650,23,l),
(648,23,l),
(140,730,l),
(110,730,l),
(110,0,l)
);
}
);
width = 780;
},
{
layerId = m002;
shapes = (
{
closed = 1;
nodes = (
(200,0,l),
(200,463,l),
(198,553,l),
(200,553,l),
(580,0,l),
(700,0,l),
(700,730,l),
(590,730,l),
(590,267,l),
(592,177,l),
(590,177,l),
(210,730,l),
(90,730,l),
(90,0,l)
);
}
);
width = 790;
},
{
layerId = m003;
shapes = (
{
closed = 1;
nodes = (
(270,0,l),
(270,314,l),
(268,414,l),
(270,414,l),
(510,0,l),
(730,0,l),
(730,730,l),
(530,730,l),
(530,416,l),
(532,316,l),
(530,316,l),
(290,730,l),
(70,730,l),
(70,0,l)
);
}
);
width = 800;
},
{
layerId = m004;
shapes = (
{
closed = 1;
nodes = (
(130,0,l),
(130,625,l),
(130,705,l),
(132,705,l),
(560,0,l),
(590,0,l),
(590,730,l),
(570,730,l),
(570,105,l),
(570,25,l),
(568,25,l),
(140,730,l),
(110,730,l),
(110,0,l)
);
}
);
width = 700;
},
{
layerId = m005;
shapes = (
{
closed = 1;
nodes = (
(200,0,l),
(200,450,l),
(198,540,l),
(200,540,l),
(510,0,l),
(630,0,l),
(630,730,l),
(520,730,l),
(520,280,l),
(522,190,l),
(520,190,l),
(210,730,l),
(90,730,l),
(90,0,l)
);
}
);
width = 720;
},
{
layerId = m006;
shapes = (
{
closed = 1;
nodes = (
(270,0,l),
(270,280,l),
(268,380,l),
(270,380,l),
(460,0,l),
(670,0,l),
(670,730,l),
(470,730,l),
(470,450,l),
(472,350,l),
(470,350,l),
(280,730,l),
(70,730,l),
(70,0,l)
);
}
);
width = 740;
}
);
metricLeft = "=H";
metricRight = "=|";
unicode = 78;
},
{
color = 4;
glyphname = O;
kernLeft = O;
kernRight = O;
lastChange = "2026-07-04 09:12:53 +0000";
layers = (
{
layerId = m01;
shapes = (
{
closed = 1;
nodes = (
(672,-20,o),
(835,141,o),
(835,365,cs),
(835,589,o),
(672,750,o),
(445,750,cs),
(218,750,o),
(55,589,o),
(55,365,cs),
(55,141,o),
(218,-20,o),
(445,-20,cs)
);
},
{
closed = 1;
nodes = (
(229,0,o),
(75,152,o),
(75,365,cs),
(75,578,o),
(229,730,o),
(445,730,cs),
(661,730,o),
(815,578,o),
(815,365,cs),
(815,152,o),
(661,0,o),
(445,0,cs)
);
}
);
width = 890;
},
{
layerId = m002;
shapes = (
{
closed = 1;
nodes = (
(670,-20,o),
(835,141,o),
(835,365,cs),
(835,589,o),
(670,750,o),
(440,750,cs),
(210,750,o),
(45,589,o),
(45,365,cs),
(45,141,o),
(210,-20,o),
(440,-20,cs)
);
},
{
closed = 1;
nodes = (
(275,85,o),
(159,201,o),
(159,365,cs),
(159,529,o),
(275,645,o),
(440,645,cs),
(605,645,o),
(721,529,o),
(721,365,cs),
(721,201,o),
(605,85,o),
(440,85,cs)
);
}
);
width = 880;
},
{
layerId = m003;
shapes = (
{
closed = 1;
nodes = (
(668,-20,o),
(835,141,o),
(835,365,cs),
(835,589,o),
(668,750,o),
(435,750,cs),
(202,750,o),
(35,589,o),
(35,365,cs),
(35,141,o),
(202,-20,o),
(435,-20,cs)
);
},
{
closed = 1;
nodes = (
(322,170,o),
(243,250,o),
(243,365,cs),
(243,480,o),
(322,560,o),
(435,560,cs),
(548,560,o),
(627,480,o),
(627,365,cs),
(627,250,o),
(548,170,o),
(435,170,cs)
);
}
);
width = 870;
},
{
layerId = m005;
shapes = (
{
closed = 1;
nodes = (
(631,-20,o),
(775,133,o),
(775,365,cs),
(775,598,o),
(631,750,o),
(410,750,cs),
(190,750,o),
(45,598,o),
(45,365,cs),
(45,133,o),
(190,-20,o),
(410,-20,cs)
);
},
{
closed = 1;
nodes = (
(255,85,o),
(159,192,o),
(159,365,cs),
(159,538,o),
(255,645,o),
(410,645,cs),
(565,645,o),
(661,538,o),
(661,365,cs),
(661,192,o),
(565,85,o),
(410,85,cs)
);
}
);
width = 820;
},
{
layerId = m006;
name = "Black F2";
shapes = (
{
closed = 1;
nodes = (
(641,-20,o),
(795,136,o),
(795,365,cs),
(795,594,o),
(641,750,o),
(415,750,cs),
(189,750,o),
(35,594,o),
(35,365,cs),
(35,136,o),
(189,-20,o),
(415,-20,cs)
);
},
{
closed = 1;
nodes = (
(309,170,o),
(243,245,o),
(243,365,cs),
(243,485,o),
(309,560,o),
(415,560,cs),
(521,560,o),
(587,485,o),
(587,365,cs),
(587,245,o),
(521,170,o),
(415,170,cs)
);
}
);
width = 830;
},
{
layerId = m004;
name = "Thin F2";
shapes = (
{
closed = 1;
nodes = (
(620,-20,o),
(755,129,o),
(755,365,cs),
(755,601,o),
(620,750,o),
(405,750,cs),
(190,750,o),
(55,601,o),
(55,365,cs),
(55,129,o),
(190,-20,o),
(405,-20,cs)
);
},
{
closed = 1;
nodes = (
(201,0,o),
(75,139,o),
(75,365,cs),
(75,591,o),
(201,730,o),
(405,730,cs),
(609,730,o),
(735,591,o),
(735,365,cs),
(735,139,o),
(609,0,o),
(405,0,cs)
);
}
);
width = 810;
}
);
metricLeft = "=H*.5";
metricRight = "=|";
unicode = 79;
},
{
color = 4;
glyphname = P;
kernLeft = H;
kernRight = P;
lastChange = "2026-07-04 09:12:56 +0000";
layers = (
{
layerId = m01;
shapes = (
{
closed = 1;
nodes = (
(130,0,l),
(130,715,l),
(112,706,l),
(206,717,o),
(238,720,o),
(278,720,cs),
(456,720,o),
(530,663,o),
(530,535,cs),
(530,407,o),
(456,350,o),
(278,350,cs),
(239,350,o),
(208,353,o),
(121,363,c),
(119,343,l),
(206,333,o),
(238,330,o),
(278,330,cs),
(465,330,o),
(550,394,o),
(550,535,cs),
(550,676,o),
(465,740,o),
(278,740,cs),
(237,740,o),
(204,737,o),
(110,726,c),
(110,0,l)
);
}
);
width = 594;
},
{
layerId = m002;
shapes = (
{
closed = 1;
nodes = (
(201,0,l),
(201,688,l),
(139,630,l),
(205,638,o),
(250,642,o),
(289,642,cs),
(414,642,o),
(466,602,o),
(466,506,cs),
(466,410,o),
(414,370,o),
(289,370,cs),
(255,370,o),
(215,373,o),
(144,382,c),
(143,282,l),
(217,274,o),
(244,272,o),
(277,272,cs),
(481,272,o),
(580,349,o),
(580,506,cs),
(580,663,o),
(481,740,o),
(277,740,cs),
(225,740,o),
(160,735,o),
(90,726,c),
(90,0,l)
);
}
);
width = 616;
},
{
layerId = m003;
shapes = (
{
closed = 1;
nodes = (
(272,0,l),
(272,660,l),
(166,554,l),
(220,560,o),
(269,564,o),
(299,564,cs),
(374,564,o),
(402,540,o),
(402,477,cs),
(402,414,o),
(374,390,o),
(299,390,cs),
(269,390,o),
(220,394,o),
(166,400,c),
(166,220,l),
(209,216,o),
(243,214,o),
(276,214,cs),
(497,214,o),
(610,303,o),
(610,477,cs),
(610,650,o),
(496,740,o),
(276,740,cs),
(219,740,o),
(127,734,o),
(70,726,c),
(70,0,l)
);
}
);
width = 638;
},
{
layerId = m004;
shapes = (
{
closed = 1;
nodes = (
(130,0,l),
(130,715,l),
(112,706,l),
(210,717,o),
(245,720,o),
(286,720,cs),
(473,720,o),
(550,661,o),
(550,525,cs),
(550,389,o),
(473,330,o),
(286,330,cs),
(245,330,o),
(204,333,o),
(121,343,c),
(119,323,l),
(202,313,o),
(244,310,o),
(286,310,cs),
(483,310,o),
(570,376,o),
(570,525,cs),
(570,674,o),
(483,740,o),
(286,740,cs),
(244,740,o),
(208,737,o),
(110,726,c),
(110,0,l)
);
}
);
width = 614;
},
{
layerId = m005;
shapes = (
{
closed = 1;
nodes = (
(201,0,l),
(201,688,l),
(143,630,l),
(224,639,o),
(269,642,o),
(305,642,cs),
(441,642,o),
(496,601,o),
(496,499,cs),
(496,398,o),
(439,355,o),
(305,355,cs),
(269,355,o),
(230,358,o),
(147,367,c),
(146,267,l),
(212,260,o),
(246,257,o),
(289,257,cs),
(507,257,o),
(610,335,o),
(610,499,cs),
(610,662,o),
(507,740,o),
(289,740,cs),
(234,740,o),
(166,735,o),
(90,726,c),
(90,0,l)
);
}
);
width = 646;
},
{
layerId = m006;
shapes = (
{
closed = 1;
nodes = (
(272,0,l),
(272,660,l),
(173,554,l),
(230,560,o),
(289,564,o),
(324,564,cs),
(411,564,o),
(442,540,o),
(442,472,cs),
(442,404,o),
(411,380,o),
(324,380,cs),
(289,380,o),
(230,384,o),
(173,390,c),
(173,210,l),
(229,205,o),
(265,204,o),
(291,204,cs),
(533,204,o),
(650,292,o),
(650,472,cs),
(650,652,o),
(533,740,o),
(291,740,cs),
(223,740,o),
(120,733,o),
(70,726,c),
(70,0,l)
);
}
);
width = 678;
},
{
associatedMasterId = m006;
attr = {
axisRules = (
{
},
{
max = 150;
min = 100;
}
);
};
layerId = "C2F37F2E-F1FA-4B5A-A169-3627F8CF03A4";
name = "Jun 15, 26 at 11:41";
shapes = (
{
closed = 1;
nodes = (
(272,0,l),
(272,660,l),
(173,554,l),
(230,554,o),
(289,554,o),
(324,554,cs),
(411,554,o),
(442,531,o),
(442,467,cs),
(442,403,o),
(411,380,o),
(324,380,cs),
(289,380,o),
(230,380,o),
(173,380,c),
(173,204,l),
(229,204,o),
(264,204,o),
(290,204,cs),
(537,204,o),
(650,286,o),
(650,467,cs),
(650,648,o),
(538,730,o),
(291,730,cs),
(223,730,o),
(120,730,o),
(70,730,c),
(70,0,l)
);
}
);
width = 678;
},
{
associatedMasterId = m004;
attr = {
axisRules = (
{
},
{
max = 150;
min = 100;
}
);
};
layerId = "190FF0EF-8281-4F64-A8C5-C406AC696CA8";
name = "Jun 15, 26 at 11:44";
shapes = (
{
closed = 1;
nodes = (
(130,0,l),
(130,720,l),
(120,710,l),
(218,710,o),
(244,710,o),
(286,710,cs),
(474,710,o),
(550,653,o),
(550,520,cs),
(550,387,o),
(474,330,o),
(286,330,cs),
(244,330,o),
(203,330,o),
(120,330,c),
(120,310,l),
(203,310,o),
(244,310,o),
(286,310,cs),
(483,310,o),
(570,374,o),
(570,520,cs),
(570,666,o),
(483,730,o),
(286,730,cs),
(244,730,o),
(208,730,o),
(110,730,c),
(110,0,l)
);
}
);
width = 614;
},
{
associatedMasterId = m005;
attr = {
axisRules = (
{
},
{
max = 150;
min = 100;
}
);
};
layerId = "4B8B41D0-6C23-456E-9863-169414F35D9E";
name = "Jun 15, 26 at 11:47";
shapes = (
{
closed = 1;
nodes = (
(201,0,l),
(201,690,l),
(147,632,l),
(224,632,o),
(267,632,o),
(305,632,cs),
(442,632,o),
(496,593,o),
(496,494,cs),
(496,395,o),
(442,356,o),
(305,356,cs),
(267,356,o),
(217,356,o),
(147,356,c),
(147,258,l),
(216,258,o),
(255,258,o),
(289,258,cs),
(511,258,o),
(610,331,o),
(610,494,cs),
(610,657,o),
(511,730,o),
(289,730,cs),
(234,730,o),
(164,730,o),
(90,730,c),
(90,0,l)
);
}
);
width = 646;
},
{
associatedMasterId = m01;
attr = {
axisRules = (
{
},
{
max = 150;
min = 100;
}
);
};
layerId = "3C33BAB6-008D-44BB-ABF1-03F02741D686";
name = "Jun 15, 26 at 21:01";
shapes = (
{
closed = 1;
nodes = (
(130,0,l),
(130,720,l),
(120,710,l),
(214,710,o),
(238,710,o),
(278,710,cs),
(458,710,o),
(530,656,o),
(530,530,cs),
(530,404,o),
(458,350,o),
(278,350,cs),
(238,350,o),
(199,350,o),
(120,350,c),
(120,330,l),
(199,330,o),
(238,330,o),
(278,330,cs),
(467,330,o),
(550,391,o),
(550,530,cs),
(550,669,o),
(467,730,o),
(278,730,cs),
(238,730,o),
(204,730,o),
(110,730,c),
(110,0,l)
);
}
);
width = 594;
},
{
associatedMasterId = m002;
attr = {
axisRules = (
{
},
{
max = 150;
min = 100;
}
);
};
layerId = "312D0A1D-0B74-4630-8A3F-2145FEFC06CA";
name = "Jun 15, 26 at 21:01";
shapes = (
{
closed = 1;
nodes = (
(201,0,l),
(201,690,l),
(143,632,l),
(215,632,o),
(253,632,o),
(289,632,cs),
(416,632,o),
(466,595,o),
(466,501,cs),
(466,407,o),
(416,370,o),
(289,370,cs),
(253,370,o),
(208,370,o),
(143,370,c),
(143,272,l),
(209,272,o),
(245,272,o),
(277,272,cs),
(487,272,o),
(580,342,o),
(580,501,cs),
(580,660,o),
(487,730,o),
(277,730,cs),
(225,730,o),
(161,730,o),
(90,730,c),
(90,0,l)
);
}
);
width = 616;
},
{
associatedMasterId = m003;
attr = {
axisRules = (
{
},
{
max = 150;
min = 100;
}
);
};
layerId = "6207D0E1-E8E0-49F7-8968-0B272C5B9462";
name = "Jun 15, 26 at 21:02";
shapes = (
{
closed = 1;
nodes = (
(272,0,l),
(272,660,l),
(166,554,l),
(216,554,o),
(268,554,o),
(299,554,cs),
(375,554,o),
(402,532,o),
(402,472,cs),
(402,412,o),
(375,390,o),
(299,390,cs),
(268,390,o),
(216,390,o),
(166,390,c),
(166,214,l),
(219,214,o),
(251,214,o),
(276,214,cs),
(506,214,o),
(610,294,o),
(610,472,cs),
(610,650,o),
(506,730,o),
(276,730,cs),
(212,730,o),
(117,730,o),
(70,730,c),
(70,0,l)
);
}
);
width = 638;
}
);
metricLeft = "=H";
metricRight = "=H*.4";
unicode = 80;
},
{
color = 4;
glyphname = Q;
kernLeft = O;
kernRight = O;
lastChange = "2026-07-04 09:12:59 +0000";
layers = (
{
layerId = m01;
shapes = (
{
closed = 1;
nodes = (
(593,-20,o),
(706,-68,o),
(775,-160,c),
(791,-148,l),
(736,-75,o),
(652,-27,o),
(549,-9,c),
(549,-7,l),
(720,34,o),
(835,178,o),
(835,365,cs),
(835,589,o),
(672,750,o),
(445,750,cs),
(218,750,o),
(55,589,o),
(55,365,cs),
(55,141,o),
(218,-20,o),
(445,-20,cs)
);
},
{
closed = 1;
nodes = (
(229,0,o),
(75,152,o),
(75,365,cs),
(75,578,o),
(229,730,o),
(445,730,cs),
(661,730,o),
(815,578,o),
(815,365,cs),
(815,152,o),
(661,0,o),
(445,0,cs)
);
}
);
width = 890;
},
{
layerId = m002;
shapes = (
{
closed = 1;
nodes = (
(572,-20,o),
(650,-57,o),
(720,-160,c),
(808,-90,l),
(766,-36,o),
(713,3,o),
(645,29,c),
(645,31,l),
(762,95,o),
(835,216,o),
(835,365,cs),
(835,589,o),
(670,750,o),
(440,750,cs),
(210,750,o),
(45,589,o),
(45,365,cs),
(45,141,o),
(210,-20,o),
(440,-20,cs)
);
},
{
closed = 1;
nodes = (
(274,85,o),
(157,201,o),
(157,365,cs),
(157,529,o),
(274,645,o),
(440,645,cs),
(606,645,o),
(723,529,o),
(723,365,cs),
(723,201,o),
(606,85,o),
(440,85,cs)
);
}
);
width = 880;
},
{
layerId = m003;
shapes = (
{
closed = 1;
nodes = (
(551,-20,o),
(594,-46,o),
(665,-160,c),
(825,-50,l),
(787,0,o),
(743,37,o),
(692,62,c),
(692,64,l),
(784,135,o),
(835,242,o),
(835,365,cs),
(835,589,o),
(668,750,o),
(435,750,cs),
(202,750,o),
(35,589,o),
(35,365,cs),
(35,141,o),
(202,-20,o),
(435,-20,cs)
);
},
{
closed = 1;
nodes = (
(321,170,o),
(241,250,o),
(241,365,cs),
(241,480,o),
(321,560,o),
(435,560,cs),
(549,560,o),
(629,480,o),
(629,365,cs),
(629,250,o),
(549,170,o),
(435,170,cs)
);
}
);
width = 870;
},
{
layerId = m004;
shapes = (
{
closed = 1;
nodes = (
(541,-20,o),
(666,-74,o),
(729,-160,c),
(745,-148,l),
(690,-76,o),
(605,-28,o),
(501,-10,c),
(501,-8,l),
(659,30,o),
(755,167,o),
(755,365,cs),
(755,601,o),
(620,750,o),
(405,750,cs),
(190,750,o),
(55,601,o),
(55,365,cs),
(55,129,o),
(190,-20,o),
(405,-20,cs)
);
},
{
closed = 1;
nodes = (
(201,0,o),
(75,139,o),
(75,365,cs),
(75,591,o),
(201,730,o),
(405,730,cs),
(609,730,o),
(735,591,o),
(735,365,cs),
(735,139,o),
(609,0,o),
(405,0,cs)
);
}
);
width = 810;
},
{
layerId = m005;
shapes = (
{
closed = 1;
nodes = (
(539,-20,o),
(615,-59,o),
(682,-160,c),
(770,-90,l),
(726,-35,o),
(673,3,o),
(605,29,c),
(605,31,l),
(712,93,o),
(775,212,o),
(775,365,cs),
(775,598,o),
(631,750,o),
(410,750,cs),
(190,750,o),
(45,598,o),
(45,365,cs),
(45,133,o),
(190,-20,o),
(410,-20,cs)
);
},
{
closed = 1;
nodes = (
(255,85,o),
(159,192,o),
(159,365,cs),
(159,538,o),
(255,645,o),
(410,645,cs),
(565,645,o),
(661,538,o),
(661,365,cs),
(661,192,o),
(565,85,o),
(410,85,cs)
);
}
);
width = 820;
},
{
layerId = m006;
shapes = (
{
closed = 1;
nodes = (
(527,-20,o),
(568,-46,o),
(636,-160,c),
(795,-50,l),
(762,-4,o),
(714,35,o),
(660,60,c),
(660,62,l),
(745,129,o),
(795,235,o),
(795,365,cs),
(795,594,o),
(641,750,o),
(415,750,cs),
(189,750,o),
(35,594,o),
(35,365,cs),
(35,136,o),
(189,-20,o),
(415,-20,cs)
);
},
{
closed = 1;
nodes = (
(309,170,o),
(243,245,o),
(243,365,cs),
(243,485,o),
(309,560,o),
(415,560,cs),
(521,560,o),
(587,485,o),
(587,365,cs),
(587,245,o),
(521,170,o),
(415,170,cs)
);
}
);
width = 830;
}
);
metricLeft = "=H*.5";
metricRight = "=|";
unicode = 81;
},
{
color = 4;
glyphname = R;
kernLeft = H;
kernRight = R;
lastChange = "2026-07-04 09:13:01 +0000";
layers = (
{
layerId = m002;
metricRight = "=H*.3";
shapes = (
{
closed = 1;
nodes = (
(199,0,l),
(199,688,l),
(139,630,l),
(195,638,o),
(247,642,o),
(289,642,cs),
(415,642,o),
(466,606,o),
(466,518,cs),
(466,430,o),
(415,394,o),
(289,394,cs),
(259,394,o),
(235,396,o),
(144,406,c),
(143,310,l),
(211,302,o),
(243,300,o),
(277,300,cs),
(481,300,o),
(580,372,o),
(580,520,cs),
(580,668,o),
(481,740,o),
(277,740,cs),
(229,740,o),
(166,736,o),
(90,726,c),
(90,0,l)
);
},
{
closed = 1;
nodes = (
(610,0,l),
(290,353,l),
(166,353,l),
(484,0,l)
);
}
);
width = 637;
},
{
layerId = m003;
metricRight = "=H*.2";
shapes = (
{
closed = 1;
nodes = (
(268,0,l),
(268,660,l),
(166,559,l),
(223,566,o),
(268,570,o),
(299,570,cs),
(374,570,o),
(402,547,o),
(402,487,cs),
(402,427,o),
(374,404,o),
(299,404,cs),
(268,404,o),
(223,408,o),
(166,415,c),
(166,246,l),
(209,242,o),
(242,240,o),
(276,240,cs),
(496,240,o),
(610,324,o),
(610,487,cs),
(610,654,o),
(496,740,o),
(276,740,cs),
(217,740,o),
(127,734,o),
(70,726,c),
(70,0,l)
);
},
{
closed = 1;
nodes = (
(650,0,l),
(430,327,l),
(228,327,l),
(432,0,l)
);
}
);
width = 664;
},
{
layerId = m006;
metricRight = "=H*.2";
shapes = (
{
closed = 1;
nodes = (
(272,0,l),
(272,660,l),
(173,559,l),
(230,566,o),
(286,570,o),
(324,570,cs),
(411,570,o),
(442,549,o),
(442,489,cs),
(442,429,o),
(411,408,o),
(324,408,cs),
(286,408,o),
(230,412,o),
(173,419,c),
(173,250,l),
(229,245,o),
(264,244,o),
(291,244,cs),
(533,244,o),
(650,325,o),
(650,492,cs),
(650,659,o),
(533,740,o),
(291,740,cs),
(220,740,o),
(120,733,o),
(70,726,c),
(70,0,l)
);
},
{
closed = 1;
nodes = (
(670,0,l),
(471,327,l),
(263,327,l),
(450,0,l)
);
}
);
width = 684;
},
{
layerId = m004;
metricRight = "=H*.4";
name = "Thin Eve";
shapes = (
{
closed = 1;
nodes = (
(130,0,l),
(130,715,l),
(112,706,l),
(209,717,o),
(243,720,o),
(286,720,cs),
(474,720,o),
(550,666,o),
(550,540,cs),
(550,414,o),
(474,360,o),
(286,360,cs),
(243,360,o),
(202,363,o),
(121,373,c),
(119,353,l),
(200,343,o),
(242,340,o),
(286,340,cs),
(483,340,o),
(570,401,o),
(570,540,cs),
(570,679,o),
(483,740,o),
(286,740,cs),
(242,740,o),
(207,737,o),
(110,726,c),
(110,0,l)
);
},
{
closed = 1;
nodes = (
(590,0,l),
(290,351,l),
(264,351,l),
(564,0,l)
);
}
);
width = 634;
},
{
layerId = m005;
metricRight = "=H*.3";
name = "Medium Eve";
shapes = (
{
closed = 1;
nodes = (
(201,0,l),
(201,688,l),
(143,629,l),
(220,639,o),
(265,642,o),
(305,642,cs),
(442,642,o),
(496,606,o),
(496,515,cs),
(496,424,o),
(442,388,o),
(305,388,cs),
(259,388,o),
(201,392,o),
(147,399,c),
(146,302,l),
(215,294,o),
(252,292,o),
(289,292,cs),
(508,292,o),
(610,363,o),
(610,516,cs),
(610,669,o),
(508,740,o),
(289,740,cs),
(231,740,o),
(164,735,o),
(90,726,c),
(90,0,l)
);
},
{
closed = 1;
nodes = (
(630,0,l),
(381,339,l),
(259,339,l),
(506,0,l)
);
}
);
width = 657;
},
{
layerId = m01;
metricRight = "=H*.4";
name = Thin;
shapes = (
{
closed = 1;
nodes = (
(130,0,l),
(130,715,l),
(112,706,l),
(206,717,o),
(237,720,o),
(278,720,cs),
(456,720,o),
(530,668,o),
(530,550,cs),
(530,432,o),
(456,380,o),
(278,380,cs),
(245,380,o),
(215,382,o),
(121,393,c),
(119,373,l),
(213,362,o),
(244,360,o),
(278,360,cs),
(465,360,o),
(550,419,o),
(550,550,cs),
(550,681,o),
(465,740,o),
(278,740,cs),
(236,740,o),
(204,737,o),
(110,726,c),
(110,0,l)
);
},
{
closed = 1;
nodes = (
(570,0,l),
(153,379,l),
(124,379,l),
(540,0,l)
);
}
);
width = 614;
},
{
associatedMasterId = m004;
attr = {
axisRules = (
{
},
{
max = 150;
min = 100;
}
);
};
layerId = "AD341BE5-1D86-416D-BE90-BF446D902AD7";
metricRight = "=H*.3";
name = "Jun 15, 26 at 13:02";
shapes = (
{
closed = 1;
nodes = (
(130,0,l),
(130,720,l),
(120,710,l),
(228,710,o),
(257,710,o),
(306,710,cs),
(480,710,o),
(550,659,o),
(550,540,cs),
(550,421,o),
(480,370,o),
(306,370,cs),
(257,370,o),
(211,370,o),
(120,370,c),
(120,350,l),
(211,350,o),
(257,350,o),
(306,350,cs),
(489,350,o),
(570,408,o),
(570,540,cs),
(570,672,o),
(489,730,o),
(306,730,cs),
(257,730,o),
(218,730,o),
(110,730,c),
(110,0,l)
);
},
{
closed = 1;
nodes = (
(590,0,l),
(290,361,l),
(264,361,l),
(564,0,l)
);
}
);
width = 623;
},
{
associatedMasterId = m005;
attr = {
axisRules = (
{
},
{
max = 150;
min = 100;
}
);
};
layerId = "9CD70E61-86FD-46F2-9DDD-2820588FA83A";
metricRight = "=H*.2";
name = "Jun 15, 26 at 13:02";
shapes = (
{
closed = 1;
nodes = (
(201,0,l),
(201,690,l),
(147,632,l),
(229,632,o),
(272,632,o),
(315,632,cs),
(445,632,o),
(496,598,o),
(496,512,cs),
(496,426,o),
(445,392,o),
(315,392,cs),
(272,392,o),
(221,392,o),
(147,392,c),
(147,296,l),
(227,296,o),
(272,296,o),
(314,296,cs),
(516,296,o),
(610,365,o),
(610,513,cs),
(610,661,o),
(516,730,o),
(314,730,cs),
(249,730,o),
(173,730,o),
(90,730,c),
(90,0,l)
);
},
{
closed = 1;
nodes = (
(630,0,l),
(381,339,l),
(259,339,l),
(506,0,l)
);
}
);
width = 648;
},
{
associatedMasterId = m006;
attr = {
axisRules = (
{
},
{
max = 150;
min = 100;
}
);
};
layerId = "9B7AE8BE-55EB-41B3-8837-5119F823B4C2";
metricRight = "=H*.1";
name = "Jun 15, 26 at 13:02";
shapes = (
{
closed = 1;
nodes = (
(272,0,l),
(272,660,l),
(173,560,l),
(230,560,o),
(286,560,o),
(324,560,cs),
(411,560,o),
(442,540,o),
(442,484,cs),
(442,428,o),
(411,408,o),
(324,408,cs),
(286,408,o),
(230,408,o),
(173,408,c),
(173,244,l),
(243,244,o),
(287,244,o),
(321,244,cs),
(543,244,o),
(650,323,o),
(650,487,cs),
(650,651,o),
(543,730,o),
(321,730,cs),
(240,730,o),
(127,730,o),
(70,730,c),
(70,0,l)
);
},
{
closed = 1;
nodes = (
(670,0,l),
(471,327,l),
(263,327,l),
(450,0,l)
);
}
);
width = 677;
},
{
associatedMasterId = m01;
attr = {
axisRules = (
{
},
{
max = 150;
min = 100;
}
);
};
layerId = "E93DFEED-F193-4190-850B-2E94B8BF9895";
name = "Jun 15, 26 at 21:03";
shapes = (
{
closed = 1;
nodes = (
(130,0,l),
(130,720,l),
(120,710,l),
(224,710,o),
(251,710,o),
(298,710,cs),
(464,710,o),
(531,659,o),
(531,540,cs),
(531,421,o),
(464,370,o),
(298,370,cs),
(251,370,o),
(207,370,o),
(120,370,c),
(120,350,l),
(207,350,o),
(251,350,o),
(298,350,cs),
(473,350,o),
(551,408,o),
(551,540,cs),
(551,672,o),
(473,730,o),
(298,730,cs),
(251,730,o),
(214,730,o),
(110,730,c),
(110,0,l)
);
},
{
closed = 1;
nodes = (
(570,0,l),
(283,361,l),
(257,361,l),
(544,0,l)
);
}
);
width = 581;
},
{
associatedMasterId = m002;
attr = {
axisRules = (
{
},
{
max = 150;
min = 100;
}
);
};
layerId = "B2077651-A66E-46DF-A37B-806F64CE9DBA";
name = "Jun 15, 26 at 21:03";
shapes = (
{
closed = 1;
nodes = (
(201,0,l),
(201,690,l),
(145,632,l),
(224,632,o),
(264,632,o),
(305,632,cs),
(427,632,o),
(477,597,o),
(477,512,cs),
(477,427,o),
(427,392,o),
(305,392,cs),
(264,392,o),
(215,392,o),
(145,392,c),
(145,296,l),
(222,296,o),
(266,296,o),
(306,296,cs),
(500,296,o),
(591,365,o),
(591,513,cs),
(591,661,o),
(500,730,o),
(306,730,cs),
(243,730,o),
(170,730,o),
(90,730,c),
(90,0,l)
);
},
{
closed = 1;
nodes = (
(610,0,l),
(371,344,l),
(249,344,l),
(486,0,l)
);
}
);
width = 619;
},
{
associatedMasterId = m003;
attr = {
axisRules = (
{
},
{
max = 150;
min = 100;
}
);
};
layerId = "EFC19211-A3D4-408A-81A3-CD70C1F73641";
name = "Jun 15, 26 at 21:03";
shapes = (
{
closed = 1;
nodes = (
(272,0,l),
(272,660,l),
(170,560,l),
(223,560,o),
(276,560,o),
(312,560,cs),
(392,560,o),
(422,539,o),
(422,482,cs),
(422,425,o),
(392,404,o),
(312,404,cs),
(276,404,o),
(223,404,o),
(170,404,c),
(170,240,l),
(237,240,o),
(280,240,o),
(313,240,cs),
(526,240,o),
(630,320,o),
(630,485,cs),
(630,650,o),
(526,730,o),
(313,730,cs),
(234,730,o),
(125,730,o),
(70,730,c),
(70,0,l)
);
},
{
closed = 1;
nodes = (
(650,0,l),
(458,327,l),
(250,327,l),
(430,0,l)
);
}
);
width = 657;
}
);
metricLeft = "=H";
metricRight = "=H*.1";
unicode = 82;
},
{
color = 4;
glyphname = S;
kernLeft = S;
kernRight = S;
lastChange = "2026-07-04 09:13:03 +0000";
layers = (
{
layerId = m01;
shapes = (
{
closed = 1;
nodes = (
(432,-10,o),
(516,60,o),
(516,187,cs),
(516,286,o),
(447,344,o),
(290,389,cs),
(138,432,o),
(88,482,o),
(88,568,cs),
(88,668,o),
(156,720,o),
(296,720,cs),
(374,720,o),
(439,704,o),
(492,677,c),
(501,695,l),
(446,723,o),
(377,740,o),
(296,740,cs),
(146,740,o),
(68,681,o),
(68,568,cs),
(68,471,o),
(126,415,o),
(285,370,cs),
(435,327,o),
(496,275,o),
(496,187,cs),
(496,72,o),
(422,10,o),
(280,10,cs),
(207,10,o),
(133,26,o),
(74,53,c),
(66,35,l),
(127,7,o),
(205,-10,o),
(280,-10,cs)
);
}
);
width = 582;
},
{
layerId = m002;
shapes = (
{
closed = 1;
nodes = (
(456,-10,o),
(554,68,o),
(554,199,cs),
(554,307,o),
(487,370,o),
(333,413,cs),
(213,447,o),
(169,485,o),
(169,544,cs),
(169,608,o),
(216,640,o),
(312,640,cs),
(384,640,o),
(457,622,o),
(511,593,c),
(537,693,l),
(478,723,o),
(401,740,o),
(314,740,cs),
(143,740,o),
(55,674,o),
(55,545,cs),
(55,436,o),
(117,370,o),
(267,330,cs),
(387,298,o),
(440,259,o),
(440,199,cs),
(440,129,o),
(390,90,o),
(297,90,cs),
(227,90,o),
(142,112,o),
(80,146,c),
(54,46,l),
(115,11,o),
(205,-10,o),
(291,-10,cs)
);
}
);
width = 608;
},
{
layerId = m004;
shapes = (
{
closed = 1;
nodes = (
(448,-10,o),
(536,60,o),
(536,187,cs),
(536,287,o),
(464,344,o),
(300,389,cs),
(141,432,o),
(88,482,o),
(88,568,cs),
(88,668,o),
(159,720,o),
(306,720,cs),
(388,720,o),
(456,704,o),
(511,677,c),
(520,695,l),
(463,723,o),
(391,740,o),
(306,740,cs),
(150,740,o),
(68,681,o),
(68,568,cs),
(68,471,o),
(129,415,o),
(295,370,cs),
(452,327,o),
(516,275,o),
(516,187,cs),
(516,72,o),
(438,10,o),
(290,10,cs),
(213,10,o),
(136,26,o),
(74,53,c),
(66,35,l),
(130,7,o),
(211,-10,o),
(290,-10,cs)
);
}
);
width = 602;
},
{
layerId = m005;
shapes = (
{
closed = 1;
nodes = (
(472,-10,o),
(574,68,o),
(574,199,cs),
(574,307,o),
(502,370,o),
(342,413,cs),
(215,447,o),
(169,485,o),
(169,544,cs),
(169,608,o),
(218,640,o),
(320,640,cs),
(396,640,o),
(473,622,o),
(530,593,c),
(556,693,l),
(495,723,o),
(415,740,o),
(324,740,cs),
(147,740,o),
(55,674,o),
(55,545,cs),
(55,436,o),
(122,370,o),
(278,330,cs),
(404,298,o),
(460,259,o),
(460,199,cs),
(460,129,o),
(408,90,o),
(310,90,cs),
(231,90,o),
(140,115,o),
(80,146,c),
(54,46,l),
(118,11,o),
(211,-10,o),
(300,-10,cs)
);
}
);
width = 628;
},
{
layerId = m006;
shapes = (
{
closed = 1;
nodes = (
(506,-10,o),
(612,67,o),
(612,211,cs),
(612,327,o),
(539,396,o),
(384,437,cs),
(291,461,o),
(250,487,o),
(250,520,cs),
(250,547,o),
(277,560,o),
(333,560,cs),
(403,560,o),
(488,540,o),
(547,509,c),
(591,691,l),
(527,723,o),
(438,740,o),
(342,740,cs),
(143,740,o),
(42,667,o),
(42,522,cs),
(42,401,o),
(117,324,o),
(260,290,cs),
(358,268,o),
(404,242,o),
(404,210,cs),
(404,185,o),
(377,170,o),
(330,170,cs),
(260,170,o),
(144,203,o),
(86,238,c),
(42,56,l),
(105,15,o),
(200,-10,o),
(310,-10,cs)
);
}
);
width = 654;
},
{
layerId = m003;
name = "Black F1";
shapes = (
{
closed = 1;
nodes = (
(490,-10,o),
(592,67,o),
(592,211,cs),
(592,327,o),
(526,396,o),
(376,437,cs),
(289,461,o),
(250,487,o),
(250,520,cs),
(250,547,o),
(276,560,o),
(328,560,cs),
(394,560,o),
(475,540,o),
(530,509,c),
(572,691,l),
(510,723,o),
(424,740,o),
(331,740,cs),
(139,740,o),
(42,667,o),
(42,522,cs),
(42,401,o),
(110,324,o),
(248,290,cs),
(340,268,o),
(384,242,o),
(384,210,cs),
(384,185,o),
(358,170,o),
(314,170,cs),
(248,170,o),
(139,203,o),
(84,238,c),
(42,56,l),
(103,15,o),
(194,-10,o),
(301,-10,cs)
);
}
);
width = 634;
}
);
metricLeft = "=H*.6";
metricRight = "=|";
unicode = 83;
},
{
color = 4;
glyphname = T;
kernLeft = T;
kernRight = T;
lastChange = "2026-07-04 09:13:06 +0000";
layers = (
{
layerId = m01;
metricLeft = "=H*.1";
shapes = (
{
closed = 1;
nodes = (
(291,0,l),
(291,710,l),
(551,710,l),
(551,730,l),
(11,730,l),
(11,710,l),
(271,710,l),
(271,0,l)
);
}
);
width = 562;
},
{
layerId = m002;
metricLeft = "=H*.2";
shapes = (
{
closed = 1;
nodes = (
(354,0,l),
(354,630,l),
(578,630,l),
(578,730,l),
(18,730,l),
(18,630,l),
(242,630,l),
(242,0,l)
);
}
);
width = 596;
},
{
layerId = m003;
metricLeft = "=H*.3";
shapes = (
{
closed = 1;
nodes = (
(415,0,l),
(415,550,l),
(601,550,l),
(601,730,l),
(21,730,l),
(21,550,l),
(207,550,l),
(207,0,l)
);
}
);
width = 622;
},
{
layerId = m004;
metricLeft = "=H*.1";
shapes = (
{
closed = 1;
nodes = (
(301,0,l),
(301,710,l),
(571,710,l),
(571,730,l),
(11,730,l),
(11,710,l),
(281,710,l),
(281,0,l)
);
}
);
width = 582;
},
{
layerId = m005;
metricLeft = "=H*.2";
shapes = (
{
closed = 1;
nodes = (
(364,0,l),
(364,630,l),
(598,630,l),
(598,730,l),
(18,730,l),
(18,630,l),
(252,630,l),
(252,0,l)
);
}
);
width = 616;
},
{
layerId = m006;
metricLeft = "=H*.3";
shapes = (
{
closed = 1;
nodes = (
(425,0,l),
(425,550,l),
(621,550,l),
(621,730,l),
(21,730,l),
(21,550,l),
(217,550,l),
(217,0,l)
);
}
);
width = 642;
}
);
metricLeft = "=H*.1";
metricRight = "=|";
unicode = 84;
},
{
color = 4;
glyphname = U;
kernLeft = U;
kernRight = U;
lastChange = "2026-07-04 09:13:08 +0000";
layers = (
{
layerId = m01;
shapes = (
{
closed = 1;
nodes = (
(507,-20,o),
(585,84,o),
(585,300,cs),
(585,730,l),
(565,730,l),
(565,300,ls),
(565,93,o),
(494,0,o),
(345,0,cs),
(196,0,o),
(125,93,o),
(125,300,cs),
(125,730,l),
(105,730,l),
(105,300,ls),
(105,84,o),
(183,-20,o),
(345,-20,cs)
);
}
);
width = 690;
},
{
layerId = m002;
shapes = (
{
closed = 1;
nodes = (
(537,-20,o),
(626,88,o),
(626,305,cs),
(626,730,l),
(516,730,l),
(516,335,ls),
(516,154,o),
(470,81,o),
(356,81,cs),
(242,81,o),
(196,154,o),
(196,335,cs),
(196,730,l),
(86,730,l),
(86,305,ls),
(86,88,o),
(176,-20,o),
(356,-20,cs)
);
}
);
width = 712;
},
{
layerId = m003;
shapes = (
{
closed = 1;
nodes = (
(566,-20,o),
(667,91,o),
(667,310,cs),
(667,730,l),
(467,730,l),
(467,370,ls),
(467,210,o),
(444,162,o),
(367,162,cs),
(290,162,o),
(267,210,o),
(267,370,cs),
(267,730,l),
(67,730,l),
(67,310,ls),
(67,91,o),
(168,-20,o),
(367,-20,cs)
);
}
);
width = 734;
},
{
layerId = m004;
shapes = (
{
closed = 1;
nodes = (
(524,-20,o),
(605,84,o),
(605,300,cs),
(605,730,l),
(585,730,l),
(585,300,ls),
(585,94,o),
(511,0,o),
(355,0,cs),
(199,0,o),
(125,94,o),
(125,300,cs),
(125,730,l),
(105,730,l),
(105,300,ls),
(105,84,o),
(186,-20,o),
(355,-20,cs)
);
}
);
width = 710;
},
{
layerId = m005;
shapes = (
{
closed = 1;
nodes = (
(553,-20,o),
(646,88,o),
(646,305,cs),
(646,730,l),
(536,730,l),
(536,335,ls),
(536,153,o),
(488,81,o),
(366,81,cs),
(244,81,o),
(196,153,o),
(196,335,cs),
(196,730,l),
(86,730,l),
(86,305,ls),
(86,88,o),
(179,-20,o),
(366,-20,cs)
);
}
);
width = 732;
},
{
layerId = m006;
shapes = (
{
closed = 1;
nodes = (
(583,-20,o),
(687,91,o),
(687,310,cs),
(687,730,l),
(487,730,l),
(487,370,ls),
(487,209,o),
(462,162,o),
(377,162,cs),
(292,162,o),
(267,209,o),
(267,370,cs),
(267,730,l),
(67,730,l),
(67,310,ls),
(67,91,o),
(171,-20,o),
(377,-20,cs)
);
}
);
width = 754;
}
);
metricLeft = "=H*.95";
metricRight = "=|";
unicode = 85;
},
{
color = 4;
glyphname = V;
kernLeft = V;
kernRight = V;
lastChange = "2026-07-04 09:14:05 +0000";
layers = (
{
layerId = m002;
shapes = (
{
closed = 1;
nodes = (
(448,0,l),
(728,730,l),
(606,730,l),
(397,170,l),
(374,107,l),
(372,107,l),
(349,170,l),
(140,730,l),
(18,730,l),
(298,0,l)
);
}
);
width = 746;
},
{
layerId = m003;
shapes = (
{
closed = 1;
nodes = (
(519,0,l),
(774,730,l),
(556,730,l),
(424,280,l),
(395,178,l),
(393,178,l),
(364,280,l),
(232,730,l),
(14,730,l),
(269,0,l)
);
}
);
width = 788;
},
{
layerId = m004;
shapes = (
{
closed = 1;
nodes = (
(315,0,l),
(582,730,l),
(560,730,l),
(316,61,l),
(303,23,l),
(301,23,l),
(288,61,l),
(44,730,l),
(22,730,l),
(289,0,l)
);
}
);
width = 604;
},
{
layerId = m005;
shapes = (
{
closed = 1;
nodes = (
(398,0,l),
(628,730,l),
(508,730,l),
(342,180,l),
(324,117,l),
(322,117,l),
(304,180,l),
(138,730,l),
(18,730,l),
(248,0,l)
);
}
);
width = 646;
},
{
layerId = m006;
shapes = (
{
closed = 1;
nodes = (
(469,0,l),
(674,730,l),
(460,730,l),
(367,300,l),
(345,194,l),
(343,194,l),
(321,300,l),
(228,730,l),
(14,730,l),
(219,0,l)
);
}
);
width = 688;
},
{
associatedMasterId = m003;
layerId = "073B8499-A2BD-4C2F-AFAF-33828D8F29CE";
name = "A width";
shapes = (
{
closed = 1;
nodes = (
(512,0,l),
(772,730,l),
(554,730,l),
(422,280,l),
(393,170,l),
(391,170,l),
(362,280,l),
(230,730,l),
(12,730,l),
(272,0,l)
);
}
);
width = 784;
},
{
associatedMasterId = m002;
layerId = "937254B9-A304-4BC3-ADF3-1481D60FDA01";
name = "A width";
shapes = (
{
closed = 1;
nodes = (
(436,0,l),
(724,730,l),
(604,730,l),
(393,171,l),
(370,95,l),
(368,95,l),
(345,171,l),
(134,730,l),
(14,730,l),
(302,0,l)
);
}
);
width = 738;
},
{
layerId = m01;
name = "Thin F1";
shapes = (
{
closed = 1;
nodes = (
(365,0,l),
(682,730,l),
(660,730,l),
(370,61,l),
(353,20,l),
(351,20,l),
(334,61,l),
(44,730,l),
(22,730,l),
(339,0,l)
);
}
);
width = 704;
}
);
metricLeft = "=A";
metricRight = "=|";
unicode = 86;
},
{
color = 4;
glyphname = W;
kernLeft = V;
kernRight = V;
lastChange = "2026-07-04 09:14:54 +0000";
layers = (
{
layerId = m002;
shapes = (
{
closed = 1;
nodes = (
(341,0,l),
(492,595,l),
(494,595,l),
(645,0,l),
(781,0,l),
(968,730,l),
(852,730,l),
(729,206,l),
(712,132,l),
(710,132,l),
(692,206,l),
(561,730,l),
(561,730,l),
(561,730,l),
(425,730,l),
(425,730,l),
(425,730,l),
(294,206,l),
(276,132,l),
(274,132,l),
(257,206,l),
(134,730,l),
(18,730,l),
(205,0,l)
);
}
);
width = 986;
},
{
layerId = m004;
shapes = (
{
closed = 1;
nodes = (
(264,0,l),
(456,710,l),
(458,710,l),
(650,0,l),
(682,0,l),
(892,730,l),
(871,730,l),
(677,55,l),
(667,18,l),
(665,18,l),
(656,53,l),
(473,730,l),
(473,730,l),
(473,730,l),
(441,730,l),
(441,730,l),
(441,730,l),
(258,53,l),
(249,18,l),
(247,18,l),
(237,55,l),
(43,730,l),
(22,730,l),
(232,0,l)
);
}
);
width = 914;
},
{
layerId = m005;
shapes = (
{
closed = 1;
nodes = (
(341,0,l),
(492,595,l),
(494,595,l),
(645,0,l),
(781,0,l),
(968,730,l),
(852,730,l),
(729,206,l),
(712,132,l),
(710,132,l),
(692,206,l),
(561,730,l),
(561,730,l),
(561,730,l),
(425,730,l),
(425,730,l),
(425,730,l),
(294,206,l),
(276,132,l),
(274,132,l),
(257,206,l),
(134,730,l),
(18,730,l),
(205,0,l)
);
}
);
width = 986;
},
{
layerId = m006;
shapes = (
{
closed = 1;
nodes = (
(454,0,l),
(528,510,l),
(530,510,l),
(604,0,l),
(864,0,l),
(1044,730,l),
(830,730,l),
(755,305,l),
(740,215,l),
(738,215,l),
(726,305,l),
(669,730,l),
(669,730,l),
(669,730,l),
(389,730,l),
(389,730,l),
(389,730,l),
(332,305,l),
(320,215,l),
(318,215,l),
(303,305,l),
(228,730,l),
(14,730,l),
(194,0,l)
);
}
);
width = 1058;
},
{
layerId = m003;
name = "Black F1";
shapes = (
{
closed = 1;
nodes = (
(454,0,l),
(528,510,l),
(530,510,l),
(604,0,l),
(864,0,l),
(1044,730,l),
(830,730,l),
(755,305,l),
(740,215,l),
(738,215,l),
(726,305,l),
(669,730,l),
(669,730,l),
(669,730,l),
(389,730,l),
(389,730,l),
(389,730,l),
(332,305,l),
(320,215,l),
(318,215,l),
(303,305,l),
(228,730,l),
(14,730,l),
(194,0,l)
);
}
);
width = 1058;
},
{
layerId = m01;
name = "Thin F1";
shapes = (
{
closed = 1;
nodes = (
(264,0,l),
(456,710,l),
(458,710,l),
(650,0,l),
(682,0,l),
(892,730,l),
(871,730,l),
(677,55,l),
(667,18,l),
(665,18,l),
(656,53,l),
(473,730,l),
(473,730,l),
(473,730,l),
(441,730,l),
(441,730,l),
(441,730,l),
(258,53,l),
(249,18,l),
(247,18,l),
(237,55,l),
(43,730,l),
(22,730,l),
(232,0,l)
);
}
);
width = 914;
},
{
associatedMasterId = m004;
attr = {
axisRules = (
{
max = 300;
min = 100;
},
{
max = 200;
min = 150;
}
);
};
background = {
shapes = (
{
closed = 1;
nodes = (
(324,0,l),
(642,730,l),
(620,730,l),
(340,86,l),
(314,25,l),
(312,25,l),
(287,91,l),
(44,730,l),
(22,730,l),
(300,0,l)
);
},
{
closed = 1;
nodes = (
(664,0,l),
(942,730,l),
(920,730,l),
(677,91,l),
(652,25,l),
(650,25,l),
(624,86,l),
(344,730,l),
(322,730,l),
(640,0,l)
);
}
);
};
layerId = "E192F69A-8E5D-4218-A70D-FAE34409CC58";
name = "Jun 11, 26 at 17:53";
shapes = (
{
closed = 1;
nodes = (
(324,0,l),
(482,363,l),
(640,0,l),
(664,0,l),
(942,730,l),
(920,730,l),
(677,91,l),
(652,25,l),
(650,25,l),
(624,86,l),
(493,388,l),
(642,730,l),
(620,730,l),
(482,413,l),
(344,730,l),
(322,730,l),
(471,388,l),
(340,86,l),
(314,25,l),
(312,25,l),
(287,91,l),
(44,730,l),
(22,730,l),
(300,0,l)
);
}
);
width = 964;
},
{
associatedMasterId = m005;
attr = {
axisRules = (
{
max = 300;
min = 100;
},
{
max = 200;
min = 150;
}
);
};
background = {
shapes = (
{
closed = 1;
nodes = (
(410,0,l),
(718,730,l),
(602,730,l),
(375,192,l),
(351,132,l),
(349,132,l),
(326,198,l),
(138,730,l),
(18,730,l),
(276,0,l)
);
},
{
closed = 1;
nodes = (
(740,0,l),
(998,730,l),
(878,730,l),
(690,198,l),
(667,132,l),
(665,132,l),
(641,192,l),
(414,730,l),
(298,730,l),
(606,0,l)
);
}
);
};
layerId = "1250F801-1661-428B-A33C-769B7A1F763A";
name = "Jun 11, 26 at 17:53";
shapes = (
{
closed = 1;
nodes = (
(410,0,l),
(508,252,l),
(606,0,l),
(740,0,l),
(998,730,l),
(878,730,l),
(690,198,l),
(667,132,l),
(665,132,l),
(641,192,l),
(566,370,l),
(718,730,l),
(602,730,l),
(508,487,l),
(414,730,l),
(298,730,l),
(450,370,l),
(375,192,l),
(351,132,l),
(349,132,l),
(326,198,l),
(138,730,l),
(18,730,l),
(276,0,l)
);
}
);
width = 1016;
},
{
associatedMasterId = m01;
attr = {
axisRules = (
{
max = 300;
min = 100;
},
{
max = 200;
min = 150;
}
);
};
background = {
shapes = (
{
closed = 1;
nodes = (
(344,0,l),
(702,730,l),
(680,730,l),
(356,69,l),
(334,22,l),
(332,22,l),
(309,79,l),
(44,730,l),
(22,730,l),
(320,0,l)
);
},
{
closed = 1;
nodes = (
(704,0,l),
(1002,730,l),
(980,730,l),
(715,79,l),
(692,22,l),
(690,22,l),
(668,69,l),
(344,730,l),
(322,730,l),
(680,0,l)
);
}
);
};
layerId = "84745874-0A59-4090-B506-B8B038283198";
name = "Thin F1 [100‹wg‹300, 150‹wd‹200] Jul 2, 26 at 12:49";
shapes = (
{
closed = 1;
nodes = (
(344,0,l),
(512,343,l),
(680,0,l),
(704,0,l),
(1002,730,l),
(980,730,l),
(715,79,l),
(692,22,l),
(690,22,l),
(668,69,l),
(523,365,l),
(702,730,l),
(680,730,l),
(512,387,l),
(344,730,l),
(322,730,l),
(501,365,l),
(356,69,l),
(334,22,l),
(332,22,l),
(309,79,l),
(44,730,l),
(22,730,l),
(320,0,l)
);
}
);
width = 1024;
},
{
associatedMasterId = m002;
attr = {
axisRules = (
{
max = 300;
min = 100;
},
{
max = 200;
min = 150;
}
);
};
background = {
shapes = (
{
closed = 1;
nodes = (
(420,0,l),
(768,730,l),
(652,730,l),
(386,172,l),
(363,121,l),
(361,121,l),
(341,177,l),
(138,730,l),
(18,730,l),
(286,0,l)
);
},
{
closed = 1;
nodes = (
(790,0,l),
(1058,730,l),
(938,730,l),
(735,177,l),
(715,121,l),
(713,121,l),
(690,172,l),
(424,730,l),
(308,730,l),
(656,0,l)
);
}
);
};
layerId = "995D3563-4519-49B2-A080-A616EDADFC3D";
name = "Medium F1 [100‹wg‹300, 150‹wd‹200] Jul 2, 26 at 12:56";
shapes = (
{
closed = 1;
nodes = (
(420,0,l),
(538,268,l),
(656,0,l),
(790,0,l),
(1058,730,l),
(938,730,l),
(735,177,l),
(715,121,l),
(713,121,l),
(690,172,l),
(596,369,l),
(768,730,l),
(652,730,l),
(538,471,l),
(424,730,l),
(308,730,l),
(480,369,l),
(386,172,l),
(363,121,l),
(361,121,l),
(341,177,l),
(138,730,l),
(18,730,l),
(286,0,l)
);
}
);
width = 1076;
}
);
metricLeft = "=V";
metricRight = "=|";
unicode = 87;
},
{
color = 4;
glyphname = X;
kernLeft = X;
kernRight = X;
lastChange = "2026-07-04 09:14:07 +0000";
layers = (
{
background = {
shapes = (
{
closed = 0;
nodes = (
(636,730,l),
(612,730,l),
(44,0,l),
(69,0,l),
(628,718,l)
);
},
{
closed = 0;
nodes = (
(52,730,l),
(76,730,l),
(644,0,l),
(619,0,l),
(60,718,l)
);
}
);
};
layerId = m01;
metricLeft = "=|K*2";
shapes = (
{
closed = 1;
nodes = (
(69,0,l),
(343,352,l),
(345,352,l),
(619,0,l),
(644,0,l),
(356,369,l),
(637,730,l),
(612,730,l),
(345,387,l),
(343,387,l),
(76,730,l),
(51,730,l),
(332,369,l),
(44,0,l)
);
}
);
width = 688;
},
{
layerId = m005;
metricLeft = "=|K*2.6";
shapes = (
{
closed = 1;
nodes = (
(156,0,l),
(328,303,l),
(330,303,l),
(502,0,l),
(624,0,l),
(415,367,l),
(622,730,l),
(500,730,l),
(330,430,l),
(328,430,l),
(159,730,l),
(37,730,l),
(244,367,l),
(34,0,l)
);
}
);
width = 658;
},
{
layerId = m006;
metricLeft = "=|K*4";
shapes = (
{
closed = 1;
nodes = (
(250,0,l),
(348,255,l),
(350,255,l),
(448,0,l),
(674,0,l),
(504,365,l),
(674,730,l),
(448,730,l),
(350,475,l),
(348,475,l),
(250,730,l),
(24,730,l),
(194,365,l),
(24,0,l)
);
}
);
width = 698;
},
{
background = {
shapes = (
{
closed = 1;
nodes = (
(50,0,l),
(551,730,l),
(528,730,l),
(26,0,l)
);
},
{
closed = 1;
nodes = (
(556,0,l),
(54,730,l),
(31,730,l),
(532,0,l)
);
}
);
};
layerId = m004;
metricLeft = "=|K*1.2";
name = "Thin F2";
shapes = (
{
closed = 1;
nodes = (
(50,0,l),
(290,351,l),
(292,351,l),
(532,0,l),
(556,0,l),
(303,368,l),
(551,730,l),
(527,730,l),
(292,385,l),
(290,385,l),
(55,730,l),
(31,730,l),
(279,368,l),
(26,0,l)
);
}
);
width = 582;
},
{
layerId = m003;
metricLeft = "=|K*4";
name = "Black F1";
shapes = (
{
closed = 1;
nodes = (
(254,0,l),
(373,245,l),
(375,245,l),
(494,0,l),
(724,0,l),
(524,365,l),
(724,730,l),
(494,730,l),
(375,485,l),
(373,485,l),
(254,730,l),
(24,730,l),
(224,365,l),
(24,0,l)
);
}
);
width = 748;
},
{
layerId = m002;
metricLeft = "=|K*3";
name = "Medium F1";
shapes = (
{
closed = 1;
nodes = (
(165,0,l),
(363,299,l),
(365,299,l),
(563,0,l),
(689,0,l),
(440,367,l),
(685,730,l),
(559,730,l),
(365,436,l),
(363,436,l),
(169,730,l),
(43,730,l),
(288,367,l),
(39,0,l)
);
}
);
width = 728;
}
);
metricLeft = "=|K*2";
metricRight = "=|";
unicode = 88;
},
{
color = 4;
glyphname = Y;
kernLeft = Y;
kernRight = Y;
lastChange = "2026-07-04 09:14:56 +0000";
layers = (
{
layerId = m01;
shapes = (
{
closed = 1;
nodes = (
(353,0,l),
(353,338,l),
(684,730,l),
(658,730,l),
(345,359,l),
(343,359,l),
(30,730,l),
(4,730,l),
(335,338,l),
(335,0,l)
);
}
);
width = 688;
},
{
layerId = m002;
shapes = (
{
closed = 1;
nodes = (
(425,0,l),
(425,309,l),
(734,730,l),
(606,730,l),
(370,406,l),
(368,406,l),
(132,730,l),
(4,730,l),
(313,309,l),
(313,0,l)
);
}
);
width = 738;
},
{
layerId = m003;
shapes = (
{
closed = 1;
nodes = (
(497,0,l),
(497,280,l),
(783,730,l),
(563,730,l),
(394,450,l),
(392,450,l),
(223,730,l),
(3,730,l),
(289,280,l),
(289,0,l)
);
}
);
width = 786;
},
{
layerId = m004;
shapes = (
{
closed = 1;
nodes = (
(313,0,l),
(313,297,l),
(604,730,l),
(580,730,l),
(305,321,l),
(303,321,l),
(28,730,l),
(4,730,l),
(295,297,l),
(295,0,l)
);
}
);
width = 608;
},
{
layerId = m005;
shapes = (
{
closed = 1;
nodes = (
(380,0,l),
(380,274,l),
(644,730,l),
(518,730,l),
(325,393,l),
(323,393,l),
(130,730,l),
(4,730,l),
(268,274,l),
(268,0,l)
);
}
);
width = 648;
},
{
layerId = m006;
shapes = (
{
closed = 1;
nodes = (
(447,0,l),
(447,250,l),
(683,730,l),
(463,730,l),
(344,420,l),
(342,420,l),
(223,730,l),
(3,730,l),
(239,250,l),
(239,0,l)
);
}
);
width = 686;
}
);
metricLeft = "=V*.2";
metricRight = "=|";
unicode = 89;
},
{
color = 4;
glyphname = Z;
kernLeft = Z;
kernRight = Z;
lastChange = "2026-07-04 09:13:11 +0000";
layers = (
{
layerId = m01;
shapes = (
{
closed = 1;
nodes = (
(528,0,l),
(528,20,l),
(112,20,l),
(112,22,l),
(528,710,l),
(528,730,l),
(88,730,l),
(88,710,l),
(504,710,l),
(504,708,l),
(88,20,l),
(88,0,l)
);
}
);
width = 616;
},
{
layerId = m002;
shapes = (
{
closed = 1;
nodes = (
(552,0,l),
(552,98,l),
(204,98,l),
(204,100,l),
(552,632,l),
(552,730,l),
(72,730,l),
(72,632,l),
(420,632,l),
(420,630,l),
(72,98,l),
(72,0,l)
);
}
);
width = 624;
},
{
layerId = m003;
shapes = (
{
closed = 1;
nodes = (
(576,0,l),
(576,175,l),
(292,175,l),
(292,177,l),
(576,555,l),
(576,730,l),
(56,730,l),
(56,555,l),
(340,555,l),
(340,553,l),
(56,175,l),
(56,0,l)
);
}
);
width = 632;
},
{
layerId = m004;
shapes = (
{
closed = 1;
nodes = (
(568,0,l),
(568,20,l),
(113,20,l),
(113,22,l),
(568,710,l),
(568,730,l),
(88,730,l),
(88,710,l),
(543,710,l),
(543,708,l),
(88,20,l),
(88,0,l)
);
}
);
width = 656;
},
{
layerId = m005;
shapes = (
{
closed = 1;
nodes = (
(582,0,l),
(582,98,l),
(204,98,l),
(204,100,l),
(582,632,l),
(582,730,l),
(72,730,l),
(72,632,l),
(450,632,l),
(450,630,l),
(72,98,l),
(72,0,l)
);
}
);
width = 654;
},
{
layerId = m006;
shapes = (
{
closed = 1;
nodes = (
(596,0,l),
(596,175,l),
(296,175,l),
(296,177,l),
(596,555,l),
(596,730,l),
(56,730,l),
(56,555,l),
(356,555,l),
(356,553,l),
(56,175,l),
(56,0,l)
);
}
);
width = 652;
},
{
associatedMasterId = m006;
layerId = "B65A32CE-FC06-4A51-973E-96E9FD023277";
name = "Jul 2, 26 at 13:22";
shapes = (
{
closed = 1;
nodes = (
(568,0,l),
(568,175,l),
(284,175,l),
(284,177,l),
(568,555,l),
(568,730,l),
(48,730,l),
(48,555,l),
(332,555,l),
(332,553,l),
(48,175,l),
(48,0,l)
);
}
);
width = 616;
},
{
associatedMasterId = m005;
layerId = "077951FF-F023-4F11-B14B-82DEFD11EC52";
name = "Jul 2, 26 at 13:22";
shapes = (
{
closed = 1;
nodes = (
(536,0,l),
(536,98,l),
(188,98,l),
(188,100,l),
(536,632,l),
(536,730,l),
(56,730,l),
(56,632,l),
(404,632,l),
(404,630,l),
(56,98,l),
(56,0,l)
);
}
);
width = 592;
},
{
associatedMasterId = m004;
layerId = "2F6DE566-CC26-4FC9-B211-0E12642E4052";
name = "Jul 2, 26 at 13:22";
shapes = (
{
closed = 1;
nodes = (
(504,0,l),
(504,20,l),
(88,20,l),
(88,22,l),
(504,710,l),
(504,730,l),
(64,730,l),
(64,710,l),
(480,710,l),
(480,708,l),
(64,20,l),
(64,0,l)
);
}
);
width = 568;
}
);
metricLeft = "=H*.8";
metricRight = "=|";
unicode = 90;
},
{
color = 10;
glyphname = a;
kernLeft = o;
kernRight = u;
lastChange = "2026-07-05 02:05:45 +0000";
layers = (
{
layerId = m01;
shapes = (
{
closed = 1;
nodes = (
(427,-10,o),
(518,46,o),
(558,144,c),
(560,144,l),
(560,0,l),
(580,0,l),
(580,520,l),
(580,520,l),
(580,520,l),
(580,520,l),
(560,520,l),
(560,520,l),
(560,520,l),
(560,520,l),
(560,376,l),
(558,376,l),
(518,474,o),
(427,530,o),
(310,530,cs),
(148,530,o),
(40,422,o),
(40,260,cs),
(40,98,o),
(148,-10,o),
(310,-10,cs)
);
},
{
closed = 1;
nodes = (
(159,10,o),
(60,109,o),
(60,260,cs),
(60,411,o),
(159,510,o),
(310,510,cs),
(461,510,o),
(560,411,o),
(560,260,c),
(560,260,l),
(560,109,o),
(461,10,o),
(310,10,cs)
);
}
);
width = 659;
},
{
associatedMasterId = m01;
attr = {
coordinates = (
200,
200
);
};
layerId = "46F1A50B-7C0C-4B23-8733-B6799256F0FB";
name = "Jun 20, 26 at 14:30";
shapes = (
{
closed = 1;
nodes = (
(413,-10,o),
(504,38,o),
(543,116,c),
(545,116,l),
(545,0,l),
(586,0,l),
(586,520,l),
(586,520,l),
(586,520,l),
(586,520,l),
(543,520,l),
(543,520,l),
(543,520,l),
(543,520,l),
(543,404,l),
(541,404,l),
(503,482,o),
(413,530,o),
(306,530,cs),
(145,530,o),
(38,422,o),
(38,260,cs),
(38,98,o),
(145,-10,o),
(306,-10,cs)
);
},
{
closed = 1;
nodes = (
(172,27,o),
(80,119,o),
(80,260,cs),
(80,401,o),
(172,494,o),
(312,494,cs),
(451,494,o),
(543,401,o),
(543,260,c),
(543,260,l),
(543,119,o),
(451,27,o),
(312,27,cs)
);
}
);
width = 662;
},
{
associatedMasterId = m01;
attr = {
axisRules = (
{
},
{
max = 150;
min = 100;
}
);
};
layerId = "C38710FC-DE03-4402-A680-1BD323331CB3";
name = "Thin F1 [100‹wd‹150] Jun 15, 26 at 20:31";
shapes = (
{
closed = 1;
nodes = (
(308,-10,o),
(388,37,o),
(428,108,c),
(430,108,l),
(430,0,l),
(450,0,l),
(450,325,ls),
(450,476,o),
(402,530,o),
(268,530,cs),
(197,530,o),
(127,515,o),
(62,484,c),
(71,466,l),
(134,496,o),
(199,510,o),
(268,510,cs),
(390,510,o),
(430,465,o),
(430,325,c),
(334,325,ls),
(146,325,o),
(40,264,o),
(40,145,cs),
(40,50,o),
(110,-10,o),
(216,-10,cs)
);
},
{
closed = 1;
nodes = (
(120,10,o),
(60,62,o),
(60,145,cs),
(60,250,o),
(154,305,o),
(334,305,cs),
(430,305,l),
(430,168,l),
(410,75,o),
(322,10,o),
(216,10,cs)
);
}
);
width = 529;
},
{
associatedMasterId = m01;
attr = {
axisRules = (
{
},
{
max = 150;
min = 100;
}
);
coordinates = (
200,
200
);
};
layerId = "0F8FA687-1F62-46B7-84B5-53EEADDCFC1A";
name = "Thin F1 [100‹wd‹120] Jun 13, 26 at 11:54";
shapes = (
{
closed = 1;
nodes = (
(298,-10,o),
(377,29,o),
(417,89,c),
(419,89,l),
(419,0,l),
(459,0,l),
(459,326,ls),
(459,477,o),
(410,530,o),
(272,530,cs),
(199,530,o),
(125,515,o),
(60,485,c),
(71,448,l),
(133,478,o),
(200,493,o),
(268,493,cs),
(380,493,o),
(417,453,o),
(417,329,c),
(327,329,ls),
(143,329,o),
(38,267,o),
(38,147,cs),
(38,51,o),
(107,-10,o),
(213,-10,cs)
);
},
{
closed = 1;
nodes = (
(135,29,o),
(80,75,o),
(80,150,cs),
(80,244,o),
(166,293,o),
(331,293,cs),
(417,293,l),
(417,171,l),
(398,88,o),
(318,29,o),
(222,29,cs)
);
}
);
width = 535;
},
{
layerId = m002;
shapes = (
{
closed = 1;
nodes = (
(377,-10,o),
(457,22,o),
(496,72,c),
(498,72,l),
(498,0,l),
(602,0,l),
(602,520,l),
(602,520,l),
(602,520,l),
(602,520,l),
(493,520,l),
(493,520,l),
(493,520,l),
(493,520,l),
(493,448,l),
(491,448,l),
(454,498,o),
(377,530,o),
(292,530,cs),
(136,530,o),
(32,422,o),
(32,260,cs),
(32,98,o),
(136,-10,o),
(292,-10,cs)
);
},
{
closed = 1;
nodes = (
(212,80,o),
(141,152,o),
(141,260,cs),
(141,368,o),
(212,440,o),
(317,440,cs),
(422,440,o),
(493,368,o),
(493,260,c),
(493,260,l),
(493,152,o),
(422,80,o),
(317,80,cs)
);
}
);
width = 667;
},
{
associatedMasterId = m002;
attr = {
axisRules = (
{
},
{
max = 150;
min = 100;
}
);
};
layerId = "ED553DDA-DF08-4367-81EA-A36C5E5BBDAF";
name = "Jun 13, 26 at 11:16";
shapes = (
{
closed = 1;
nodes = (
(276,-10,o),
(345,22,o),
(382,72,c),
(384,72,l),
(384,0,l),
(487,0,l),
(487,328,ls),
(487,478,o),
(435,530,o),
(284,530,cs),
(205,530,o),
(119,516,o),
(53,489,c),
(69,393,l),
(131,424,o),
(202,440,o),
(268,440,cs),
(351,440,o),
(379,414,o),
(379,339,c),
(304,339,ls),
(130,340,o),
(32,274,o),
(32,154,cs),
(32,55,o),
(99,-10,o),
(203,-10,cs)
);
},
{
closed = 1;
nodes = (
(178,84,o),
(140,114,o),
(140,163,cs),
(140,227,o),
(200,259,o),
(320,259,cs),
(379,259,l),
(379,180,l),
(362,122,o),
(307,84,o),
(240,84,cs)
);
}
);
width = 552;
},
{
layerId = m003;
shapes = (
{
closed = 1;
nodes = (
(324,-10,o),
(393,17,o),
(435,60,c),
(437,60,l),
(437,0,l),
(625,0,l),
(625,520,l),
(625,520,l),
(625,520,l),
(625,520,l),
(427,520,l),
(427,520,l),
(427,520,l),
(427,520,l),
(427,460,l),
(425,460,l),
(383,505,o),
(322,530,o),
(255,530,cs),
(117,530,o),
(25,422,o),
(25,260,cs),
(25,98,o),
(117,-10,o),
(255,-10,cs)
);
},
{
closed = 1;
nodes = (
(265,157,o),
(223,200,o),
(223,260,cs),
(223,320,o),
(265,363,o),
(325,363,cs),
(385,363,o),
(427,320,o),
(427,260,c),
(427,260,l),
(427,200,o),
(385,157,o),
(325,157,cs)
);
}
);
width = 675;
},
{
associatedMasterId = m003;
attr = {
axisRules = (
{
},
{
max = 150;
min = 100;
}
);
};
layerId = "A8E37540-B84B-445C-A393-7F86791583F9";
name = "Jun 13, 26 at 11:16";
shapes = (
{
closed = 1;
nodes = (
(238,-10,o),
(302,18,o),
(337,60,c),
(339,60,l),
(339,0,l),
(525,0,l),
(525,330,ls),
(525,479,o),
(468,530,o),
(301,530,cs),
(213,530,o),
(111,516,o),
(44,493,c),
(66,353,l),
(126,375,o),
(206,390,o),
(269,390,cs),
(319,390,o),
(329,381,o),
(329,338,c),
(274,338,ls),
(114,338,o),
(25,272,o),
(25,153,cs),
(25,55,o),
(86,-10,o),
(178,-10,cs)
);
},
{
closed = 1;
nodes = (
(231,133,o),
(211,150,o),
(211,178,cs),
(211,215,o),
(240,231,o),
(307,231,cs),
(329,231,l),
(329,171,l),
(315,146,o),
(293,133,o),
(264,133,cs)
);
}
);
width = 575;
},
{
layerId = m004;
name = "Thin F2";
shapes = (
{
closed = 1;
nodes = (
(382,-10,o),
(467,35,o),
(508,108,c),
(510,108,l),
(510,0,l),
(530,0,l),
(530,520,l),
(530,520,l),
(530,520,l),
(530,520,l),
(510,520,l),
(510,520,l),
(510,520,l),
(510,520,l),
(510,412,l),
(508,412,l),
(467,485,o),
(382,530,o),
(286,530,cs),
(138,530,o),
(40,422,o),
(40,260,cs),
(40,98,o),
(138,-10,o),
(286,-10,cs)
);
},
{
closed = 1;
nodes = (
(149,10,o),
(60,108,o),
(60,260,cs),
(60,412,o),
(149,510,o),
(286,510,cs),
(399,510,o),
(485,451,o),
(510,355,c),
(510,165,l),
(485,69,o),
(399,10,o),
(286,10,cs)
);
}
);
width = 609;
},
{
associatedMasterId = m004;
attr = {
coordinates = (
200,
100
);
};
background = {
shapes = (
{
closed = 1;
nodes = (
(371,-10,o),
(453,29,o),
(494,89,c),
(496,89,l),
(496,0,l),
(538,0,l),
(538,520,l),
(538,520,l),
(538,520,l),
(538,520,l),
(495,520,l),
(495,520,l),
(495,520,l),
(495,520,l),
(495,431,l),
(493,431,l),
(453,491,o),
(371,530,o),
(282,530,cs),
(135,530,o),
(38,423,o),
(38,260,cs),
(38,97,o),
(135,-10,o),
(282,-10,cs)
);
},
{
closed = 1;
nodes = (
(162,27,o),
(80,117,o),
(80,260,cs),
(80,403,o),
(162,494,o),
(289,494,cs),
(394,494,o),
(473,438,o),
(496,348,c),
(496,173,l),
(473,83,o),
(394,27,o),
(289,27,cs)
);
}
);
};
layerId = "4542052A-5F31-4362-B451-0B9720437F60";
name = "Jun 20, 26 at 14:28";
shapes = (
{
closed = 1;
nodes = (
(371,-10,o),
(454,29,o),
(495,89,c),
(497,89,l),
(497,0,l),
(538,0,l),
(538,520,l),
(538,520,l),
(538,520,l),
(538,520,l),
(496,520,l),
(496,520,l),
(496,520,l),
(496,520,l),
(496,431,l),
(494,431,l),
(454,491,o),
(371,530,o),
(282,530,cs),
(135,530,o),
(38,423,o),
(38,260,cs),
(38,97,o),
(135,-10,o),
(282,-10,cs)
);
},
{
closed = 1;
nodes = (
(162,28,o),
(80,118,o),
(80,260,cs),
(80,402,o),
(162,493,o),
(289,493,cs),
(393,493,o),
(473,436,o),
(496,347,c),
(496,173,l),
(473,84,o),
(393,28,o),
(289,28,cs)
);
}
);
width = 614;
},
{
associatedMasterId = m004;
attr = {
axisRules = (
{
},
{
max = 150;
min = 100;
}
);
};
layerId = "2F6DAC94-11DA-4706-9407-E7CE0C8C551C";
metricLeft = "=o";
name = "Jun 13, 26 at 10:59";
shapes = (
{
closed = 1;
nodes = (
(296,-10,o),
(370,35,o),
(408,108,c),
(410,108,l),
(410,0,l),
(430,0,l),
(430,325,ls),
(430,476,o),
(384,530,o),
(256,530,cs),
(189,530,o),
(120,515,o),
(60,484,c),
(69,466,l),
(127,496,o),
(191,510,o),
(256,510,cs),
(372,510,o),
(410,466,o),
(410,325,c),
(319,325,ls),
(139,325,o),
(40,265,o),
(40,145,cs),
(40,50,o),
(105,-10,o),
(206,-10,cs)
);
},
{
closed = 1;
nodes = (
(115,10,o),
(60,61,o),
(60,145,cs),
(60,251,o),
(148,305,o),
(319,305,cs),
(410,305,l),
(410,173,l),
(391,75,o),
(310,10,o),
(206,10,cs)
);
}
);
width = 509;
},
{
associatedMasterId = m004;
attr = {
axisRules = (
{
},
{
max = 150;
min = 100;
}
);
coordinates = (
200,
100
);
};
layerId = "AB5C3998-141E-4435-A4D0-70B56BE0E087";
name = "Jun 13, 26 at 12:15";
shapes = (
{
closed = 1;
nodes = (
(285,-10,o),
(362,29,o),
(398,89,c),
(400,89,l),
(400,0,l),
(441,0,l),
(441,326,ls),
(441,477,o),
(394,530,o),
(261,530,cs),
(192,530,o),
(119,515,o),
(58,485,c),
(69,448,l),
(127,478,o),
(192,493,o),
(257,493,cs),
(363,493,o),
(399,453,o),
(399,329,c),
(313,329,ls),
(137,329,o),
(38,268,o),
(38,147,cs),
(38,51,o),
(103,-10,o),
(204,-10,cs)
);
},
{
closed = 1;
nodes = (
(130,29,o),
(80,74,o),
(80,150,cs),
(80,245,o),
(160,293,o),
(317,293,cs),
(399,293,l),
(399,175,l),
(380,86,o),
(307,29,o),
(213,29,cs)
);
}
);
width = 517;
},
{
layerId = m005;
shapes = (
{
closed = 1;
nodes = (
(345,-10,o),
(412,20,o),
(456,72,c),
(458,72,l),
(458,0,l),
(562,0,l),
(562,520,l),
(562,520,l),
(562,520,l),
(562,520,l),
(453,520,l),
(453,520,l),
(453,520,l),
(453,520,l),
(453,448,l),
(451,448,l),
(408,501,o),
(344,530,o),
(268,530,cs),
(124,530,o),
(32,425,o),
(32,260,cs),
(32,95,o),
(124,-10,o),
(268,-10,cs)
);
},
{
closed = 1;
nodes = (
(199,80,o),
(141,147,o),
(141,260,cs),
(141,373,o),
(199,440,o),
(297,440,cs),
(376,440,o),
(435,396,o),
(453,324,c),
(453,196,l),
(435,124,o),
(376,80,o),
(297,80,cs)
);
}
);
width = 627;
},
{
associatedMasterId = m005;
attr = {
axisRules = (
{
},
{
max = 150;
min = 100;
}
);
};
layerId = "9EA168CF-1C41-4E56-9DDA-6F50CBAD1343";
name = "Jun 13, 26 at 10:58";
shapes = (
{
closed = 1;
nodes = (
(266,-10,o),
(332,22,o),
(366,72,c),
(368,72,l),
(368,0,l),
(472,0,l),
(472,328,ls),
(472,478,o),
(422,530,o),
(276,530,cs),
(201,530,o),
(117,516,o),
(53,489,c),
(69,393,l),
(128,424,o),
(195,440,o),
(258,440,cs),
(337,440,o),
(364,414,o),
(364,339,c),
(293,339,ls),
(125,339,o),
(32,273,o),
(32,154,cs),
(32,55,o),
(97,-10,o),
(196,-10,cs)
);
},
{
closed = 1;
nodes = (
(177,84,o),
(141,115,o),
(141,165,cs),
(141,228,o),
(196,259,o),
(308,259,cs),
(363,259,l),
(363,183,l),
(347,123,o),
(297,84,o),
(234,84,cs)
);
}
);
width = 537;
},
{
layerId = m006;
name = "Black F2";
shapes = (
{
closed = 1;
nodes = (
(312,-10,o),
(357,10,o),
(405,60,c),
(407,60,l),
(407,0,l),
(595,0,l),
(595,520,l),
(595,520,l),
(595,520,l),
(595,520,l),
(397,520,l),
(397,520,l),
(397,520,l),
(397,520,l),
(397,460,l),
(395,460,l),
(349,511,o),
(310,530,o),
(250,530,cs),
(110,530,o),
(25,428,o),
(25,260,cs),
(25,92,o),
(110,-10,o),
(250,-10,cs)
);
},
{
closed = 1;
nodes = (
(252,142,o),
(223,181,o),
(223,260,cs),
(223,339,o),
(252,378,o),
(310,378,cs),
(352,378,o),
(387,358,o),
(397,327,c),
(397,193,l),
(387,162,o),
(352,142,o),
(310,142,cs)
);
}
);
width = 645;
},
{
associatedMasterId = m006;
attr = {
axisRules = (
{
},
{
max = 150;
min = 100;
}
);
};
layerId = "C7D51260-6CEC-42F1-8753-3096B68C9C5C";
name = "Jun 13, 26 at 10:57";
shapes = (
{
closed = 1;
nodes = (
(231,-10,o),
(293,18,o),
(327,60,c),
(329,60,l),
(329,0,l),
(515,0,l),
(515,330,ls),
(515,479,o),
(459,530,o),
(296,530,cs),
(209,530,o),
(110,516,o),
(44,493,c),
(66,353,l),
(124,375,o),
(201,390,o),
(261,390,cs),
(309,390,o),
(319,381,o),
(319,338,c),
(266,338,ls),
(111,338,o),
(25,272,o),
(25,153,cs),
(25,55,o),
(84,-10,o),
(173,-10,cs)
);
},
{
closed = 1;
nodes = (
(229,133,o),
(211,150,o),
(211,178,cs),
(211,214,o),
(239,231,o),
(299,231,cs),
(319,231,l),
(319,171,l),
(306,145,o),
(286,133,o),
(260,133,cs)
);
}
);
width = 565;
}
);
metricLeft = "=o";
metricRight = "=h";
unicode = 97;
},
{
color = 4;
glyphname = b;
kernLeft = H;
kernRight = o;
lastChange = "2026-07-04 09:15:01 +0000";
layers = (
{
layerId = m01;
shapes = (
{
closed = 1;
nodes = (
(531,-10,o),
(639,98,o),
(639,260,cs),
(639,422,o),
(531,530,o),
(369,530,cs),
(252,530,o),
(161,474,o),
(121,376,c),
(119,376,l),
(119,770,l),
(99,770,l),
(99,0,l),
(119,0,l),
(119,144,l),
(121,144,l),
(161,46,o),
(252,-10,o),
(369,-10,cs)
);
},
{
closed = 1;
nodes = (
(218,10,o),
(119,109,o),
(119,260,c),
(119,260,l),
(119,411,o),
(218,510,o),
(369,510,cs),
(520,510,o),
(619,411,o),
(619,260,cs),
(619,109,o),
(520,10,o),
(369,10,cs)
);
}
);
width = 679;
},
{
associatedMasterId = m01;
attr = {
coordinates = (
200,
200
);
};
layerId = "46F1A50B-7C0C-4B23-8733-B6799256F0FB";
name = "Jun 20, 26 at 14:30";
shapes = (
{
closed = 1;
nodes = (
(536,-10,o),
(643,98,o),
(643,260,cs),
(643,422,o),
(536,530,o),
(376,530,cs),
(268,530,o),
(178,482,o),
(140,404,c),
(138,404,l),
(138,770,l),
(95,770,l),
(96,0,l),
(137,0,l),
(137,116,l),
(139,116,l),
(177,38,o),
(268,-10,o),
(376,-10,cs)
);
},
{
closed = 1;
nodes = (
(230,27,o),
(138,119,o),
(138,260,c),
(138,260,l),
(138,401,o),
(230,494,o),
(369,494,cs),
(509,494,o),
(601,401,o),
(601,260,cs),
(601,119,o),
(509,27,o),
(369,27,cs)
);
}
);
width = 681;
},
{
layerId = m002;
shapes = (
{
closed = 1;
nodes = (
(547,-10,o),
(651,98,o),
(651,260,cs),
(651,422,o),
(547,530,o),
(391,530,cs),
(306,530,o),
(229,498,o),
(192,448,c),
(190,448,l),
(190,770,l),
(81,770,l),
(81,0,l),
(185,0,l),
(185,72,l),
(187,72,l),
(226,22,o),
(306,-10,o),
(391,-10,cs)
);
},
{
closed = 1;
nodes = (
(261,80,o),
(190,152,o),
(190,260,c),
(190,260,l),
(190,368,o),
(261,440,o),
(366,440,cs),
(471,440,o),
(542,368,o),
(542,260,cs),
(542,152,o),
(471,80,o),
(366,80,cs)
);
}
);
width = 683;
},
{
layerId = m003;
shapes = (
{
closed = 1;
nodes = (
(571,-10,o),
(663,98,o),
(663,260,cs),
(663,422,o),
(571,530,o),
(433,530,cs),
(366,530,o),
(305,505,o),
(263,460,c),
(261,460,l),
(261,770,l),
(63,770,l),
(63,0,l),
(251,0,l),
(251,60,l),
(253,60,l),
(295,17,o),
(364,-10,o),
(433,-10,cs)
);
},
{
closed = 1;
nodes = (
(303,157,o),
(261,200,o),
(261,260,c),
(261,260,l),
(261,320,o),
(303,363,o),
(363,363,cs),
(423,363,o),
(465,320,o),
(465,260,cs),
(465,200,o),
(423,157,o),
(363,157,cs)
);
}
);
width = 688;
},
{
layerId = m004;
name = "Thin F2";
shapes = (
{
closed = 1;
nodes = (
(462,-10,o),
(549,96,o),
(549,260,cs),
(549,424,o),
(462,530,o),
(324,530,cs),
(235,530,o),
(159,485,o),
(121,412,c),
(119,412,l),
(119,770,l),
(99,770,l),
(99,0,l),
(119,0,l),
(119,108,l),
(121,108,l),
(159,35,o),
(235,-10,o),
(324,-10,cs)
);
},
{
closed = 1;
nodes = (
(224,10,o),
(142,72,o),
(119,165,c),
(119,355,l),
(142,448,o),
(224,510,o),
(324,510,cs),
(450,510,o),
(529,414,o),
(529,260,cs),
(529,106,o),
(450,10,o),
(324,10,cs)
);
}
);
width = 589;
},
{
background = {
shapes = (
{
closed = 1;
nodes = (
(496,-10,o),
(581,95,o),
(581,260,cs),
(581,425,o),
(496,530,o),
(363,530,cs),
(293,530,o),
(232,501,o),
(192,448,c),
(190,448,l),
(190,770,l),
(81,770,l),
(81,0,l),
(185,0,l),
(185,72,l),
(187,72,l),
(227,20,o),
(292,-10,o),
(363,-10,cs)
);
},
{
closed = 1;
nodes = (
(259,80,o),
(206,124,o),
(190,196,c),
(190,324,l),
(206,396,o),
(259,440,o),
(331,440,cs),
(420,440,o),
(472,374,o),
(472,260,cs),
(472,146,o),
(420,80,o),
(331,80,cs)
);
}
);
};
layerId = m005;
shapes = (
{
closed = 1;
nodes = (
(496,-10,o),
(581,95,o),
(581,260,cs),
(581,425,o),
(496,530,o),
(363,530,cs),
(293,530,o),
(232,501,o),
(192,448,c),
(190,448,l),
(190,770,l),
(81,770,l),
(81,0,l),
(185,0,l),
(185,72,l),
(187,72,l),
(227,20,o),
(292,-10,o),
(363,-10,cs)
);
},
{
closed = 1;
nodes = (
(266,80,o),
(207,129,o),
(190,206,c),
(190,314,l),
(207,391,o),
(266,440,o),
(341,440,cs),
(426,440,o),
(472,377,o),
(472,260,cs),
(472,143,o),
(426,80,o),
(341,80,cs)
);
}
);
width = 613;
},
{
layerId = m006;
name = "Black F2";
shapes = (
{
closed = 1;
nodes = (
(532,-10,o),
(613,92,o),
(613,260,cs),
(613,428,o),
(532,530,o),
(400,530,cs),
(343,530,o),
(307,511,o),
(263,460,c),
(261,460,l),
(261,770,l),
(63,770,l),
(63,0,l),
(251,0,l),
(251,60,l),
(253,60,l),
(298,10,o),
(341,-10,o),
(400,-10,cs)
);
},
{
closed = 1;
nodes = (
(301,142,o),
(270,162,o),
(261,193,c),
(261,327,l),
(270,358,o),
(301,378,o),
(338,378,cs),
(389,378,o),
(415,339,o),
(415,260,cs),
(415,181,o),
(389,142,o),
(338,142,cs)
);
}
);
width = 638;
},
{
associatedMasterId = m004;
attr = {
coordinates = (
200,
100
);
};
layerId = "9ECECF33-0D80-4161-A09F-E5E90B007CD8";
name = "Jul 3, 26 at 20:59";
shapes = (
{
closed = 1;
nodes = (
(471,-10,o),
(557,96,o),
(557,260,cs),
(557,424,o),
(471,530,o),
(334,530,cs),
(254,530,o),
(178,494,o),
(139,431,c),
(137,431,l),
(137,770,l),
(95,770,l),
(95,0,l),
(136,0,l),
(136,89,l),
(138,89,l),
(176,28,o),
(252,-10,o),
(334,-10,cs)
);
},
{
closed = 1;
nodes = (
(235,28,o),
(159,85,o),
(137,175,c),
(137,345,l),
(159,435,o),
(235,493,o),
(329,493,cs),
(444,493,o),
(515,405,o),
(515,260,cs),
(515,115,o),
(444,28,o),
(329,28,cs)
);
}
);
width = 595;
}
);
metricLeft = "=h";
metricRight = "=o";
unicode = 98;
},
{
color = 4;
glyphname = c;
kernLeft = o;
kernRight = c;
lastChange = "2026-07-04 09:15:04 +0000";
layers = (
{
layerId = m01;
shapes = (
{
closed = 1;
nodes = (
(389,-20,o),
(459,-3,o),
(510,25,c),
(500,43,l),
(451,16,o),
(386,0,o),
(324,0,cs),
(167,0,o),
(60,105,o),
(60,260,cs),
(60,415,o),
(167,520,o),
(324,520,cs),
(386,520,o),
(451,504,o),
(500,477,c),
(510,495,l),
(459,523,o),
(389,540,o),
(324,540,cs),
(156,540,o),
(40,426,o),
(40,260,cs),
(40,94,o),
(156,-20,o),
(324,-20,cs)
);
}
);
width = 574;
},
{
layerId = m002;
shapes = (
{
closed = 1;
nodes = (
(406,-20,o),
(470,-5,o),
(522,23,c),
(500,113,l),
(444,88,o),
(392,76,o),
(342,76,cs),
(220,76,o),
(144,147,o),
(144,260,cs),
(144,373,o),
(220,444,o),
(342,444,cs),
(392,444,o),
(444,432,o),
(500,407,c),
(522,497,l),
(470,525,o),
(406,540,o),
(336,540,cs),
(149,540,o),
(32,432,o),
(32,260,cs),
(32,88,o),
(149,-20,o),
(336,-20,cs)
);
}
);
width = 573;
},
{
layerId = m003;
shapes = (
{
closed = 1;
nodes = (
(423,-20,o),
(482,-7,o),
(535,21,c),
(503,181,l),
(446,159,o),
(403,150,o),
(361,150,cs),
(275,150,o),
(229,188,o),
(229,260,cs),
(229,332,o),
(275,370,o),
(361,370,cs),
(403,370,o),
(446,361,o),
(503,339,c),
(535,499,l),
(482,527,o),
(423,540,o),
(349,540,cs),
(143,540,o),
(25,438,o),
(25,260,cs),
(25,82,o),
(143,-20,o),
(349,-20,cs)
);
}
);
width = 575;
},
{
layerId = m004;
shapes = (
{
closed = 1;
nodes = (
(352,-20,o),
(414,-3,o),
(460,25,c),
(450,42,l),
(407,16,o),
(349,0,o),
(294,0,cs),
(155,0,o),
(60,104,o),
(60,260,cs),
(60,416,o),
(155,520,o),
(294,520,cs),
(349,520,o),
(407,504,o),
(450,478,c),
(460,495,l),
(414,523,o),
(352,540,o),
(294,540,cs),
(144,540,o),
(40,426,o),
(40,260,cs),
(40,94,o),
(144,-20,o),
(294,-20,cs)
);
}
);
width = 524;
},
{
layerId = m005;
shapes = (
{
closed = 1;
nodes = (
(375,-20,o),
(434,-5,o),
(482,23,c),
(460,113,l),
(410,88,o),
(365,76,o),
(319,76,cs),
(210,76,o),
(142,147,o),
(142,260,cs),
(142,373,o),
(210,444,o),
(319,444,cs),
(365,444,o),
(410,432,o),
(460,407,c),
(482,497,l),
(434,525,o),
(375,540,o),
(311,540,cs),
(139,540,o),
(32,432,o),
(32,260,cs),
(32,88,o),
(139,-20,o),
(311,-20,cs)
);
}
);
width = 533;
},
{
layerId = m006;
shapes = (
{
closed = 1;
nodes = (
(399,-20,o),
(455,-7,o),
(505,21,c),
(473,181,l),
(422,159,o),
(385,150,o),
(345,150,cs),
(264,150,o),
(225,186,o),
(225,260,cs),
(225,334,o),
(264,370,o),
(345,370,cs),
(385,370,o),
(422,361,o),
(473,339,c),
(505,499,l),
(455,527,o),
(399,540,o),
(330,540,cs),
(136,540,o),
(25,438,o),
(25,260,cs),
(25,82,o),
(136,-20,o),
(330,-20,cs)
);
}
);
width = 545;
}
);
metricLeft = "=o";
metricRight = "=|*1.6";
unicode = 99;
},
{
color = 4;
glyphname = d;
kernLeft = o;
kernRight = H;
lastChange = "2026-07-04 09:15:07 +0000";
layers = (
{
layerId = m01;
shapes = (
{
closed = 1;
nodes = (
(427,-10,o),
(518,46,o),
(558,144,c),
(560,144,l),
(560,0,l),
(580,0,l),
(580,770,l),
(560,770,l),
(560,376,l),
(558,376,l),
(518,474,o),
(427,530,o),
(310,530,cs),
(148,530,o),
(40,422,o),
(40,260,cs),
(40,98,o),
(148,-10,o),
(310,-10,cs)
);
},
{
closed = 1;
nodes = (
(159,10,o),
(60,109,o),
(60,260,cs),
(60,411,o),
(159,510,o),
(310,510,cs),
(461,510,o),
(560,411,o),
(560,260,c),
(560,260,l),
(560,109,o),
(461,10,o),
(310,10,cs)
);
}
);
width = 679;
},
{
associatedMasterId = m01;
attr = {
coordinates = (
200,
200
);
};
layerId = "46F1A50B-7C0C-4B23-8733-B6799256F0FB";
name = "Jun 20, 26 at 14:30";
shapes = (
{
closed = 1;
nodes = (
(413,-10,o),
(504,38,o),
(543,116,c),
(545,116,l),
(545,0,l),
(586,0,l),
(586,770,l),
(543,770,l),
(543,404,l),
(541,404,l),
(503,482,o),
(413,530,o),
(306,530,cs),
(145,530,o),
(38,422,o),
(38,260,cs),
(38,98,o),
(145,-10,o),
(306,-10,cs)
);
},
{
closed = 1;
nodes = (
(172,27,o),
(80,119,o),
(80,260,cs),
(80,401,o),
(172,494,o),
(312,494,cs),
(451,494,o),
(543,401,o),
(543,260,c),
(543,260,l),
(543,119,o),
(451,27,o),
(312,27,cs)
);
}
);
width = 681;
},
{
layerId = m002;
shapes = (
{
closed = 1;
nodes = (
(377,-10,o),
(457,22,o),
(496,72,c),
(498,72,l),
(498,0,l),
(602,0,l),
(602,770,l),
(493,770,l),
(493,448,l),
(491,448,l),
(454,498,o),
(377,530,o),
(292,530,cs),
(136,530,o),
(32,422,o),
(32,260,cs),
(32,98,o),
(136,-10,o),
(292,-10,cs)
);
},
{
closed = 1;
nodes = (
(212,80,o),
(141,152,o),
(141,260,cs),
(141,368,o),
(212,440,o),
(317,440,cs),
(422,440,o),
(493,368,o),
(493,260,c),
(493,260,l),
(493,152,o),
(422,80,o),
(317,80,cs)
);
}
);
width = 683;
},
{
layerId = m003;
shapes = (
{
closed = 1;
nodes = (
(324,-10,o),
(393,17,o),
(435,60,c),
(437,60,l),
(437,0,l),
(625,0,l),
(625,770,l),
(427,770,l),
(427,460,l),
(425,460,l),
(383,505,o),
(322,530,o),
(255,530,cs),
(117,530,o),
(25,422,o),
(25,260,cs),
(25,98,o),
(117,-10,o),
(255,-10,cs)
);
},
{
closed = 1;
nodes = (
(265,157,o),
(223,200,o),
(223,260,cs),
(223,320,o),
(265,363,o),
(325,363,cs),
(385,363,o),
(427,320,o),
(427,260,c),
(427,260,l),
(427,200,o),
(385,157,o),
(325,157,cs)
);
}
);
width = 688;
},
{
layerId = m004;
name = "Thin F2";
shapes = (
{
closed = 1;
nodes = (
(354,-10,o),
(430,35,o),
(468,108,c),
(470,108,l),
(470,0,l),
(490,0,l),
(490,770,l),
(470,770,l),
(470,412,l),
(468,412,l),
(430,485,o),
(354,530,o),
(265,530,cs),
(127,530,o),
(40,424,o),
(40,260,cs),
(40,96,o),
(127,-10,o),
(265,-10,cs)
);
},
{
closed = 1;
nodes = (
(139,10,o),
(60,106,o),
(60,260,cs),
(60,414,o),
(139,510,o),
(265,510,cs),
(365,510,o),
(447,448,o),
(470,355,c),
(470,165,l),
(447,72,o),
(365,10,o),
(265,10,cs)
);
}
);
width = 589;
},
{
associatedMasterId = m004;
attr = {
coordinates = (
200,
100
);
};
layerId = "4542052A-5F31-4362-B451-0B9720437F60";
name = "Jun 20, 26 at 14:28";
shapes = (
{
closed = 1;
nodes = (
(343,-10,o),
(419,28,o),
(457,89,c),
(459,89,l),
(459,0,l),
(500,0,l),
(500,770,l),
(458,770,l),
(458,431,l),
(456,431,l),
(417,494,o),
(341,530,o),
(261,530,cs),
(124,530,o),
(38,424,o),
(38,260,cs),
(38,96,o),
(124,-10,o),
(261,-10,cs)
);
},
{
closed = 1;
nodes = (
(151,28,o),
(80,115,o),
(80,260,cs),
(80,405,o),
(151,493,o),
(266,493,cs),
(360,493,o),
(436,435,o),
(458,345,c),
(458,175,l),
(436,85,o),
(360,28,o),
(266,28,cs)
);
}
);
width = 595;
},
{
layerId = m005;
shapes = (
{
closed = 1;
nodes = (
(321,-10,o),
(386,20,o),
(426,72,c),
(428,72,l),
(428,0,l),
(532,0,l),
(532,770,l),
(423,770,l),
(423,448,l),
(421,448,l),
(381,501,o),
(320,530,o),
(250,530,cs),
(117,530,o),
(32,425,o),
(32,260,cs),
(32,95,o),
(117,-10,o),
(250,-10,cs)
);
},
{
closed = 1;
nodes = (
(187,80,o),
(141,143,o),
(141,260,cs),
(141,377,o),
(187,440,o),
(272,440,cs),
(347,440,o),
(406,391,o),
(423,314,c),
(423,206,l),
(406,129,o),
(347,80,o),
(272,80,cs)
);
}
);
width = 613;
},
{
layerId = m006;
name = "Black F2";
shapes = (
{
closed = 1;
nodes = (
(297,-10,o),
(340,10,o),
(385,60,c),
(387,60,l),
(387,0,l),
(575,0,l),
(575,770,l),
(377,770,l),
(377,460,l),
(375,460,l),
(331,511,o),
(295,530,o),
(238,530,cs),
(106,530,o),
(25,428,o),
(25,260,cs),
(25,92,o),
(106,-10,o),
(238,-10,cs)
);
},
{
closed = 1;
nodes = (
(249,142,o),
(223,181,o),
(223,260,cs),
(223,339,o),
(249,378,o),
(300,378,cs),
(337,378,o),
(368,358,o),
(377,327,c),
(377,193,l),
(368,162,o),
(337,142,o),
(300,142,cs)
);
}
);
width = 638;
}
);
metricLeft = "=o";
metricRight = "=|h";
unicode = 100;
},
{
color = 4;
glyphname = e;
kernLeft = o;
kernRight = o;
lastChange = "2026-07-04 09:15:09 +0000";
layers = (
{
layerId = m01;
metricRight = "=|*.8";
shapes = (
{
closed = 1;
nodes = (
(411,-20,o),
(490,3,o),
(545,42,c),
(534,58,l),
(481,21,o),
(408,0,o),
(326,0,cs),
(154,0,o),
(60,92,o),
(60,260,c),
(60,260,l),
(60,428,o),
(147,520,o),
(305,520,cs),
(463,520,o),
(550,430,o),
(550,268,c),
(559,278,l),
(50,278,l),
(50,258,l),
(570,258,l),
(570,263,o),
(570,263,o),
(570,268,cs),
(570,441,o),
(474,540,o),
(305,540,cs),
(136,540,o),
(40,439,o),
(40,260,cs),
(40,81,o),
(143,-20,o),
(326,-20,cs)
);
}
);
width = 602;
},
{
layerId = m002;
shapes = (
{
closed = 1;
nodes = (
(419,-20,o),
(495,-2,o),
(553,31,c),
(533,119,l),
(483,91,o),
(406,74,o),
(337,74,cs),
(208,74,o),
(141,133,o),
(141,246,c),
(141,274,l),
(141,389,o),
(198,448,o),
(309,448,cs),
(419,448,o),
(476,390,o),
(476,278,c),
(491,309,l),
(97,309,l),
(97,215,l),
(580,215,l),
(581,241,o),
(582,256,o),
(582,269,cs),
(582,439,o),
(481,540,o),
(310,540,cs),
(136,540,o),
(32,435,o),
(32,260,cs),
(32,82,o),
(143,-20,o),
(337,-20,cs)
);
}
);
width = 614;
},
{
layerId = m003;
metricRight = "=|*1.2";
shapes = (
{
closed = 1;
nodes = (
(427,-20,o),
(503,-5,o),
(562,19,c),
(532,163,l),
(486,142,o),
(410,128,o),
(351,128,cs),
(260,128,o),
(217,161,o),
(217,230,cs),
(217,290,ls),
(217,363,o),
(247,396,o),
(313,396,cs),
(379,396,o),
(409,363,o),
(409,290,c),
(424,318,l),
(143,318,l),
(143,192,l),
(591,192,l),
(593,212,o),
(595,246,o),
(595,270,cs),
(595,439,o),
(490,540,o),
(315,540,cs),
(135,540,o),
(25,433,o),
(25,260,cs),
(25,82,o),
(142,-20,o),
(348,-20,cs)
);
}
);
width = 625;
},
{
layerId = m004;
metricRight = "=|*.8";
shapes = (
{
closed = 1;
nodes = (
(340,-20,o),
(406,3,o),
(451,43,c),
(438,58,l),
(396,21,o),
(336,0,o),
(272,0,cs),
(136,0,o),
(60,93,o),
(60,260,c),
(60,260,l),
(60,428,o),
(129,520,o),
(255,520,cs),
(380,520,o),
(450,429,o),
(450,268,c),
(459,278,l),
(49,278,l),
(49,258,l),
(470,258,l),
(470,263,o),
(470,263,o),
(470,268,cs),
(470,439,o),
(393,540,o),
(255,540,cs),
(116,540,o),
(40,437,o),
(40,260,cs),
(40,83,o),
(124,-20,o),
(272,-20,cs)
);
}
);
width = 502;
},
{
background = {
shapes = (
{
closed = 1;
nodes = (
(359,-20,o),
(428,-1,o),
(477,31,c),
(457,111,l),
(398,79,o),
(349,64,o),
(295,64,cs),
(189,64,o),
(138,124,o),
(138,245,c),
(138,275,l),
(138,396,o),
(183,458,o),
(269,458,cs),
(355,458,o),
(400,397,o),
(400,279,c),
(416,298,l),
(89,298,l),
(89,225,l),
(500,225,l),
(501,235,o),
(502,255,o),
(502,269,cs),
(502,440,o),
(417,540,o),
(269,540,cs),
(119,540,o),
(32,436,o),
(32,260,cs),
(32,83,o),
(126,-20,o),
(290,-20,cs)
);
}
);
};
layerId = m005;
shapes = (
{
closed = 1;
nodes = (
(363,-20,o),
(428,-2,o),
(478,31,c),
(455,119,l),
(411,91,o),
(351,74,o),
(295,74,cs),
(192,74,o),
(141,131,o),
(141,246,c),
(141,274,l),
(141,389,o),
(186,448,o),
(273,448,cs),
(359,448,o),
(404,390,o),
(404,278,c),
(436,305,l),
(95,305,l),
(95,219,l),
(500,219,l),
(501,233,o),
(502,251,o),
(502,269,cs),
(502,438,o),
(415,540,o),
(272,540,cs),
(124,540,o),
(32,433,o),
(32,260,cs),
(32,83,o),
(129,-20,o),
(294,-20,cs)
);
}
);
width = 534;
},
{
layerId = m006;
metricRight = "=|*1.2";
shapes = (
{
closed = 1;
nodes = (
(379,-20,o),
(451,-5,o),
(505,19,c),
(477,163,l),
(401,136,o),
(364,128,o),
(320,128,cs),
(244,128,o),
(217,155,o),
(217,230,cs),
(217,290,ls),
(217,363,o),
(238,396,o),
(285,396,cs),
(331,396,o),
(351,364,o),
(351,290,c),
(375,318,l),
(131,318,l),
(131,192,l),
(531,192,l),
(533,206,o),
(535,246,o),
(535,270,cs),
(535,440,o),
(443,540,o),
(285,540,cs),
(123,540,o),
(25,434,o),
(25,260,cs),
(25,82,o),
(129,-20,o),
(310,-20,cs)
);
}
);
width = 565;
}
);
metricLeft = "=o";
metricRight = "=|";
unicode = 101;
},
{
color = 4;
glyphname = f;
kernLeft = f;
kernRight = f;
lastChange = "2026-07-04 09:14:16 +0000";
layers = (
{
layerId = m01;
shapes = (
{
closed = 1;
nodes = (
(225,0,l),
(225,500,l),
(480,500,l),
(480,520,l),
(225,520,l),
(225,640,ls),
(225,730,o),
(271,770,o),
(381,770,cs),
(414,770,o),
(436,767,o),
(470,756,c),
(470,777,l),
(438,786,o),
(414,790,o),
(381,790,cs),
(261,790,o),
(205,742,o),
(205,640,cs),
(205,520,l),
(40,520,l),
(40,500,l),
(205,500,l),
(205,0,l)
);
}
);
width = 520;
},
{
layerId = m002;
shapes = (
{
closed = 1;
nodes = (
(277,0,l),
(277,430,l),
(492,430,l),
(492,520,l),
(277,520,l),
(277,600,ls),
(277,674,o),
(309,702,o),
(393,702,cs),
(421,702,o),
(448,699,o),
(482,690,c),
(482,778,l),
(445,786,o),
(408,790,o),
(374,790,cs),
(238,790,o),
(168,727,o),
(168,605,cs),
(168,520,l),
(32,520,l),
(32,430,l),
(168,430,l),
(168,0,l)
);
}
);
width = 524;
},
{
layerId = m003;
shapes = (
{
closed = 1;
nodes = (
(330,0,l),
(330,360,l),
(505,360,l),
(505,520,l),
(330,520,l),
(330,560,ls),
(330,616,o),
(348,634,o),
(405,634,cs),
(432,634,o),
(464,630,o),
(495,624,c),
(495,778,l),
(452,786,o),
(402,790,o),
(368,790,cs),
(216,790,o),
(132,712,o),
(132,570,cs),
(132,520,l),
(25,520,l),
(25,360,l),
(132,360,l),
(132,0,l)
);
}
);
width = 530;
},
{
layerId = m004;
shapes = (
{
closed = 1;
nodes = (
(190,0,l),
(190,500,l),
(390,500,l),
(390,520,l),
(190,520,l),
(190,640,ls),
(190,732,o),
(227,770,o),
(317,770,cs),
(346,770,o),
(367,766,o),
(390,756,c),
(390,778,l),
(368,786,o),
(345,790,o),
(317,790,cs),
(216,790,o),
(170,743,o),
(170,640,cs),
(170,520,l),
(40,520,l),
(40,500,l),
(170,500,l),
(170,0,l)
);
}
);
width = 430;
},
{
layerId = m005;
shapes = (
{
closed = 1;
nodes = (
(257,0,l),
(257,430,l),
(422,430,l),
(422,520,l),
(257,520,l),
(257,600,ls),
(257,676,o),
(281,702,o),
(350,702,cs),
(377,702,o),
(400,698,o),
(422,690,c),
(422,778,l),
(389,786,o),
(358,790,o),
(328,790,cs),
(209,790,o),
(148,728,o),
(148,605,cs),
(148,520,l),
(32,520,l),
(32,430,l),
(148,430,l),
(148,0,l)
);
}
);
width = 454;
},
{
layerId = m006;
shapes = (
{
closed = 1;
nodes = (
(325,0,l),
(325,360,l),
(455,360,l),
(455,520,l),
(325,520,l),
(325,560,ls),
(325,617,o),
(339,634,o),
(385,634,cs),
(405,634,o),
(426,631,o),
(455,624,c),
(455,778,l),
(412,786,o),
(372,790,o),
(341,790,cs),
(203,790,o),
(127,712,o),
(127,570,cs),
(127,520,l),
(25,520,l),
(25,360,l),
(127,360,l),
(127,0,l)
);
}
);
width = 480;
}
);
metricLeft = "=h*.4";
metricRight = "=|";
unicode = 102;
},
{
color = 10;
glyphname = g;
kernLeft = o;
kernRight = u;
lastChange = "2026-07-05 01:34:53 +0000";
layers = (
{
layerId = m01;
shapes = (
{
closed = 1;
nodes = (
(484,-250,o),
(577,-155,o),
(578,40,cs),
(580,520,l),
(560,520,l),
(560,376,l),
(558,376,l),
(518,474,o),
(427,530,o),
(310,530,cs),
(148,530,o),
(40,422,o),
(40,260,cs),
(40,98,o),
(148,-10,o),
(310,-10,cs),
(427,-10,o),
(518,46,o),
(558,144,c),
(560,144,l),
(558,40,ls),
(557,-145,o),
(473,-230,o),
(295,-230,cs),
(208,-230,o),
(145,-210,o),
(93,-167,c),
(80,-182,l),
(136,-228,o),
(204,-250,o),
(295,-250,cs)
);
},
{
closed = 1;
nodes = (
(159,10,o),
(60,109,o),
(60,260,cs),
(60,411,o),
(159,510,o),
(310,510,cs),
(461,510,o),
(560,411,o),
(560,260,c),
(560,260,l),
(560,109,o),
(461,10,o),
(310,10,cs)
);
}
);
width = 659;
},
{
associatedMasterId = m01;
attr = {
coordinates = (
200,
200
);
};
layerId = "46F1A50B-7C0C-4B23-8733-B6799256F0FB";
name = "Jun 20, 26 at 14:30";
shapes = (
{
closed = 1;
nodes = (
(488,-250,o),
(583,-155,o),
(584,45,cs),
(586,520,l),
(545,520,l),
(545,404,l),
(543,404,l),
(504,482,o),
(413,530,o),
(306,530,cs),
(145,530,o),
(38,422,o),
(38,260,cs),
(38,98,o),
(145,-10,o),
(306,-10,cs),
(413,-10,o),
(503,38,o),
(541,116,c),
(543,116,l),
(542,45,ls),
(541,-133,o),
(463,-211,o),
(291,-211,cs),
(207,-211,o),
(147,-193,o),
(94,-152,c),
(79,-185,l),
(134,-229,o),
(202,-250,o),
(293,-250,cs)
);
},
{
closed = 1;
nodes = (
(172,28,o),
(80,120,o),
(80,260,cs),
(80,400,o),
(172,493,o),
(312,493,cs),
(451,493,o),
(543,400,o),
(543,260,c),
(543,260,l),
(543,120,o),
(451,28,o),
(312,28,cs)
);
}
);
width = 662;
},
{
layerId = m002;
shapes = (
{
closed = 1;
nodes = (
(501,-250,o),
(602,-151,o),
(602,60,cs),
(602,520,l),
(498,520,l),
(498,448,l),
(496,448,l),
(457,498,o),
(377,530,o),
(292,530,cs),
(136,530,o),
(32,422,o),
(32,260,cs),
(32,98,o),
(136,-10,o),
(292,-10,cs),
(377,-10,o),
(454,22,o),
(491,72,c),
(493,72,l),
(493,59,ls),
(493,-94,o),
(431,-156,o),
(279,-156,cs),
(205,-156,o),
(151,-141,o),
(98,-106,c),
(76,-196,l),
(128,-233,o),
(196,-250,o),
(286,-250,cs)
);
},
{
closed = 1;
nodes = (
(212,80,o),
(141,152,o),
(141,260,cs),
(141,368,o),
(212,440,o),
(317,440,cs),
(422,440,o),
(493,368,o),
(493,260,c),
(493,260,l),
(493,152,o),
(422,80,o),
(317,80,cs)
);
}
);
width = 667;
},
{
layerId = m003;
shapes = (
{
closed = 1;
nodes = (
(508,-250,o),
(625,-146,o),
(625,60,cs),
(625,520,l),
(437,520,l),
(437,460,l),
(435,460,l),
(393,503,o),
(324,530,o),
(255,530,cs),
(117,530,o),
(25,422,o),
(25,260,cs),
(25,98,o),
(117,-10,o),
(255,-10,cs),
(322,-10,o),
(383,15,o),
(425,60,c),
(427,60,l),
(427,58,l),
(427,-50,o),
(379,-94,o),
(262,-94,cs),
(203,-94,o),
(155,-83,o),
(104,-58,c),
(70,-206,l),
(123,-236,o),
(191,-250,o),
(276,-250,cs)
);
},
{
closed = 1;
nodes = (
(265,157,o),
(223,200,o),
(223,260,cs),
(223,320,o),
(265,363,o),
(325,363,cs),
(385,363,o),
(427,320,o),
(427,260,c),
(427,260,l),
(427,200,o),
(385,157,o),
(325,157,cs)
);
}
);
width = 675;
},
{
layerId = m004;
name = "Thin F2";
shapes = (
{
closed = 1;
nodes = (
(419,-250,o),
(490,-161,o),
(490,40,cs),
(490,520,l),
(470,520,l),
(470,412,l),
(468,412,l),
(429,485,o),
(354,530,o),
(265,530,cs),
(127,530,o),
(40,424,o),
(40,260,cs),
(40,96,o),
(127,-10,o),
(265,-10,cs),
(354,-10,o),
(430,35,o),
(468,108,c),
(470,108,l),
(470,40,ls),
(470,-151,o),
(407,-230,o),
(258,-230,cs),
(187,-230,o),
(142,-213,o),
(96,-168,c),
(82,-182,l),
(131,-230,o),
(182,-250,o),
(258,-250,cs)
);
},
{
closed = 1;
nodes = (
(139,10,o),
(60,106,o),
(60,260,cs),
(60,414,o),
(139,510,o),
(265,510,cs),
(365,510,o),
(447,448,o),
(470,355,c),
(470,165,l),
(447,72,o),
(365,10,o),
(265,10,cs)
);
}
);
width = 569;
},
{
associatedMasterId = m004;
attr = {
coordinates = (
200,
100
);
};
layerId = "4542052A-5F31-4362-B451-0B9720437F60";
name = "Jun 20, 26 at 14:28";
shapes = (
{
closed = 1;
nodes = (
(426,-250,o),
(501,-159,o),
(501,45,cs),
(501,520,l),
(460,520,l),
(460,431,l),
(458,431,l),
(419,492,o),
(342,530,o),
(261,530,cs),
(125,530,o),
(38,424,o),
(38,260,cs),
(38,96,o),
(125,-10,o),
(261,-10,cs),
(343,-10,o),
(418,28,o),
(456,89,c),
(458,89,l),
(458,45,ls),
(458,-137,o),
(398,-211,o),
(256,-211,cs),
(187,-211,o),
(143,-195,o),
(97,-152,c),
(80,-185,l),
(129,-231,o),
(181,-250,o),
(258,-250,cs)
);
},
{
closed = 1;
nodes = (
(151,28,o),
(80,115,o),
(80,260,cs),
(80,405,o),
(151,493,o),
(267,493,cs),
(361,493,o),
(437,433,o),
(458,345,c),
(458,175,l),
(437,87,o),
(361,28,o),
(267,28,cs)
);
}
);
width = 577;
},
{
layerId = m005;
shapes = (
{
closed = 1;
nodes = (
(447,-250,o),
(532,-155,o),
(532,60,cs),
(532,520,l),
(428,520,l),
(428,448,l),
(426,448,l),
(386,500,o),
(321,530,o),
(250,530,cs),
(117,530,o),
(32,425,o),
(32,260,cs),
(32,95,o),
(117,-10,o),
(250,-10,cs),
(320,-10,o),
(380,19,o),
(420,72,c),
(422,72,l),
(422,59,ls),
(422,-94,o),
(372,-156,o),
(248,-156,cs),
(188,-156,o),
(146,-142,o),
(101,-106,c),
(75,-196,l),
(123,-234,o),
(177,-250,o),
(256,-250,cs)
);
},
{
closed = 1;
nodes = (
(187,80,o),
(141,143,o),
(141,260,cs),
(141,377,o),
(187,440,o),
(272,440,cs),
(347,440,o),
(406,391,o),
(423,314,c),
(423,206,l),
(406,129,o),
(347,80,o),
(272,80,cs)
);
}
);
width = 597;
},
{
layerId = m006;
name = "Black F2";
shapes = (
{
closed = 1;
nodes = (
(469,-250,o),
(575,-146,o),
(575,60,cs),
(575,520,l),
(387,520,l),
(387,460,l),
(385,460,l),
(341,509,o),
(298,530,o),
(238,530,cs),
(106,530,o),
(25,428,o),
(25,260,cs),
(25,92,o),
(106,-10,o),
(238,-10,cs),
(295,-10,o),
(332,9,o),
(376,60,c),
(378,60,l),
(378,58,ls),
(378,-50,o),
(337,-94,o),
(237,-94,cs),
(189,-94,o),
(150,-84,o),
(104,-58,c),
(70,-206,l),
(117,-236,o),
(181,-250,o),
(258,-250,cs)
);
},
{
closed = 1;
nodes = (
(248,142,o),
(223,181,o),
(223,260,cs),
(223,339,o),
(248,378,o),
(300,378,cs),
(337,378,o),
(368,358,o),
(377,327,c),
(377,193,l),
(368,162,o),
(337,142,o),
(300,142,cs)
);
}
);
width = 625;
}
);
metricLeft = "=o";
metricRight = "=h";
unicode = 103;
},
{
color = 4;
glyphname = h;
kernLeft = H;
kernRight = h;
lastChange = "2026-07-04 09:13:17 +0000";
layers = (
{
layerId = m01;
shapes = (
{
closed = 1;
nodes = (
(119,0,l),
(119,306,ls),
(119,432,o),
(201,510,o),
(334,510,cs),
(461,510,o),
(529,439,o),
(529,306,cs),
(529,0,l),
(549,0,l),
(549,306,ls),
(549,450,o),
(472,530,o),
(334,530,cs),
(234,530,o),
(158,488,o),
(121,412,c),
(119,412,l),
(119,770,l),
(99,770,l),
(99,0,l)
);
}
);
width = 628;
},
{
layerId = m002;
shapes = (
{
closed = 1;
nodes = (
(190,0,l),
(190,256,ls),
(190,367,o),
(251,434,o),
(351,434,cs),
(437,434,o),
(482,383,o),
(482,286,cs),
(482,0,l),
(591,0,l),
(591,313,ls),
(591,447,o),
(509,530,o),
(377,530,cs),
(298,530,o),
(230,500,o),
(192,448,c),
(190,448,l),
(190,770,l),
(81,770,l),
(81,0,l)
);
}
);
width = 656;
},
{
layerId = m003;
shapes = (
{
closed = 1;
nodes = (
(261,0,l),
(261,265,ls),
(261,325,o),
(291,358,o),
(348,358,cs),
(405,358,o),
(435,325,o),
(435,265,cs),
(435,0,l),
(633,0,l),
(633,320,ls),
(633,444,o),
(546,530,o),
(420,530,cs),
(356,530,o),
(304,507,o),
(263,460,c),
(261,460,l),
(261,770,l),
(63,770,l),
(63,0,l)
);
}
);
width = 683;
},
{
layerId = m004;
name = "Thin F2";
shapes = (
{
closed = 1;
nodes = (
(119,0,l),
(119,352,l),
(144,451,o),
(214,510,o),
(305,510,cs),
(412,510,o),
(459,446,o),
(459,300,cs),
(459,0,l),
(479,0,l),
(479,300,ls),
(479,455,o),
(425,530,o),
(305,530,cs),
(223,530,o),
(157,486,o),
(121,412,c),
(119,412,l),
(119,770,l),
(99,770,l),
(99,0,l)
);
}
);
width = 558;
},
{
layerId = m005;
shapes = (
{
closed = 1;
nodes = (
(190,0,l),
(190,334,l),
(212,397,o),
(262,434,o),
(326,434,cs),
(394,434,o),
(422,392,o),
(422,290,cs),
(422,0,l),
(531,0,l),
(531,300,ls),
(531,457,o),
(478,530,o),
(364,530,cs),
(293,530,o),
(234,502,o),
(192,448,c),
(190,448,l),
(190,770,l),
(81,770,l),
(81,0,l)
);
}
);
width = 596;
},
{
layerId = m006;
name = "Black F2";
shapes = (
{
closed = 1;
nodes = (
(261,0,l),
(261,315,l),
(269,347,o),
(293,366,o),
(326,366,cs),
(365,366,o),
(385,339,o),
(385,288,cs),
(385,0,l),
(583,0,l),
(583,300,ls),
(583,454,o),
(530,530,o),
(422,530,cs),
(363,530,o),
(310,507,o),
(263,460,c),
(261,460,l),
(261,770,l),
(63,770,l),
(63,0,l)
);
}
);
width = 633;
},
{
associatedMasterId = m004;
attr = {
coordinates = (
200,
100
);
};
layerId = "DBFFBCB2-45B6-47F5-99BE-56E40808C34B";
name = "Jun 21, 26 at 16:31";
shapes = (
{
closed = 1;
nodes = (
(137,0,l),
(137,348,l),
(161,437,o),
(226,491,o),
(311,491,cs),
(408,491,o),
(450,433,o),
(450,298,cs),
(450,0,l),
(492,0,l),
(492,300,ls),
(492,456,o),
(439,530,o),
(320,530,cs),
(240,530,o),
(178,496,o),
(139,431,c),
(137,431,l),
(137,770,l),
(95,770,l),
(95,0,l)
);
}
);
width = 568;
},
{
associatedMasterId = m01;
attr = {
coordinates = (
200,
200
);
};
layerId = "466FB072-3C8F-46C9-ADE0-E318C4508BE2";
name = "Jun 21, 26 at 20:33";
shapes = (
{
closed = 1;
nodes = (
(138,0,l),
(138,294,ls),
(138,416,o),
(215,491,o),
(338,491,cs),
(455,491,o),
(517,425,o),
(517,301,cs),
(517,0,l),
(560,0,l),
(560,308,ls),
(560,449,o),
(481,530,o),
(345,530,cs),
(253,530,o),
(174,493,o),
(138,431,c),
(137,431,l),
(136,770,l),
(95,770,l),
(95,0,l)
);
}
);
width = 636;
}
);
metricLeft = "=H*.9";
metricRight = "=|*.8";
unicode = 104;
},
{
color = 4;
glyphname = i;
kernLeft = I;
kernRight = I;
lastChange = "2026-07-04 09:14:20 +0000";
layers = (
{
layerId = m01;
shapes = (
{
closed = 1;
nodes = (
(139,0,l),
(139,520,l),
(119,520,l),
(119,0,l)
);
},
{
closed = 1;
nodes = (
(146,682,o),
(159,694,o),
(159,711,cs),
(159,728,o),
(146,740,o),
(129,740,cs),
(112,740,o),
(99,728,o),
(99,711,cs),
(99,694,o),
(112,682,o),
(129,682,cs)
);
}
);
width = 258;
},
{
layerId = m002;
shapes = (
{
closed = 1;
nodes = (
(211,0,l),
(211,520,l),
(101,520,l),
(101,0,l)
);
},
{
closed = 1;
nodes = (
(200,636,o),
(231,666,o),
(231,708,cs),
(231,750,o),
(200,780,o),
(156,780,cs),
(112,780,o),
(81,750,o),
(81,708,cs),
(81,666,o),
(112,636,o),
(156,636,cs)
);
}
);
width = 312;
},
{
layerId = m003;
shapes = (
{
closed = 1;
nodes = (
(283,0,l),
(283,520,l),
(83,520,l),
(83,0,l)
);
},
{
closed = 1;
nodes = (
(253,590,o),
(303,638,o),
(303,705,cs),
(303,772,o),
(253,820,o),
(183,820,cs),
(113,820,o),
(63,772,o),
(63,705,cs),
(63,638,o),
(113,590,o),
(183,590,cs)
);
}
);
width = 366;
},
{
layerId = m004;
shapes = (
{
closed = 1;
nodes = (
(139,0,l),
(139,520,l),
(119,520,l),
(119,0,l)
);
},
{
closed = 1;
nodes = (
(146,682,o),
(159,694,o),
(159,711,cs),
(159,728,o),
(146,740,o),
(129,740,cs),
(112,740,o),
(99,728,o),
(99,711,cs),
(99,694,o),
(112,682,o),
(129,682,cs)
);
}
);
width = 258;
},
{
layerId = m005;
shapes = (
{
closed = 1;
nodes = (
(211,0,l),
(211,520,l),
(101,520,l),
(101,0,l)
);
},
{
closed = 1;
nodes = (
(200,636,o),
(231,666,o),
(231,708,cs),
(231,750,o),
(200,780,o),
(156,780,cs),
(112,780,o),
(81,750,o),
(81,708,cs),
(81,666,o),
(112,636,o),
(156,636,cs)
);
}
);
width = 312;
},
{
layerId = m006;
shapes = (
{
closed = 1;
nodes = (
(283,0,l),
(283,520,l),
(83,520,l),
(83,0,l)
);
},
{
closed = 1;
nodes = (
(253,590,o),
(303,638,o),
(303,705,cs),
(303,772,o),
(253,820,o),
(183,820,cs),
(113,820,o),
(63,772,o),
(63,705,cs),
(63,638,o),
(113,590,o),
(183,590,cs)
);
}
);
width = 366;
}
);
metricLeft = "=h";
metricRight = "=|";
unicode = 105;
},
{
color = 4;
glyphname = j;
kernLeft = I;
kernRight = I;
lastChange = "2026-07-04 09:15:13 +0000";
layers = (
{
layerId = m01;
metricLeft = "=i-140";
shapes = (
{
closed = 1;
nodes = (
(156,682,o),
(169,694,o),
(169,711,cs),
(169,728,o),
(156,740,o),
(139,740,cs),
(122,740,o),
(109,728,o),
(109,711,cs),
(109,694,o),
(122,682,o),
(139,682,cs)
);
},
{
closed = 1;
nodes = (
(102,-171,o),
(149,-84,o),
(149,84,cs),
(149,520,l),
(129,520,l),
(129,84,ls),
(129,-77,o),
(85,-158,o),
(-41,-233,c),
(-31,-250,l)
);
}
);
width = 268;
},
{
layerId = m002;
metricLeft = "=i-130";
shapes = (
{
closed = 1;
nodes = (
(213,636,o),
(244,666,o),
(244,708,cs),
(244,750,o),
(213,780,o),
(169,780,cs),
(125,780,o),
(94,750,o),
(94,708,cs),
(94,666,o),
(125,636,o),
(169,636,cs)
);
},
{
closed = 1;
nodes = (
(174,-142,o),
(224,-40,o),
(224,154,cs),
(224,520,l),
(114,520,l),
(114,154,ls),
(114,-2,o),
(76,-77,o),
(-49,-166,c),
(25,-250,l)
);
}
);
width = 325;
},
{
layerId = m003;
metricLeft = "=i-120";
shapes = (
{
closed = 1;
nodes = (
(268,590,o),
(318,638,o),
(318,705,cs),
(318,772,o),
(268,820,o),
(198,820,cs),
(128,820,o),
(78,772,o),
(78,705,cs),
(78,638,o),
(128,590,o),
(198,590,cs)
);
},
{
closed = 1;
nodes = (
(244,-114,o),
(298,4,o),
(298,224,cs),
(298,520,l),
(98,520,l),
(98,224,ls),
(98,69,o),
(66,2,o),
(-57,-100,c),
(81,-250,l)
);
}
);
width = 381;
},
{
layerId = m004;
metricLeft = "=i-170";
shapes = (
{
closed = 1;
nodes = (
(154,682,o),
(167,694,o),
(167,711,cs),
(167,728,o),
(154,740,o),
(137,740,cs),
(120,740,o),
(107,728,o),
(107,711,cs),
(107,694,o),
(120,682,o),
(137,682,cs)
);
},
{
closed = 1;
nodes = (
(92,-182,o),
(147,-94,o),
(147,84,cs),
(147,520,l),
(127,520,l),
(127,84,ls),
(127,-86,o),
(77,-167,o),
(-71,-232,c),
(-63,-250,l)
);
}
);
width = 266;
},
{
layerId = m005;
metricLeft = "=i-160";
shapes = (
{
closed = 1;
nodes = (
(212,636,o),
(243,666,o),
(243,708,cs),
(243,750,o),
(212,780,o),
(168,780,cs),
(124,780,o),
(93,750,o),
(93,708,cs),
(93,666,o),
(124,636,o),
(168,636,cs)
);
},
{
closed = 1;
nodes = (
(163,-148,o),
(223,-45,o),
(223,154,cs),
(223,520,l),
(113,520,l),
(113,154,ls),
(113,-8,o),
(69,-81,o),
(-79,-163,c),
(-13,-250,l)
);
}
);
width = 324;
},
{
layerId = m006;
metricLeft = "=i-150";
shapes = (
{
closed = 1;
nodes = (
(268,590,o),
(318,638,o),
(318,705,cs),
(318,772,o),
(268,820,o),
(198,820,cs),
(128,820,o),
(78,772,o),
(78,705,cs),
(78,638,o),
(128,590,o),
(198,590,cs)
);
},
{
closed = 1;
nodes = (
(235,-114,o),
(298,3,o),
(298,224,cs),
(298,520,l),
(98,520,l),
(98,224,ls),
(98,69,o),
(60,3,o),
(-87,-98,c),
(43,-250,l)
);
}
);
width = 381;
}
);
metricLeft = "=H*.7";
metricRight = "=i";
unicode = 106;
},
{
color = 4;
glyphname = k;
kernLeft = H;
kernRight = x;
lastChange = "2026-07-05 02:56:45 +0000";
layers = (
{
layerId = m01;
shapes = (
{
closed = 1;
nodes = (
(119,0,l),
(119,770,l),
(99,770,l),
(99,0,l)
);
},
{
closed = 1;
nodes = (
(135,265,l),
(135,265,l),
(135,265,l),
(501,520,l),
(467,520,l),
(113,273,l)
);
},
{
closed = 1;
nodes = (
(519,0,l),
(135,279,l),
(113,270,l),
(485,0,l)
);
}
);
width = 539;
},
{
layerId = m002;
shapes = (
{
closed = 1;
nodes = (
(190,0,l),
(190,770,l),
(81,770,l),
(81,0,l)
);
},
{
closed = 1;
nodes = (
(264,232,l),
(264,232,l),
(264,232,l),
(570,520,l),
(442,520,l),
(166,263,l)
);
},
{
closed = 1;
nodes = (
(581,0,l),
(276,294,l),
(178,262,l),
(454,0,l)
);
}
);
width = 597;
},
{
layerId = m003;
shapes = (
{
closed = 1;
nodes = (
(261,0,l),
(261,770,l),
(63,770,l),
(63,0,l)
);
},
{
closed = 1;
nodes = (
(392,199,l),
(392,199,l),
(392,199,l),
(638,520,l),
(416,520,l),
(218,253,l)
);
},
{
closed = 1;
nodes = (
(643,0,l),
(417,308,l),
(243,254,l),
(423,0,l)
);
}
);
width = 656;
},
{
background = {
shapes = (
{
closed = 0;
nodes = (
(5,-16,l),
(278,252,l),
(551,520,l)
);
}
);
};
layerId = m005;
shapes = (
{
closed = 1;
nodes = (
(190,0,l),
(190,770,l),
(81,770,l),
(81,0,l)
);
},
{
closed = 1;
nodes = (
(278,258,l),
(278,252,l),
(551,520,l),
(425,520,l),
(150,248,l),
(152,135,l)
);
},
{
closed = 1;
nodes = (
(561,0,l),
(281,323,l),
(191,283,l),
(443,0,l)
);
}
);
width = 577;
},
{
layerId = m006;
shapes = (
{
closed = 1;
nodes = (
(261,0,l),
(261,770,l),
(63,770,l),
(63,0,l)
);
},
{
closed = 1;
nodes = (
(368,289,l),
(368,199,l),
(613,520,l),
(397,520,l),
(196,250,l),
(190,56,l)
);
},
{
closed = 1;
nodes = (
(623,0,l),
(369,350,l),
(204,285,l),
(415,0,l)
);
}
);
width = 636;
},
{
layerId = m004;
name = "Thin F2";
shapes = (
{
closed = 1;
nodes = (
(119,0,l),
(119,770,l),
(99,770,l),
(99,0,l)
);
},
{
closed = 1;
nodes = (
(188,284,l),
(188,284,l),
(489,520,l),
(457,520,l),
(107,246,l),
(105,219,l)
);
},
{
closed = 1;
nodes = (
(499,0,l),
(192,295,l),
(178,281,l),
(471,0,l)
);
}
);
width = 519;
}
);
metricLeft = "=h";
metricRight = "=|*.2";
unicode = 107;
},
{
color = 4;
glyphname = l;
kernLeft = I;
kernRight = I;
lastChange = "2026-07-04 09:14:24 +0000";
layers = (
{
layerId = m01;
shapes = (
{
closed = 1;
nodes = (
(139,0,l),
(139,770,l),
(119,770,l),
(119,0,l)
);
}
);
width = 258;
},
{
layerId = m002;
shapes = (
{
closed = 1;
nodes = (
(207,0,l),
(207,770,l),
(97,770,l),
(97,0,l)
);
}
);
width = 304;
},
{
layerId = m003;
shapes = (
{
closed = 1;
nodes = (
(276,0,l),
(276,770,l),
(76,770,l),
(76,0,l)
);
}
);
width = 352;
},
{
layerId = m004;
shapes = (
{
closed = 1;
nodes = (
(139,0,l),
(139,770,l),
(119,770,l),
(119,0,l)
);
}
);
width = 258;
},
{
layerId = m005;
shapes = (
{
closed = 1;
nodes = (
(207,0,l),
(207,770,l),
(97,770,l),
(97,0,l)
);
}
);
width = 304;
},
{
layerId = m006;
shapes = (
{
closed = 1;
nodes = (
(276,0,l),
(276,770,l),
(76,770,l),
(76,0,l)
);
}
);
width = 352;
}
);
metricLeft = "=h*1.2";
metricRight = "=|";
unicode = 108;
},
{
color = 4;
glyphname = m;
kernLeft = m;
kernRight = h;
lastChange = "2026-07-05 01:28:08 +0000";
layers = (
{
layerId = m002;
shapes = (
{
closed = 1;
nodes = (
(189,0,l),
(189,256,ls),
(189,370,o),
(239,434,o),
(328,434,cs),
(412,434,o),
(457,382,o),
(457,286,cs),
(457,0,l),
(565,0,l),
(565,256,ls),
(565,370,o),
(615,434,o),
(704,434,cs),
(788,434,o),
(833,382,o),
(833,286,cs),
(833,0,l),
(941,0,l),
(941,313,ls),
(941,450,o),
(867,530,o),
(740,530,cs),
(653,530,o),
(573,492,o),
(533,432,c),
(531,432,l),
(500,497,o),
(443,530,o),
(363,530,cs),
(286,530,o),
(219,499,o),
(186,448,c),
(184,448,l),
(184,520,l),
(81,520,l),
(81,0,l)
);
}
);
width = 1006;
},
{
layerId = m003;
shapes = (
{
closed = 1;
nodes = (
(260,0,l),
(260,265,ls),
(260,326,o),
(287,358,o),
(338,358,cs),
(389,358,o),
(416,326,o),
(416,265,cs),
(416,0,l),
(610,0,l),
(610,265,ls),
(610,326,o),
(637,358,o),
(688,358,cs),
(739,358,o),
(766,326,o),
(766,265,cs),
(766,0,l),
(963,0,l),
(963,320,ls),
(963,450,o),
(886,530,o),
(761,530,cs),
(687,530,o),
(607,502,o),
(562,460,c),
(560,460,l),
(524,505,o),
(470,530,o),
(407,530,cs),
(345,530,o),
(291,506,o),
(252,460,c),
(250,460,l),
(250,520,l),
(63,520,l),
(63,0,l)
);
}
);
width = 1013;
},
{
layerId = m004;
name = "Thin F2";
shapes = (
{
closed = 1;
nodes = (
(119,0,l),
(119,352,l),
(141,448,o),
(210,510,o),
(295,510,cs),
(389,510,o),
(439,436,o),
(439,300,cs),
(439,0,l),
(459,0,l),
(459,352,l),
(481,448,o),
(550,510,o),
(635,510,cs),
(729,510,o),
(779,436,o),
(779,300,cs),
(779,0,l),
(799,0,l),
(799,300,ls),
(799,445,o),
(742,530,o),
(635,530,cs),
(552,530,o),
(483,478,o),
(451,393,c),
(449,393,l),
(429,481,o),
(377,530,o),
(295,530,cs),
(219,530,o),
(155,485,o),
(121,412,c),
(119,412,l),
(119,520,l),
(99,520,l),
(99,0,l)
);
}
);
width = 878;
},
{
layerId = m005;
shapes = (
{
closed = 1;
nodes = (
(189,0,l),
(189,334,l),
(210,399,o),
(256,438,o),
(311,438,cs),
(373,438,o),
(402,392,o),
(402,294,cs),
(402,0,l),
(510,0,l),
(510,334,l),
(531,399,o),
(577,438,o),
(632,438,cs),
(694,438,o),
(723,392,o),
(723,294,cs),
(723,0,l),
(831,0,l),
(831,300,ls),
(831,456,o),
(777,530,o),
(662,530,cs),
(589,530,o),
(533,501,o),
(488,440,c),
(487,440,l),
(463,500,o),
(414,530,o),
(341,530,cs),
(274,530,o),
(227,505,o),
(186,448,c),
(184,448,l),
(184,520,l),
(81,520,l),
(81,0,l)
);
}
);
width = 896;
},
{
layerId = m006;
name = "Black F2";
shapes = (
{
closed = 1;
nodes = (
(257,0,l),
(257,315,l),
(265,346,o),
(289,366,o),
(319,366,cs),
(352,366,o),
(368,341,o),
(368,288,cs),
(368,0,l),
(558,0,l),
(558,315,l),
(566,346,o),
(590,366,o),
(620,366,cs),
(653,366,o),
(669,341,o),
(669,288,cs),
(669,0,l),
(863,0,l),
(863,300,ls),
(863,458,o),
(809,530,o),
(705,530,cs),
(641,530,o),
(577,503,o),
(531,460,c),
(529,460,l),
(504,506,o),
(459,530,o),
(403,530,cs),
(346,530,o),
(292,505,o),
(249,460,c),
(247,460,l),
(247,520,l),
(63,520,l),
(63,0,l)
);
}
);
width = 913;
},
{
layerId = m01;
name = "Thin F1";
shapes = (
{
closed = 1;
nodes = (
(119,0,l),
(119,306,ls),
(119,436,o),
(193,510,o),
(319,510,cs),
(438,510,o),
(499,441,o),
(499,306,cs),
(499,0,l),
(519,0,l),
(519,306,ls),
(519,432,o),
(596,510,o),
(719,510,cs),
(836,510,o),
(899,439,o),
(899,306,cs),
(899,0,l),
(919,0,l),
(919,306,ls),
(919,449,o),
(848,530,o),
(719,530,cs),
(614,530,o),
(539,477,o),
(511,388,c),
(509,388,l),
(487,481,o),
(422,530,o),
(319,530,cs),
(221,530,o),
(149,487,o),
(121,412,c),
(119,412,l),
(119,520,l),
(99,520,l),
(99,0,l)
);
}
);
width = 998;
},
{
associatedMasterId = m01;
attr = {
coordinates = (
200,
200
);
};
background = {
shapes = (
{
closed = 0;
nodes = (
(509,384,l),
(507,384,l)
);
}
);
};
layerId = "99584B94-22D3-449D-AA18-0BDC02D7093F";
name = "Jun 29, 26 at 16:22";
shapes = (
{
closed = 1;
nodes = (
(137,0,l),
(137,294,ls),
(137,420,o),
(205,491,o),
(321,491,cs),
(432,491,o),
(489,426,o),
(489,301,cs),
(489,0,l),
(531,0,l),
(531,294,ls),
(531,417,o),
(601,491,o),
(715,491,cs),
(824,491,o),
(883,425,o),
(883,301,cs),
(883,0,l),
(925,0,l),
(925,308,ls),
(925,449,o),
(853,530,o),
(724,530,cs),
(628,530,o),
(549,485,o),
(513,411,c),
(511,411,l),
(484,490,o),
(422,530,o),
(330,530,cs),
(240,530,o),
(166,492,o),
(137,431,c),
(135,431,l),
(135,520,l),
(95,520,l),
(95,0,l)
);
}
);
width = 1001;
}
);
metricLeft = "=h";
metricRight = "=|*.8";
unicode = 109;
},
{
color = 4;
glyphname = n;
kernLeft = m;
kernRight = h;
lastChange = "2026-07-04 10:10:17 +0000";
layers = (
{
layerId = m01;
shapes = (
{
closed = 1;
nodes = (
(119,0,l),
(119,306,ls),
(119,432,o),
(201,510,o),
(334,510,cs),
(461,510,o),
(529,439,o),
(529,306,cs),
(529,0,l),
(549,0,l),
(549,306,ls),
(549,450,o),
(472,530,o),
(334,530,cs),
(234,530,o),
(158,488,o),
(121,412,c),
(119,412,l),
(119,520,l),
(99,520,l),
(99,0,l)
);
}
);
width = 628;
},
{
layerId = m002;
shapes = (
{
closed = 1;
nodes = (
(190,0,l),
(190,256,ls),
(190,367,o),
(251,434,o),
(351,434,cs),
(437,434,o),
(482,383,o),
(482,286,cs),
(482,0,l),
(591,0,l),
(591,313,ls),
(591,447,o),
(509,530,o),
(377,530,cs),
(296,530,o),
(225,499,o),
(187,448,c),
(185,448,l),
(185,520,l),
(81,520,l),
(81,0,l)
);
}
);
width = 656;
},
{
layerId = m003;
shapes = (
{
closed = 1;
nodes = (
(261,0,l),
(261,265,ls),
(261,325,o),
(291,358,o),
(348,358,cs),
(405,358,o),
(435,325,o),
(435,265,cs),
(435,0,l),
(633,0,l),
(633,320,ls),
(633,444,o),
(546,530,o),
(420,530,cs),
(353,530,o),
(295,506,o),
(253,460,c),
(251,460,l),
(251,520,l),
(63,520,l),
(63,0,l)
);
}
);
width = 683;
},
{
layerId = m004;
name = "Thin F2";
shapes = (
{
closed = 1;
nodes = (
(119,0,l),
(119,352,l),
(144,451,o),
(214,510,o),
(305,510,cs),
(412,510,o),
(459,446,o),
(459,300,cs),
(459,0,l),
(479,0,l),
(479,300,ls),
(479,455,o),
(425,530,o),
(305,530,cs),
(223,530,o),
(157,486,o),
(121,412,c),
(119,412,l),
(119,520,l),
(99,520,l),
(99,0,l)
);
}
);
width = 558;
},
{
layerId = m005;
shapes = (
{
closed = 1;
nodes = (
(190,0,l),
(190,334,l),
(212,397,o),
(262,434,o),
(326,434,cs),
(394,434,o),
(422,392,o),
(422,290,cs),
(422,0,l),
(531,0,l),
(531,300,ls),
(531,457,o),
(478,530,o),
(364,530,cs),
(292,530,o),
(229,501,o),
(187,448,c),
(185,448,l),
(185,520,l),
(81,520,l),
(81,0,l)
);
}
);
width = 596;
},
{
layerId = m006;
name = "Black F2";
shapes = (
{
closed = 1;
nodes = (
(261,0,l),
(261,315,l),
(269,347,o),
(293,366,o),
(326,366,cs),
(365,366,o),
(385,339,o),
(385,288,cs),
(385,0,l),
(583,0,l),
(583,300,ls),
(583,454,o),
(530,530,o),
(422,530,cs),
(360,530,o),
(301,505,o),
(253,460,c),
(251,460,l),
(251,520,l),
(63,520,l),
(63,0,l)
);
}
);
width = 633;
},
{
associatedMasterId = m004;
attr = {
coordinates = (
200,
100
);
};
layerId = "DBFFBCB2-45B6-47F5-99BE-56E40808C34B";
name = "Jun 21, 26 at 16:31";
shapes = (
{
closed = 1;
nodes = (
(137,0,l),
(137,348,l),
(161,437,o),
(226,491,o),
(311,491,cs),
(408,491,o),
(450,433,o),
(450,298,cs),
(450,0,l),
(492,0,l),
(492,300,ls),
(492,456,o),
(439,530,o),
(320,530,cs),
(239,530,o),
(177,496,o),
(138,431,c),
(136,431,l),
(136,520,l),
(95,520,l),
(95,0,l)
);
}
);
width = 568;
},
{
associatedMasterId = m01;
attr = {
coordinates = (
200,
200
);
};
layerId = "81FA8989-86D4-442E-9BF5-DE0B1DCBA8C0";
name = "Jun 21, 26 at 20:34";
shapes = (
{
closed = 1;
nodes = (
(138,0,l),
(138,294,ls),
(138,416,o),
(215,491,o),
(338,491,cs),
(455,491,o),
(517,425,o),
(517,301,cs),
(517,0,l),
(560,0,l),
(560,308,ls),
(560,449,o),
(481,530,o),
(345,530,cs),
(253,530,o),
(174,493,o),
(138,431,c),
(137,431,l),
(136,520,l),
(95,520,l),
(95,0,l)
);
}
);
width = 636;
}
);
metricLeft = "=h";
metricRight = "=|*.8";
unicode = 110;
},
{
color = 4;
glyphname = o;
kernLeft = o;
kernRight = o;
lastChange = "2026-07-04 09:14:29 +0000";
layers = (
{
layerId = m01;
shapes = (
{
closed = 1;
nodes = (
(496,-20,o),
(610,92,o),
(610,260,cs),
(610,428,o),
(496,540,o),
(325,540,cs),
(154,540,o),
(40,428,o),
(40,260,cs),
(40,92,o),
(154,-20,o),
(325,-20,cs)
);
},
{
closed = 1;
nodes = (
(165,0,o),
(60,103,o),
(60,260,cs),
(60,417,o),
(165,520,o),
(325,520,cs),
(485,520,o),
(590,417,o),
(590,260,cs),
(590,103,o),
(485,0,o),
(325,0,cs)
);
}
);
width = 650;
},
{
layerId = m002;
shapes = (
{
closed = 1;
nodes = (
(496,-20,o),
(612,92,o),
(612,260,cs),
(612,428,o),
(496,540,o),
(322,540,cs),
(148,540,o),
(32,428,o),
(32,260,cs),
(32,92,o),
(148,-20,o),
(322,-20,cs)
);
},
{
closed = 1;
nodes = (
(211,76,o),
(141,147,o),
(141,260,cs),
(141,373,o),
(211,444,o),
(322,444,cs),
(433,444,o),
(503,373,o),
(503,260,cs),
(503,147,o),
(433,76,o),
(322,76,cs)
);
}
);
width = 644;
},
{
layerId = m003;
shapes = (
{
closed = 1;
nodes = (
(497,-20,o),
(615,92,o),
(615,260,cs),
(615,428,o),
(497,540,o),
(320,540,cs),
(143,540,o),
(25,428,o),
(25,260,cs),
(25,92,o),
(143,-20,o),
(320,-20,cs)
);
},
{
closed = 1;
nodes = (
(255,152,o),
(217,192,o),
(217,260,cs),
(217,328,o),
(255,368,o),
(320,368,cs),
(385,368,o),
(423,328,o),
(423,260,cs),
(423,192,o),
(385,152,o),
(320,152,cs)
);
}
);
width = 640;
},
{
layerId = m004;
shapes = (
{
closed = 1;
nodes = (
(421,-20,o),
(510,86,o),
(510,260,cs),
(510,434,o),
(421,540,o),
(275,540,cs),
(129,540,o),
(40,434,o),
(40,260,cs),
(40,86,o),
(129,-20,o),
(275,-20,cs)
);
},
{
closed = 1;
nodes = (
(141,0,o),
(60,96,o),
(60,260,cs),
(60,424,o),
(141,520,o),
(275,520,cs),
(409,520,o),
(490,424,o),
(490,260,cs),
(490,96,o),
(409,0,o),
(275,0,cs)
);
}
);
width = 550;
},
{
layerId = m005;
shapes = (
{
closed = 1;
nodes = (
(445,-20,o),
(542,86,o),
(542,260,cs),
(542,434,o),
(445,540,o),
(287,540,cs),
(129,540,o),
(32,434,o),
(32,260,cs),
(32,86,o),
(129,-20,o),
(287,-20,cs)
);
},
{
closed = 1;
nodes = (
(195,76,o),
(141,144,o),
(141,260,cs),
(141,376,o),
(195,444,o),
(287,444,cs),
(379,444,o),
(433,376,o),
(433,260,cs),
(433,144,o),
(379,76,o),
(287,76,cs)
);
}
);
width = 574;
},
{
layerId = m006;
shapes = (
{
closed = 1;
nodes = (
(470,-20,o),
(575,87,o),
(575,260,cs),
(575,433,o),
(470,540,o),
(300,540,cs),
(130,540,o),
(25,433,o),
(25,260,cs),
(25,87,o),
(130,-20,o),
(300,-20,cs)
);
},
{
closed = 1;
nodes = (
(245,144,o),
(217,184,o),
(217,260,cs),
(217,336,o),
(245,376,o),
(300,376,cs),
(355,376,o),
(383,336,o),
(383,260,cs),
(383,184,o),
(355,144,o),
(300,144,cs)
);
}
);
width = 600;
}
);
metricLeft = "=h*.4";
metricRight = "=|";
unicode = 111;
},
{
color = 4;
glyphname = p;
kernLeft = n;
kernRight = o;
lastChange = "2026-07-04 09:15:15 +0000";
layers = (
{
layerId = m01;
shapes = (
{
closed = 1;
nodes = (
(252,530,o),
(161,474,o),
(121,376,c),
(119,376,l),
(119,520,l),
(99,520,l),
(99,-230,l),
(119,-230,l),
(119,144,l),
(121,144,l),
(161,46,o),
(252,-10,o),
(369,-10,cs),
(531,-10,o),
(639,98,o),
(639,260,cs),
(639,422,o),
(531,530,o),
(369,530,cs)
);
},
{
closed = 1;
nodes = (
(520,510,o),
(619,411,o),
(619,260,cs),
(619,109,o),
(520,10,o),
(369,10,cs),
(218,10,o),
(119,109,o),
(119,260,c),
(119,260,l),
(119,411,o),
(218,510,o),
(369,510,cs)
);
}
);
width = 679;
},
{
associatedMasterId = m01;
attr = {
coordinates = (
200,
200
);
};
layerId = "46F1A50B-7C0C-4B23-8733-B6799256F0FB";
name = "Jun 20, 26 at 14:30";
shapes = (
{
closed = 1;
nodes = (
(268,530,o),
(177,482,o),
(139,404,c),
(137,404,l),
(137,520,l),
(96,520,l),
(95,-230,l),
(138,-230,l),
(138,116,l),
(140,116,l),
(178,38,o),
(268,-10,o),
(376,-10,cs),
(536,-10,o),
(643,98,o),
(643,260,cs),
(643,422,o),
(536,530,o),
(376,530,cs)
);
},
{
closed = 1;
nodes = (
(509,493,o),
(601,401,o),
(601,260,cs),
(601,119,o),
(509,26,o),
(369,26,cs),
(230,26,o),
(138,119,o),
(138,260,c),
(138,260,l),
(138,401,o),
(230,493,o),
(369,493,cs)
);
}
);
width = 681;
},
{
layerId = m002;
shapes = (
{
closed = 1;
nodes = (
(306,530,o),
(226,498,o),
(187,448,c),
(185,448,l),
(185,520,l),
(81,520,l),
(81,-230,l),
(190,-230,l),
(190,72,l),
(192,72,l),
(229,22,o),
(306,-10,o),
(391,-10,cs),
(547,-10,o),
(651,98,o),
(651,260,cs),
(651,422,o),
(547,530,o),
(391,530,cs)
);
},
{
closed = 1;
nodes = (
(471,440,o),
(542,368,o),
(542,260,cs),
(542,152,o),
(471,80,o),
(366,80,cs),
(261,80,o),
(190,152,o),
(190,260,c),
(190,260,l),
(190,368,o),
(261,440,o),
(366,440,cs)
);
}
);
width = 683;
},
{
layerId = m003;
shapes = (
{
closed = 1;
nodes = (
(364,530,o),
(295,503,o),
(253,460,c),
(251,460,l),
(251,520,l),
(63,520,l),
(63,-230,l),
(261,-230,l),
(261,60,l),
(263,60,l),
(305,15,o),
(366,-10,o),
(433,-10,cs),
(571,-10,o),
(663,98,o),
(663,260,cs),
(663,422,o),
(571,530,o),
(433,530,cs)
);
},
{
closed = 1;
nodes = (
(423,363,o),
(465,320,o),
(465,260,cs),
(465,200,o),
(423,157,o),
(363,157,cs),
(303,157,o),
(261,200,o),
(261,260,c),
(261,260,l),
(261,320,o),
(303,363,o),
(363,363,cs)
);
}
);
width = 688;
},
{
layerId = m004;
name = "Thin F2";
shapes = (
{
closed = 1;
nodes = (
(235,530,o),
(159,485,o),
(121,412,c),
(119,412,l),
(119,520,l),
(99,520,l),
(99,-230,l),
(119,-230,l),
(119,108,l),
(121,108,l),
(159,35,o),
(235,-10,o),
(324,-10,cs),
(462,-10,o),
(549,96,o),
(549,260,cs),
(549,424,o),
(462,530,o),
(324,530,cs)
);
},
{
closed = 1;
nodes = (
(450,510,o),
(529,414,o),
(529,260,cs),
(529,106,o),
(450,10,o),
(324,10,cs),
(224,10,o),
(142,72,o),
(119,165,c),
(119,355,l),
(142,448,o),
(224,510,o),
(324,510,cs)
);
}
);
width = 589;
},
{
associatedMasterId = m004;
attr = {
coordinates = (
200,
100
);
};
layerId = "4542052A-5F31-4362-B451-0B9720437F60";
name = "Jun 20, 26 at 14:28";
shapes = (
{
closed = 1;
nodes = (
(252,530,o),
(176,492,o),
(138,431,c),
(136,431,l),
(136,520,l),
(95,520,l),
(95,-230,l),
(137,-230,l),
(137,89,l),
(139,89,l),
(178,26,o),
(254,-10,o),
(334,-10,cs),
(471,-10,o),
(557,96,o),
(557,260,cs),
(557,424,o),
(471,530,o),
(334,530,cs)
);
},
{
closed = 1;
nodes = (
(444,492,o),
(515,405,o),
(515,260,cs),
(515,115,o),
(444,27,o),
(329,27,cs),
(235,27,o),
(159,85,o),
(137,175,c),
(137,345,l),
(159,435,o),
(235,492,o),
(329,492,cs)
);
}
);
width = 595;
},
{
layerId = m005;
shapes = (
{
closed = 1;
nodes = (
(292,530,o),
(227,500,o),
(187,448,c),
(185,448,l),
(185,520,l),
(81,520,l),
(81,-230,l),
(190,-230,l),
(190,72,l),
(192,72,l),
(232,19,o),
(293,-10,o),
(363,-10,cs),
(496,-10,o),
(581,95,o),
(581,260,cs),
(581,425,o),
(496,530,o),
(363,530,cs)
);
},
{
closed = 1;
nodes = (
(426,440,o),
(472,377,o),
(472,260,cs),
(472,143,o),
(426,80,o),
(341,80,cs),
(266,80,o),
(207,129,o),
(190,206,c),
(190,314,l),
(207,391,o),
(266,440,o),
(341,440,cs)
);
}
);
width = 613;
},
{
layerId = m006;
name = "Black F2";
shapes = (
{
closed = 1;
nodes = (
(341,530,o),
(298,510,o),
(253,460,c),
(251,460,l),
(251,520,l),
(63,520,l),
(63,-230,l),
(261,-230,l),
(261,60,l),
(263,60,l),
(307,9,o),
(343,-10,o),
(400,-10,cs),
(532,-10,o),
(613,92,o),
(613,260,cs),
(613,428,o),
(532,530,o),
(400,530,cs)
);
},
{
closed = 1;
nodes = (
(389,378,o),
(415,339,o),
(415,260,cs),
(415,181,o),
(389,142,o),
(338,142,cs),
(301,142,o),
(270,162,o),
(261,193,c),
(261,327,l),
(270,358,o),
(301,378,o),
(338,378,cs)
);
}
);
width = 638;
}
);
metricLeft = "=h";
metricRight = "=o";
unicode = 112;
},
{
color = 4;
glyphname = q;
kernLeft = o;
kernRight = u;
lastChange = "2026-07-04 09:14:31 +0000";
layers = (
{
layerId = m01;
shapes = (
{
closed = 1;
nodes = (
(148,530,o),
(40,422,o),
(40,260,cs),
(40,98,o),
(148,-10,o),
(310,-10,cs),
(427,-10,o),
(518,46,o),
(558,144,c),
(560,144,l),
(560,-230,l),
(580,-230,l),
(580,520,l),
(560,520,l),
(560,376,l),
(558,376,l),
(518,474,o),
(427,530,o),
(310,530,cs)
);
},
{
closed = 1;
nodes = (
(461,510,o),
(560,411,o),
(560,260,c),
(560,260,l),
(560,109,o),
(461,10,o),
(310,10,cs),
(159,10,o),
(60,109,o),
(60,260,cs),
(60,411,o),
(159,510,o),
(310,510,cs)
);
}
);
width = 679;
},
{
associatedMasterId = m01;
attr = {
coordinates = (
200,
200
);
};
layerId = "46F1A50B-7C0C-4B23-8733-B6799256F0FB";
name = "Jun 20, 26 at 14:30";
shapes = (
{
closed = 1;
nodes = (
(145,530,o),
(38,422,o),
(38,260,cs),
(38,98,o),
(145,-10,o),
(305,-10,cs),
(413,-10,o),
(503,38,o),
(541,116,c),
(543,116,l),
(543,-230,l),
(586,-230,l),
(585,520,l),
(544,520,l),
(544,404,l),
(542,404,l),
(504,482,o),
(413,530,o),
(305,530,cs)
);
},
{
closed = 1;
nodes = (
(451,493,o),
(543,401,o),
(543,260,c),
(543,260,l),
(543,119,o),
(451,26,o),
(312,26,cs),
(172,26,o),
(80,119,o),
(80,260,cs),
(80,401,o),
(172,493,o),
(312,493,cs)
);
}
);
width = 681;
},
{
layerId = m002;
shapes = (
{
closed = 1;
nodes = (
(136,530,o),
(32,422,o),
(32,260,cs),
(32,98,o),
(136,-10,o),
(292,-10,cs),
(377,-10,o),
(454,22,o),
(491,72,c),
(493,72,l),
(493,-230,l),
(602,-230,l),
(602,520,l),
(498,520,l),
(498,448,l),
(496,448,l),
(457,498,o),
(377,530,o),
(292,530,cs)
);
},
{
closed = 1;
nodes = (
(422,440,o),
(493,368,o),
(493,260,c),
(493,260,l),
(493,152,o),
(422,80,o),
(317,80,cs),
(212,80,o),
(141,152,o),
(141,260,cs),
(141,368,o),
(212,440,o),
(317,440,cs)
);
}
);
width = 683;
},
{
layerId = m003;
shapes = (
{
closed = 1;
nodes = (
(117,530,o),
(25,422,o),
(25,260,cs),
(25,98,o),
(117,-10,o),
(255,-10,cs),
(322,-10,o),
(383,15,o),
(425,60,c),
(427,60,l),
(427,-230,l),
(625,-230,l),
(625,520,l),
(437,520,l),
(437,460,l),
(435,460,l),
(393,503,o),
(324,530,o),
(255,530,cs)
);
},
{
closed = 1;
nodes = (
(385,363,o),
(427,320,o),
(427,260,c),
(427,260,l),
(427,200,o),
(385,157,o),
(325,157,cs),
(265,157,o),
(223,200,o),
(223,260,cs),
(223,320,o),
(265,363,o),
(325,363,cs)
);
}
);
width = 688;
},
{
layerId = m004;
name = "Thin F2";
shapes = (
{
closed = 1;
nodes = (
(127,530,o),
(40,424,o),
(40,260,cs),
(40,96,o),
(127,-10,o),
(265,-10,cs),
(354,-10,o),
(430,35,o),
(468,108,c),
(470,108,l),
(470,-230,l),
(490,-230,l),
(490,520,l),
(470,520,l),
(470,412,l),
(468,412,l),
(430,485,o),
(354,530,o),
(265,530,cs)
);
},
{
closed = 1;
nodes = (
(365,510,o),
(447,448,o),
(470,355,c),
(470,165,l),
(447,72,o),
(365,10,o),
(265,10,cs),
(139,10,o),
(60,106,o),
(60,260,cs),
(60,414,o),
(139,510,o),
(265,510,cs)
);
}
);
width = 589;
},
{
associatedMasterId = m004;
attr = {
coordinates = (
200,
100
);
};
layerId = "4542052A-5F31-4362-B451-0B9720437F60";
name = "Jun 20, 26 at 14:28";
shapes = (
{
closed = 1;
nodes = (
(124,530,o),
(38,424,o),
(38,260,cs),
(38,96,o),
(124,-10,o),
(261,-10,cs),
(341,-10,o),
(417,26,o),
(456,89,c),
(458,89,l),
(458,-230,l),
(500,-230,l),
(500,520,l),
(459,520,l),
(459,431,l),
(457,431,l),
(419,492,o),
(343,530,o),
(261,530,cs)
);
},
{
closed = 1;
nodes = (
(360,492,o),
(436,435,o),
(458,345,c),
(458,175,l),
(436,85,o),
(360,27,o),
(266,27,cs),
(151,27,o),
(80,115,o),
(80,260,cs),
(80,405,o),
(151,492,o),
(266,492,cs)
);
}
);
width = 595;
},
{
layerId = m005;
shapes = (
{
closed = 1;
nodes = (
(117,530,o),
(32,425,o),
(32,260,cs),
(32,95,o),
(117,-10,o),
(250,-10,cs),
(320,-10,o),
(381,19,o),
(421,72,c),
(423,72,l),
(423,-230,l),
(532,-230,l),
(532,520,l),
(428,520,l),
(428,448,l),
(426,448,l),
(386,500,o),
(321,530,o),
(250,530,cs)
);
},
{
closed = 1;
nodes = (
(347,440,o),
(406,391,o),
(423,314,c),
(423,206,l),
(406,129,o),
(347,80,o),
(272,80,cs),
(187,80,o),
(141,143,o),
(141,260,cs),
(141,377,o),
(187,440,o),
(272,440,cs)
);
}
);
width = 613;
},
{
layerId = m006;
name = "Black F2";
shapes = (
{
closed = 1;
nodes = (
(106,530,o),
(25,428,o),
(25,260,cs),
(25,92,o),
(106,-10,o),
(238,-10,cs),
(295,-10,o),
(331,9,o),
(375,60,c),
(377,60,l),
(377,-230,l),
(575,-230,l),
(575,520,l),
(387,520,l),
(387,460,l),
(385,460,l),
(340,510,o),
(297,530,o),
(238,530,cs)
);
},
{
closed = 1;
nodes = (
(337,378,o),
(368,358,o),
(377,327,c),
(377,193,l),
(368,162,o),
(337,142,o),
(300,142,cs),
(249,142,o),
(223,181,o),
(223,260,cs),
(223,339,o),
(249,378,o),
(300,378,cs)
);
}
);
width = 638;
}
);
metricLeft = "=o";
metricRight = "=|h";
unicode = 113;
},
{
color = 4;
glyphname = r;
kernLeft = m;
kernRight = r;
lastChange = "2026-07-04 09:13:23 +0000";
layers = (
{
layerId = m01;
shapes = (
{
closed = 1;
nodes = (
(119,0,l),
(119,240,ls),
(119,417,o),
(205,510,o),
(369,510,c),
(369,530,l),
(242,530,o),
(158,478,o),
(121,376,c),
(119,376,l),
(119,520,l),
(99,520,l),
(99,0,l)
);
}
);
width = 391;
},
{
layerId = m002;
shapes = (
{
closed = 1;
nodes = (
(190,0,l),
(190,220,ls),
(190,367,o),
(263,435,o),
(421,435,c),
(421,530,l),
(316,530,o),
(236,495,o),
(187,428,c),
(185,428,l),
(185,520,l),
(81,520,l),
(81,0,l)
);
}
);
width = 439;
},
{
layerId = m003;
shapes = (
{
closed = 1;
nodes = (
(261,0,l),
(261,200,ls),
(261,316,o),
(319,360,o),
(473,360,c),
(473,530,l),
(390,530,o),
(314,499,o),
(253,440,c),
(251,440,l),
(251,520,l),
(63,520,l),
(63,0,l)
);
}
);
width = 487;
},
{
layerId = m004;
shapes = (
{
closed = 1;
nodes = (
(119,0,l),
(119,298,l),
(144,438,o),
(229,510,o),
(369,510,c),
(369,530,l),
(247,530,o),
(162,478,o),
(121,376,c),
(119,376,l),
(119,520,l),
(99,520,l),
(99,0,l)
);
}
);
width = 391;
},
{
layerId = m005;
shapes = (
{
closed = 1;
nodes = (
(190,0,l),
(190,298,l),
(215,391,o),
(289,435,o),
(421,435,c),
(421,530,l),
(319,530,o),
(237,494,o),
(187,428,c),
(185,428,l),
(185,520,l),
(81,520,l),
(81,0,l)
);
}
);
width = 439;
},
{
layerId = m006;
shapes = (
{
closed = 1;
nodes = (
(261,0,l),
(261,265,l),
(286,334,o),
(344,360,o),
(473,360,c),
(473,530,l),
(389,530,o),
(314,499,o),
(253,440,c),
(251,440,l),
(251,520,l),
(63,520,l),
(63,0,l)
);
}
);
width = 487;
},
{
associatedMasterId = m004;
attr = {
coordinates = (
200,
100
);
};
layerId = "B84F732E-EFF5-45B8-A523-5511923AEA33";
name = "Jul 4, 26 at 16:53";
shapes = (
{
closed = 1;
nodes = (
(137,0,l),
(137,298,l),
(162,426,o),
(244,491,o),
(382,491,c),
(382,530,l),
(265,530,o),
(181,485,o),
(138,399,c),
(136,399,l),
(136,520,l),
(95,520,l),
(95,0,l)
);
}
);
width = 403;
},
{
associatedMasterId = m01;
attr = {
coordinates = (
200,
200
);
};
layerId = "754E0805-38BC-423B-B5CC-BF79164602CD";
name = "Jul 4, 26 at 16:53";
shapes = (
{
closed = 1;
nodes = (
(137,0,l),
(137,235,ls),
(137,405,o),
(220,491,o),
(382,491,c),
(382,530,l),
(261,530,o),
(178,485,o),
(138,399,c),
(136,399,l),
(136,520,l),
(95,520,l),
(95,0,l)
);
}
);
width = 403;
}
);
metricLeft = "=h";
metricRight = "=H*.2";
unicode = 114;
},
{
color = 4;
glyphname = s;
kernLeft = s;
kernRight = s;
lastChange = "2026-07-04 09:14:33 +0000";
layers = (
{
layerId = m01;
shapes = (
{
closed = 1;
nodes = (
(349,-10,o),
(420,43,o),
(420,132,cs),
(420,331,o),
(70,232,o),
(70,398,cs),
(70,467,o),
(128,510,o),
(233,510,cs),
(294,510,o),
(358,495,o),
(394,473,c),
(404,490,l),
(365,514,o),
(297,530,o),
(233,530,cs),
(119,530,o),
(50,480,o),
(50,398,cs),
(50,211,o),
(400,311,o),
(400,132,cs),
(400,56,o),
(340,10,o),
(230,10,cs),
(168,10,o),
(105,25,o),
(61,50,c),
(51,33,l),
(99,6,o),
(165,-10,o),
(230,-10,cs)
);
}
);
width = 470;
},
{
layerId = m002;
shapes = (
{
closed = 1;
nodes = (
(380,-10,o),
(461,47,o),
(461,143,cs),
(461,335,o),
(146,285,o),
(146,383,cs),
(146,420,o),
(184,440,o),
(253,440,cs),
(308,440,o),
(369,427,o),
(426,405,c),
(444,491,l),
(388,517,o),
(325,530,o),
(256,530,cs),
(118,530,o),
(41,478,o),
(41,385,cs),
(41,194,o),
(354,247,o),
(354,144,cs),
(354,101,o),
(321,80,o),
(247,80,cs),
(187,80,o),
(120,94,o),
(61,118,c),
(43,32,l),
(98,6,o),
(173,-10,o),
(244,-10,cs)
);
}
);
width = 502;
},
{
layerId = m003;
shapes = (
{
closed = 1;
nodes = (
(420,-10,o),
(502,47,o),
(502,153,cs),
(502,336,o),
(232,302,o),
(232,367,cs),
(232,384,o),
(246,390,o),
(284,390,cs),
(330,390,o),
(385,379,o),
(454,356,c),
(484,492,l),
(413,520,o),
(361,530,o),
(290,530,cs),
(124,530,o),
(32,474,o),
(32,372,cs),
(32,188,o),
(299,215,o),
(299,155,cs),
(299,135,o),
(290,130,o),
(254,130,cs),
(202,130,o),
(134,143,o),
(66,166,c),
(36,30,l),
(98,6,o),
(190,-10,o),
(269,-10,cs)
);
}
);
width = 534;
},
{
layerId = m004;
shapes = (
{
closed = 1;
nodes = (
(333,-10,o),
(400,43,o),
(400,132,cs),
(400,330,o),
(70,235,o),
(70,398,cs),
(70,467,o),
(125,510,o),
(223,510,cs),
(281,510,o),
(340,495,o),
(374,473,c),
(385,490,l),
(348,514,o),
(284,530,o),
(223,530,cs),
(115,530,o),
(50,480,o),
(50,398,cs),
(50,217,o),
(380,309,o),
(380,132,cs),
(380,55,o),
(323,10,o),
(220,10,cs),
(161,10,o),
(103,25,o),
(61,50,c),
(51,33,l),
(96,6,o),
(158,-10,o),
(220,-10,cs)
);
}
);
width = 450;
},
{
layerId = m005;
shapes = (
{
closed = 1;
nodes = (
(365,-10,o),
(441,46,o),
(441,143,cs),
(441,339,o),
(152,282,o),
(152,390,cs),
(152,422,o),
(187,440,o),
(249,440,cs),
(299,440,o),
(353,428,o),
(402,405,c),
(424,491,l),
(370,517,o),
(311,530,o),
(245,530,cs),
(114,530,o),
(41,478,o),
(41,385,cs),
(41,197,o),
(330,250,o),
(330,137,cs),
(330,100,o),
(295,80,o),
(227,80,cs),
(173,80,o),
(116,93,o),
(65,118,c),
(43,32,l),
(95,5,o),
(166,-10,o),
(234,-10,cs)
);
}
);
width = 482;
},
{
layerId = m006;
shapes = (
{
closed = 1;
nodes = (
(397,-10,o),
(481,49,o),
(481,153,cs),
(481,336,o),
(233,302,o),
(233,367,cs),
(233,384,o),
(245,390,o),
(277,390,cs),
(319,390,o),
(369,379,o),
(436,356,c),
(464,492,l),
(394,519,o),
(337,530,o),
(267,530,cs),
(113,530,o),
(31,475,o),
(31,372,cs),
(31,188,o),
(279,215,o),
(279,155,cs),
(279,137,o),
(265,130,o),
(229,130,cs),
(182,130,o),
(124,143,o),
(62,166,c),
(34,30,l),
(93,5,o),
(173,-10,o),
(248,-10,cs)
);
}
);
width = 512;
}
);
metricLeft = "=h*.5";
metricRight = "=|";
unicode = 115;
},
{
color = 4;
glyphname = t;
kernLeft = f;
kernRight = c;
lastChange = "2026-07-04 09:15:17 +0000";
layers = (
{
layerId = m01;
shapes = (
{
closed = 1;
nodes = (
(359,-10,o),
(391,-7,o),
(420,3,c),
(420,25,l),
(392,15,o),
(360,10,o),
(324,10,cs),
(226,10,o),
(191,47,o),
(191,150,cs),
(191,500,l),
(430,500,l),
(430,520,l),
(191,520,l),
(191,690,l),
(171,690,l),
(171,520,l),
(40,520,l),
(40,500,l),
(171,500,l),
(171,150,ls),
(171,36,o),
(215,-10,o),
(324,-10,cs)
);
}
);
width = 494;
},
{
layerId = m002;
shapes = (
{
closed = 1;
nodes = (
(364,-10,o),
(402,-5,o),
(442,6,c),
(442,96,l),
(413,86,o),
(377,81,o),
(345,81,cs),
(275,81,o),
(253,105,o),
(253,181,cs),
(253,430,l),
(452,430,l),
(452,520,l),
(253,520,l),
(253,690,l),
(144,690,l),
(144,520,l),
(32,520,l),
(32,430,l),
(144,430,l),
(144,160,ls),
(144,38,o),
(195,-10,o),
(323,-10,cs)
);
}
);
width = 503;
},
{
layerId = m003;
shapes = (
{
closed = 1;
nodes = (
(371,-10,o),
(414,-4,o),
(465,10,c),
(465,166,l),
(431,157,o),
(395,151,o),
(367,151,cs),
(326,151,o),
(315,163,o),
(315,211,cs),
(315,360,l),
(475,360,l),
(475,520,l),
(315,520,l),
(315,690,l),
(117,690,l),
(117,520,l),
(25,520,l),
(25,360,l),
(117,360,l),
(117,170,ls),
(117,42,o),
(176,-10,o),
(322,-10,cs)
);
}
);
width = 515;
},
{
layerId = m004;
shapes = (
{
closed = 1;
nodes = (
(298,-10,o),
(322,-6,o),
(350,4,c),
(350,25,l),
(321,14,o),
(298,10,o),
(270,10,cs),
(188,10,o),
(160,46,o),
(160,150,cs),
(160,500,l),
(350,500,l),
(350,520,l),
(160,520,l),
(160,690,l),
(140,690,l),
(140,520,l),
(40,520,l),
(40,500,l),
(140,500,l),
(140,150,ls),
(140,36,o),
(175,-10,o),
(270,-10,cs)
);
}
);
width = 414;
},
{
layerId = m005;
shapes = (
{
closed = 1;
nodes = (
(313,-10,o),
(343,-5,o),
(382,6,c),
(382,96,l),
(362,86,o),
(333,81,o),
(306,81,cs),
(249,81,o),
(232,104,o),
(232,181,cs),
(232,430,l),
(382,430,l),
(382,520,l),
(232,520,l),
(232,690,l),
(123,690,l),
(123,520,l),
(32,520,l),
(32,430,l),
(123,430,l),
(123,160,ls),
(123,39,o),
(168,-10,o),
(278,-10,cs)
);
}
);
width = 433;
},
{
layerId = m006;
shapes = (
{
closed = 1;
nodes = (
(331,-10,o),
(370,-4,o),
(415,10,c),
(415,166,l),
(396,157,o),
(365,151,o),
(343,151,cs),
(312,151,o),
(305,162,o),
(305,211,cs),
(305,360,l),
(415,360,l),
(415,520,l),
(305,520,l),
(305,690,l),
(107,690,l),
(107,520,l),
(25,520,l),
(25,360,l),
(107,360,l),
(107,170,ls),
(107,43,o),
(160,-10,o),
(288,-10,cs)
);
}
);
width = 455;
}
);
metricLeft = "=f";
metricRight = "=c";
unicode = 116;
},
{
color = 4;
glyphname = u;
kernLeft = u;
kernRight = n;
lastChange = "2026-07-04 10:09:50 +0000";
layers = (
{
layerId = m01;
shapes = (
{
closed = 1;
nodes = (
(387,-10,o),
(461,32,o),
(497,108,c),
(499,108,l),
(499,0,l),
(519,0,l),
(519,520,l),
(499,520,l),
(499,214,ls),
(499,88,o),
(419,10,o),
(289,10,cs),
(165,10,o),
(99,81,o),
(99,214,cs),
(99,520,l),
(79,520,l),
(79,214,ls),
(79,70,o),
(154,-10,o),
(289,-10,cs)
);
}
);
width = 618;
},
{
layerId = m002;
shapes = (
{
closed = 1;
nodes = (
(353,-10,o),
(422,21,o),
(459,72,c),
(461,72,l),
(461,0,l),
(565,0,l),
(565,520,l),
(456,520,l),
(456,265,ls),
(456,154,o),
(397,86,o),
(301,86,cs),
(217,86,o),
(174,137,o),
(174,235,cs),
(174,520,l),
(65,520,l),
(65,207,ls),
(65,73,o),
(145,-10,o),
(274,-10,cs)
);
}
);
width = 646;
},
{
layerId = m003;
shapes = (
{
closed = 1;
nodes = (
(322,-10,o),
(379,14,o),
(420,60,c),
(422,60,l),
(422,0,l),
(610,0,l),
(610,520,l),
(412,520,l),
(412,255,ls),
(412,194,o),
(383,162,o),
(330,162,cs),
(277,162,o),
(248,194,o),
(248,255,cs),
(248,520,l),
(50,520,l),
(50,200,ls),
(50,75,o),
(134,-10,o),
(257,-10,cs)
);
}
);
width = 673;
},
{
layerId = m004;
name = "Thin F2";
shapes = (
{
closed = 1;
nodes = (
(330,-10,o),
(392,34,o),
(427,108,c),
(429,108,l),
(429,0,l),
(449,0,l),
(449,520,l),
(429,520,l),
(429,170,l),
(405,70,o),
(339,10,o),
(253,10,cs),
(146,10,o),
(99,74,o),
(99,220,cs),
(99,520,l),
(79,520,l),
(79,220,ls),
(79,65,o),
(133,-10,o),
(253,-10,cs)
);
}
);
width = 548;
},
{
layerId = m005;
shapes = (
{
closed = 1;
nodes = (
(301,-10,o),
(358,18,o),
(399,72,c),
(401,72,l),
(401,0,l),
(505,0,l),
(505,520,l),
(396,520,l),
(396,186,l),
(376,122,o),
(330,86,o),
(270,86,cs),
(203,86,o),
(174,130,o),
(174,230,cs),
(174,520,l),
(65,520,l),
(65,220,ls),
(65,64,o),
(119,-10,o),
(232,-10,cs)
);
}
);
width = 586;
},
{
layerId = m006;
name = "Black F2";
shapes = (
{
closed = 1;
nodes = (
(270,-10,o),
(324,14,o),
(370,60,c),
(372,60,l),
(372,0,l),
(560,0,l),
(560,520,l),
(362,520,l),
(362,205,l),
(355,173,o),
(338,154,o),
(307,154,cs),
(270,154,o),
(248,183,o),
(248,232,cs),
(248,520,l),
(50,520,l),
(50,220,ls),
(50,68,o),
(105,-10,o),
(211,-10,cs)
);
}
);
width = 623;
},
{
associatedMasterId = m004;
attr = {
coordinates = (
200,
100
);
};
layerId = "DBFFBCB2-45B6-47F5-99BE-56E40808C34B";
name = "Jun 21, 26 at 16:31";
shapes = (
{
closed = 1;
nodes = (
(326,-10,o),
(382,23,o),
(420,89,c),
(422,89,l),
(422,0,l),
(463,0,l),
(463,520,l),
(421,520,l),
(421,174,l),
(398,83,o),
(337,29,o),
(257,29,cs),
(160,29,o),
(118,88,o),
(118,223,cs),
(118,520,l),
(76,520,l),
(76,220,ls),
(76,65,o),
(130,-10,o),
(248,-10,cs)
);
}
);
width = 558;
},
{
associatedMasterId = m01;
attr = {
coordinates = (
200,
200
);
};
layerId = "81FA8989-86D4-442E-9BF5-DE0B1DCBA8C0";
name = "Jun 21, 26 at 20:34";
shapes = (
{
closed = 1;
nodes = (
(377,-10,o),
(453,27,o),
(488,89,c),
(490,89,l),
(490,0,l),
(531,0,l),
(531,520,l),
(489,520,l),
(489,227,ls),
(489,105,o),
(414,29,o),
(293,29,cs),
(179,29,o),
(118,95,o),
(118,219,cs),
(118,520,l),
(76,520,l),
(76,212,ls),
(76,71,o),
(152,-10,o),
(286,-10,cs)
);
}
);
width = 626;
}
);
metricLeft = "=|n";
metricRight = "=|n";
unicode = 117;
},
{
color = 4;
glyphname = v;
kernLeft = v;
kernRight = v;
lastChange = "2026-07-05 01:33:54 +0000";
layers = (
{
layerId = m01;
shapes = (
{
closed = 1;
nodes = (
(282,0,l),
(530,520,l),
(507,520,l),
(281,44,l),
(271,23,l),
(269,23,l),
(259,44,l),
(33,520,l),
(10,520,l),
(258,0,l)
);
}
);
width = 540;
},
{
layerId = m002;
shapes = (
{
closed = 1;
nodes = (
(368,0,l),
(578,520,l),
(462,520,l),
(315,142,l),
(294,87,l),
(292,87,l),
(271,142,l),
(124,520,l),
(8,520,l),
(218,0,l)
);
}
);
width = 586;
},
{
layerId = m003;
shapes = (
{
closed = 1;
nodes = (
(453,0,l),
(626,520,l),
(416,520,l),
(329,197,l),
(317,150,l),
(315,150,l),
(303,197,l),
(216,520,l),
(6,520,l),
(179,0,l)
);
}
);
width = 632;
},
{
layerId = m004;
shapes = (
{
closed = 1;
nodes = (
(249,0,l),
(460,520,l),
(438,520,l),
(244,40,l),
(236,18,l),
(234,18,l),
(226,40,l),
(32,520,l),
(10,520,l),
(221,0,l)
);
}
);
width = 470;
},
{
layerId = m005;
shapes = (
{
closed = 1;
nodes = (
(338,0,l),
(518,520,l),
(402,520,l),
(274,114,l),
(264,79,l),
(262,79,l),
(252,114,l),
(124,520,l),
(8,520,l),
(188,0,l)
);
}
);
width = 526;
},
{
layerId = m006;
shapes = (
{
closed = 1;
nodes = (
(428,0,l),
(576,520,l),
(366,520,l),
(301,187,l),
(292,140,l),
(290,140,l),
(281,187,l),
(216,520,l),
(6,520,l),
(154,0,l)
);
}
);
width = 582;
}
);
metricLeft = "=h*.1";
metricRight = "=|";
unicode = 118;
},
{
color = 4;
glyphname = w;
kernLeft = v;
kernRight = v;
lastChange = "2026-07-05 02:03:46 +0000";
layers = (
{
layerId = m01;
shapes = (
{
closed = 1;
nodes = (
(262,0,l),
(459,501,l),
(461,501,l),
(658,0,l),
(688,0,l),
(900,520,l),
(878,520,l),
(685,46,l),
(674,19,l),
(672,19,l),
(661,47,l),
(475,520,l),
(475,520,l),
(475,520,l),
(445,520,l),
(445,520,l),
(445,520,l),
(259,47,l),
(248,19,l),
(246,19,l),
(235,46,l),
(42,520,l),
(20,520,l),
(232,0,l)
);
}
);
width = 920;
},
{
associatedMasterId = m01;
attr = {
axisRules = (
{
max = 300;
min = 100;
},
{
max = 200;
min = 150;
}
);
};
background = {
shapes = (
{
closed = 1;
nodes = (
(286,0,l),
(597,520,l),
(574,520,l),
(296,55,l),
(276,20,l),
(274,20,l),
(248,76,l),
(42,520,l),
(20,520,l),
(261,0,l)
);
},
{
closed = 1;
nodes = (
(619,0,l),
(860,520,l),
(838,520,l),
(632,76,l),
(606,20,l),
(604,20,l),
(584,55,l),
(306,520,l),
(283,520,l),
(594,0,l)
);
}
);
};
layerId = "5BFF2A28-A5EB-47F3-BC50-DE6A2FB4DB15";
name = "Jul 2, 26 at 14:32";
shapes = (
{
closed = 1;
nodes = (
(286,0,l),
(440,257,l),
(594,0,l),
(619,0,l),
(860,520,l),
(838,520,l),
(632,76,l),
(606,20,l),
(604,20,l),
(584,55,l),
(451,277,l),
(597,520,l),
(574,520,l),
(440,296,l),
(306,520,l),
(283,520,l),
(429,277,l),
(296,55,l),
(276,20,l),
(274,20,l),
(248,76,l),
(42,520,l),
(20,520,l),
(261,0,l)
);
}
);
width = 880;
},
{
layerId = m002;
shapes = (
{
closed = 1;
nodes = (
(337,0,l),
(465,415,l),
(467,415,l),
(595,0,l),
(735,0,l),
(916,520,l),
(799,520,l),
(683,159,l),
(666,105,l),
(664,105,l),
(649,154,l),
(536,520,l),
(536,520,l),
(536,520,l),
(396,520,l),
(396,520,l),
(396,520,l),
(283,154,l),
(268,105,l),
(266,105,l),
(249,159,l),
(133,520,l),
(16,520,l),
(197,0,l)
);
}
);
width = 932;
},
{
associatedMasterId = m002;
attr = {
axisRules = (
{
max = 300;
min = 100;
},
{
max = 200;
min = 150;
}
);
};
background = {
shapes = (
{
closed = 1;
nodes = (
(386,0,l),
(676,520,l),
(562,520,l),
(349,138,l),
(318,79,l),
(316,79,l),
(295,130,l),
(130,520,l),
(16,520,l),
(236,0,l)
);
},
{
closed = 1;
nodes = (
(716,0,l),
(936,520,l),
(822,520,l),
(657,130,l),
(636,79,l),
(634,79,l),
(603,138,l),
(390,520,l),
(276,520,l),
(566,0,l)
);
}
);
};
layerId = "7F389CAB-D9EF-4772-B934-62F4EF3EEBF2";
name = "Jul 2, 26 at 14:32";
shapes = (
{
closed = 1;
nodes = (
(386,0,l),
(476,181,l),
(566,0,l),
(716,0,l),
(936,520,l),
(822,520,l),
(657,130,l),
(636,79,l),
(634,79,l),
(603,138,l),
(533,264,l),
(676,520,l),
(562,520,l),
(476,346,l),
(390,520,l),
(276,520,l),
(419,264,l),
(349,138,l),
(318,79,l),
(316,79,l),
(295,130,l),
(130,520,l),
(16,520,l),
(236,0,l)
);
}
);
width = 952;
},
{
background = {
shapes = (
{
closed = 1;
nodes = (
(412,0,l),
(472,350,l),
(474,350,l),
(534,0,l),
(784,0,l),
(933,520,l),
(721,520,l),
(661,170,l),
(659,170,l),
(599,520,l),
(599,520,l),
(599,520,l),
(599,520,l),
(599,520,l),
(347,520,l),
(347,520,l),
(347,520,l),
(347,520,l),
(347,520,l),
(287,170,l),
(285,170,l),
(225,520,l),
(13,520,l),
(162,0,l)
);
}
);
};
layerId = m003;
shapes = (
{
closed = 1;
nodes = (
(412,0,l),
(472,350,l),
(474,350,l),
(534,0,l),
(784,0,l),
(933,520,l),
(721,520,l),
(669,218,l),
(661,170,l),
(659,170,l),
(651,218,l),
(599,520,l),
(599,520,l),
(599,520,l),
(347,520,l),
(347,520,l),
(347,520,l),
(295,218,l),
(287,170,l),
(285,170,l),
(277,218,l),
(225,520,l),
(13,520,l),
(162,0,l)
);
}
);
width = 946;
},
{
layerId = m004;
name = "Thin F2";
shapes = (
{
closed = 1;
nodes = (
(232,0,l),
(399,501,l),
(401,501,l),
(568,0,l),
(597,0,l),
(780,520,l),
(758,520,l),
(592,47,l),
(583,19,l),
(582,19,l),
(573,47,l),
(415,520,l),
(415,520,l),
(415,520,l),
(385,520,l),
(385,520,l),
(385,520,l),
(227,47,l),
(218,19,l),
(217,19,l),
(208,47,l),
(42,520,l),
(20,520,l),
(203,0,l)
);
}
);
width = 800;
},
{
associatedMasterId = m004;
attr = {
axisRules = (
{
max = 300;
min = 100;
},
{
max = 200;
min = 150;
}
);
};
background = {
shapes = (
{
closed = 1;
nodes = (
(286,0,l),
(577,520,l),
(554,520,l),
(302,70,l),
(275,21,l),
(273,21,l),
(248,76,l),
(42,520,l),
(20,520,l),
(261,0,l)
);
},
{
closed = 1;
nodes = (
(579,0,l),
(820,520,l),
(798,520,l),
(592,76,l),
(567,21,l),
(565,21,l),
(538,70,l),
(286,520,l),
(263,520,l),
(554,0,l)
);
}
);
};
layerId = "FD7FF068-7DB1-4934-B33C-DDACFAB29FC6";
name = "Jul 2, 26 at 14:53";
shapes = (
{
closed = 1;
nodes = (
(286,0,l),
(420,239,l),
(554,0,l),
(579,0,l),
(820,520,l),
(798,520,l),
(592,76,l),
(567,21,l),
(565,21,l),
(538,70,l),
(432,260,l),
(577,520,l),
(554,520,l),
(420,281,l),
(286,520,l),
(263,520,l),
(408,260,l),
(302,70,l),
(275,21,l),
(273,21,l),
(248,76,l),
(42,520,l),
(20,520,l),
(261,0,l)
);
}
);
width = 840;
},
{
layerId = m005;
name = "Medium F2";
shapes = (
{
closed = 1;
nodes = (
(316,0,l),
(410,415,l),
(412,415,l),
(506,0,l),
(648,0,l),
(806,520,l),
(694,520,l),
(596,159,l),
(581,105,l),
(580,105,l),
(567,158,l),
(482,520,l),
(482,520,l),
(482,520,l),
(340,520,l),
(340,520,l),
(340,520,l),
(255,158,l),
(242,105,l),
(241,105,l),
(226,159,l),
(128,520,l),
(16,520,l),
(174,0,l)
);
}
);
width = 822;
},
{
associatedMasterId = m005;
attr = {
axisRules = (
{
max = 300;
min = 100;
},
{
max = 200;
min = 150;
}
);
};
background = {
shapes = (
{
closed = 1;
nodes = (
(376,0,l),
(656,520,l),
(542,520,l),
(330,126,l),
(308,82,l),
(306,82,l),
(287,131,l),
(130,520,l),
(16,520,l),
(226,0,l)
);
},
{
closed = 1;
nodes = (
(686,0,l),
(896,520,l),
(782,520,l),
(625,131,l),
(606,82,l),
(604,82,l),
(582,126,l),
(370,520,l),
(256,520,l),
(536,0,l)
);
}
);
};
layerId = "54609187-C85F-413B-BF59-C07B1D964E2A";
name = "Jul 2, 26 at 14:54";
shapes = (
{
closed = 1;
nodes = (
(376,0,l),
(456,169,l),
(536,0,l),
(686,0,l),
(896,520,l),
(782,520,l),
(625,131,l),
(606,82,l),
(604,82,l),
(582,126,l),
(513,254,l),
(656,520,l),
(542,520,l),
(456,340,l),
(370,520,l),
(256,520,l),
(399,254,l),
(330,126,l),
(308,82,l),
(306,82,l),
(287,131,l),
(130,520,l),
(16,520,l),
(226,0,l)
);
}
);
width = 912;
},
{
layerId = m006;
name = "Black F2";
shapes = (
{
closed = 1;
nodes = (
(367,0,l),
(422,350,l),
(424,350,l),
(479,0,l),
(701,0,l),
(833,520,l),
(633,520,l),
(594,228,l),
(588,180,l),
(586,180,l),
(580,228,l),
(534,520,l),
(534,520,l),
(534,520,l),
(312,520,l),
(312,520,l),
(312,520,l),
(266,228,l),
(260,180,l),
(258,180,l),
(252,228,l),
(213,520,l),
(13,520,l),
(145,0,l)
);
}
);
width = 846;
}
);
metricLeft = "=h*.2";
metricRight = "=|";
unicode = 119;
},
{
color = 4;
glyphname = x;
kernLeft = x;
kernRight = x;
lastChange = "2026-07-05 02:19:30 +0000";
layers = (
{
layerId = m01;
shapes = (
{
closed = 1;
nodes = (
(51,0,l),
(279,247,l),
(281,247,l),
(509,0,l),
(540,0,l),
(294,263,l),
(535,520,l),
(504,520,l),
(281,279,l),
(279,279,l),
(56,520,l),
(25,520,l),
(266,263,l),
(20,0,l)
);
}
);
width = 560;
},
{
layerId = m002;
shapes = (
{
closed = 1;
nodes = (
(142,0,l),
(294,214,l),
(298,214,l),
(450,0,l),
(576,0,l),
(378,262,l),
(574,520,l),
(448,520,l),
(298,310,l),
(294,310,l),
(144,520,l),
(18,520,l),
(214,262,l),
(16,0,l)
);
}
);
width = 592;
},
{
layerId = m003;
shapes = (
{
closed = 1;
nodes = (
(227,0,l),
(312,180,l),
(314,180,l),
(399,0,l),
(613,0,l),
(463,260,l),
(613,520,l),
(399,520,l),
(314,340,l),
(312,340,l),
(227,520,l),
(13,520,l),
(163,260,l),
(13,0,l)
);
}
);
width = 626;
},
{
layerId = m004;
shapes = (
{
closed = 1;
nodes = (
(46,0,l),
(239,247,l),
(241,247,l),
(434,0,l),
(460,0,l),
(253,263,l),
(455,520,l),
(429,520,l),
(241,279,l),
(239,279,l),
(51,520,l),
(25,520,l),
(227,263,l),
(20,0,l)
);
}
);
width = 480;
},
{
layerId = m005;
shapes = (
{
closed = 1;
nodes = (
(140,0,l),
(260,204,l),
(262,204,l),
(382,0,l),
(506,0,l),
(335,262,l),
(504,520,l),
(380,520,l),
(262,320,l),
(260,320,l),
(142,520,l),
(18,520,l),
(187,262,l),
(16,0,l)
);
}
);
width = 522;
},
{
layerId = m006;
shapes = (
{
closed = 1;
nodes = (
(215,0,l),
(282,160,l),
(284,160,l),
(351,0,l),
(553,0,l),
(418,260,l),
(553,520,l),
(351,520,l),
(284,360,l),
(282,360,l),
(215,520,l),
(13,520,l),
(148,260,l),
(13,0,l)
);
}
);
width = 566;
}
);
metricLeft = "=|k";
metricRight = "=|";
unicode = 120;
},
{
color = 10;
glyphname = y;
kernLeft = v;
kernRight = v;
lastChange = "2026-07-05 01:34:59 +0000";
layers = (
{
layerId = m01;
shapes = (
{
closed = 1;
nodes = (
(147,-230,l),
(177,-168,o),
(207,-107,o),
(237,-45,c),
(510,520,l),
(487,520,l),
(271,72,l),
(253,34,l),
(251,34,l),
(239,62,l),
(32,520,l),
(10,520,l),
(245,1,l),
(242,12,l),
(203,-69,o),
(164,-149,o),
(125,-230,c)
);
}
);
width = 520;
},
{
layerId = m002;
shapes = (
{
closed = 1;
nodes = (
(245,-230,l),
(273,-165,o),
(301,-100,o),
(329,-35,c),
(568,520,l),
(452,520,l),
(312,171,l),
(286,106,l),
(284,106,l),
(259,173,l),
(124,520,l),
(8,520,l),
(248,-41,l),
(251,38,l),
(211,-51,o),
(171,-141,o),
(131,-230,c)
);
}
);
width = 576;
},
{
layerId = m003;
shapes = (
{
closed = 1;
nodes = (
(342,-230,l),
(365,-169,o),
(389,-107,o),
(412,-46,c),
(626,520,l),
(416,520,l),
(334,219,l),
(321,170,l),
(319,170,l),
(305,219,l),
(216,520,l),
(6,520,l),
(251,-84,l),
(259,64,l),
(218,-34,o),
(177,-132,o),
(136,-230,c)
);
}
);
width = 632;
},
{
layerId = m004;
shapes = (
{
closed = 1;
nodes = (
(139,-230,l),
(167,-168,o),
(195,-107,o),
(223,-45,c),
(480,520,l),
(458,520,l),
(255,73,l),
(239,37,l),
(237,37,l),
(226,63,l),
(31,520,l),
(10,520,l),
(231,1,l),
(230,18,l),
(192,-65,o),
(155,-147,o),
(117,-230,c)
);
}
);
width = 490;
},
{
layerId = m005;
shapes = (
{
closed = 1;
nodes = (
(233,-230,l),
(258,-169,o),
(282,-109,o),
(307,-48,c),
(538,520,l),
(422,520,l),
(287,147,l),
(273,107,l),
(271,107,l),
(259,142,l),
(124,520,l),
(8,520,l),
(235,-41,l),
(234,41,l),
(195,-50,o),
(157,-140,o),
(119,-230,c)
);
}
);
width = 546;
},
{
layerId = m006;
shapes = (
{
closed = 1;
nodes = (
(326,-230,l),
(348,-169,o),
(370,-107,o),
(392,-46,c),
(596,520,l),
(386,520,l),
(318,220,l),
(306,166,l),
(304,166,l),
(291,220,l),
(216,520,l),
(6,520,l),
(239,-84,l),
(237,64,l),
(198,-34,o),
(159,-132,o),
(120,-230,c)
);
}
);
width = 602;
},
{
associatedMasterId = m01;
attr = {
axisRules = (
{
},
{
max = 150;
min = 100;
}
);
};
layerId = "05AD52A5-A688-442F-8632-3D991EBE4103";
name = "Jul 2, 26 at 17:43";
shapes = (
{
closed = 1;
nodes = (
(28,-250,l),
(146,-199,o),
(201,-141,o),
(261,1,cs),
(480,520,l),
(458,520,l),
(259,45,l),
(251,26,l),
(249,26,l),
(242,42,l),
(32,520,l),
(10,520,l),
(244,-10,l),
(243,9,l),
(185,-128,o),
(133,-183,o),
(20,-232,c)
);
}
);
width = 490;
},
{
associatedMasterId = m002;
attr = {
axisRules = (
{
},
{
max = 150;
min = 100;
}
);
};
layerId = "62C5FE96-8B67-416E-8B85-F331AD4025BA";
name = "Jul 2, 26 at 17:43";
shapes = (
{
closed = 1;
nodes = (
(109,-250,l),
(222,-190,o),
(289,-116,o),
(336,1,cs),
(538,520,l),
(422,520,l),
(297,159,l),
(280,108,l),
(278,108,l),
(260,159,l),
(124,520,l),
(8,520,l),
(247,-35,l),
(241,43,l),
(204,-60,o),
(149,-120,o),
(45,-170,c)
);
}
);
width = 546;
},
{
associatedMasterId = m003;
attr = {
axisRules = (
{
},
{
max = 150;
min = 100;
}
);
};
layerId = "E71C6179-5698-4260-8380-EB811EB30242";
name = "Jul 2, 26 at 17:43";
shapes = (
{
closed = 1;
nodes = (
(189,-250,l),
(296,-182,o),
(377,-90,o),
(410,1,cs),
(596,520,l),
(386,520,l),
(319,227,l),
(309,181,l),
(307,181,l),
(295,227,l),
(216,520,l),
(6,520,l),
(249,-60,l),
(239,77,l),
(222,7,o),
(164,-55,o),
(67,-108,c)
);
}
);
width = 602;
},
{
associatedMasterId = m004;
attr = {
axisRules = (
{
},
{
max = 150;
min = 100;
}
);
};
layerId = "2802E16B-0A01-49A9-BE12-C95984A7E899";
name = "Jul 2, 26 at 17:43";
shapes = (
{
closed = 1;
nodes = (
(28,-250,l),
(146,-199,o),
(201,-141,o),
(261,1,cs),
(480,520,l),
(458,520,l),
(259,45,l),
(251,26,l),
(249,26,l),
(242,42,l),
(32,520,l),
(10,520,l),
(244,-10,l),
(243,9,l),
(185,-128,o),
(133,-183,o),
(20,-232,c)
);
}
);
width = 490;
},
{
associatedMasterId = m005;
attr = {
axisRules = (
{
},
{
max = 150;
min = 100;
}
);
};
layerId = "7D002933-CA8D-43F0-96CF-AA0618A9A1A3";
name = "Jul 2, 26 at 17:43";
shapes = (
{
closed = 1;
nodes = (
(109,-250,l),
(222,-190,o),
(289,-116,o),
(336,1,cs),
(538,520,l),
(422,520,l),
(297,159,l),
(280,108,l),
(278,108,l),
(260,159,l),
(124,520,l),
(8,520,l),
(247,-35,l),
(241,43,l),
(204,-60,o),
(149,-120,o),
(45,-170,c)
);
}
);
width = 546;
},
{
associatedMasterId = m006;
attr = {
axisRules = (
{
},
{
max = 150;
min = 100;
}
);
};
layerId = "74E36A52-9B46-4EA2-BEDA-BF5042DE2688";
name = "Jul 2, 26 at 17:45";
shapes = (
{
closed = 1;
nodes = (
(189,-250,l),
(296,-182,o),
(377,-90,o),
(410,1,cs),
(596,520,l),
(386,520,l),
(319,227,l),
(309,181,l),
(307,181,l),
(295,227,l),
(216,520,l),
(6,520,l),
(249,-60,l),
(239,77,l),
(222,7,o),
(164,-55,o),
(67,-108,c)
);
}
);
width = 602;
}
);
metricLeft = "=v";
metricRight = "=|";
unicode = 121;
},
{
color = 4;
glyphname = z;
kernLeft = z;
kernRight = z;
lastChange = "2026-07-05 02:23:10 +0000";
layers = (
{
layerId = m01;
shapes = (
{
closed = 1;
nodes = (
(429,0,l),
(429,20,l),
(85,20,l),
(85,22,l),
(429,500,l),
(429,520,l),
(59,520,l),
(59,500,l),
(403,500,l),
(403,498,l),
(59,20,l),
(59,0,l)
);
}
);
width = 488;
},
{
layerId = m002;
shapes = (
{
closed = 1;
nodes = (
(459,0,l),
(459,88,l),
(185,88,l),
(185,90,l),
(459,432,l),
(459,520,l),
(49,520,l),
(49,432,l),
(323,432,l),
(323,430,l),
(49,88,l),
(49,0,l)
);
}
);
width = 508;
},
{
layerId = m003;
shapes = (
{
closed = 1;
nodes = (
(488,0,l),
(488,156,l),
(280,156,l),
(280,158,l),
(488,364,l),
(488,520,l),
(38,520,l),
(38,364,l),
(246,364,l),
(246,362,l),
(38,156,l),
(38,0,l)
);
}
);
width = 526;
},
{
layerId = m004;
shapes = (
{
closed = 1;
nodes = (
(429,0,l),
(429,20,l),
(85,20,l),
(85,22,l),
(429,500,l),
(429,520,l),
(59,520,l),
(59,500,l),
(403,500,l),
(403,498,l),
(59,20,l),
(59,0,l)
);
}
);
width = 488;
},
{
layerId = m005;
shapes = (
{
closed = 1;
nodes = (
(459,0,l),
(459,88,l),
(179,88,l),
(179,90,l),
(459,432,l),
(459,520,l),
(49,520,l),
(49,432,l),
(329,432,l),
(329,430,l),
(49,88,l),
(49,0,l)
);
}
);
width = 508;
},
{
layerId = m006;
shapes = (
{
closed = 1;
nodes = (
(488,0,l),
(488,156,l),
(278,156,l),
(278,158,l),
(488,364,l),
(488,520,l),
(38,520,l),
(38,364,l),
(248,364,l),
(248,362,l),
(38,156,l),
(38,0,l)
);
}
);
width = 526;
}
);
metricLeft = "=h*.6";
metricRight = "=|";
unicode = 122;
},
{
color = 10;
export = 0;
glyphname = y.001;
kernLeft = v;
kernRight = v;
lastChange = "2026-07-05 03:03:31 +0000";
layers = (
{
layerId = m01;
shapes = (
{
closed = 1;
nodes = (
(147,-230,l),
(177,-168,o),
(207,-107,o),
(237,-45,c),
(510,520,l),
(487,520,l),
(271,72,l),
(253,34,l),
(251,34,l),
(239,62,l),
(32,520,l),
(10,520,l),
(245,1,l),
(242,12,l),
(203,-69,o),
(164,-149,o),
(125,-230,c)
);
}
);
width = 520;
},
{
layerId = m002;
shapes = (
{
closed = 1;
nodes = (
(245,-230,l),
(273,-165,o),
(301,-100,o),
(329,-35,c),
(568,520,l),
(452,520,l),
(312,171,l),
(286,106,l),
(284,106,l),
(259,173,l),
(124,520,l),
(8,520,l),
(248,-41,l),
(251,38,l),
(211,-51,o),
(171,-141,o),
(131,-230,c)
);
}
);
width = 576;
},
{
layerId = m003;
shapes = (
{
closed = 1;
nodes = (
(342,-230,l),
(365,-169,o),
(389,-107,o),
(412,-46,c),
(626,520,l),
(416,520,l),
(334,219,l),
(321,170,l),
(319,170,l),
(305,219,l),
(216,520,l),
(6,520,l),
(251,-84,l),
(259,64,l),
(218,-34,o),
(177,-132,o),
(136,-230,c)
);
}
);
width = 632;
},
{
layerId = m004;
shapes = (
{
closed = 1;
nodes = (
(139,-230,l),
(167,-168,o),
(195,-107,o),
(223,-45,c),
(480,520,l),
(458,520,l),
(255,73,l),
(239,37,l),
(237,37,l),
(226,63,l),
(31,520,l),
(10,520,l),
(231,1,l),
(230,18,l),
(192,-65,o),
(155,-147,o),
(117,-230,c)
);
}
);
width = 490;
},
{
layerId = m005;
shapes = (
{
closed = 1;
nodes = (
(233,-230,l),
(258,-169,o),
(282,-109,o),
(307,-48,c),
(538,520,l),
(422,520,l),
(287,147,l),
(273,107,l),
(271,107,l),
(259,142,l),
(124,520,l),
(8,520,l),
(235,-41,l),
(234,41,l),
(195,-50,o),
(157,-140,o),
(119,-230,c)
);
}
);
width = 546;
},
{
layerId = m006;
shapes = (
{
closed = 1;
nodes = (
(326,-230,l),
(348,-169,o),
(370,-107,o),
(392,-46,c),
(596,520,l),
(386,520,l),
(318,220,l),
(306,166,l),
(304,166,l),
(291,220,l),
(216,520,l),
(6,520,l),
(239,-84,l),
(237,64,l),
(198,-34,o),
(159,-132,o),
(120,-230,c)
);
}
);
width = 602;
},
{
associatedMasterId = m01;
attr = {
axisRules = (
{
},
{
max = 150;
min = 100;
}
);
};
layerId = "05AD52A5-A688-442F-8632-3D991EBE4103";
name = "Jul 2, 26 at 17:43";
shapes = (
{
closed = 1;
nodes = (
(28,-250,l),
(146,-199,o),
(201,-141,o),
(261,1,cs),
(480,520,l),
(458,520,l),
(259,45,l),
(251,26,l),
(249,26,l),
(242,42,l),
(32,520,l),
(10,520,l),
(244,-10,l),
(243,9,l),
(185,-128,o),
(133,-183,o),
(20,-232,c)
);
}
);
width = 490;
},
{
associatedMasterId = m002;
attr = {
axisRules = (
{
},
{
max = 150;
min = 100;
}
);
};
layerId = "62C5FE96-8B67-416E-8B85-F331AD4025BA";
name = "Jul 2, 26 at 17:43";
shapes = (
{
closed = 1;
nodes = (
(109,-250,l),
(222,-190,o),
(289,-116,o),
(336,1,cs),
(538,520,l),
(422,520,l),
(297,159,l),
(280,108,l),
(278,108,l),
(260,159,l),
(124,520,l),
(8,520,l),
(247,-35,l),
(241,43,l),
(204,-60,o),
(149,-120,o),
(45,-170,c)
);
}
);
width = 546;
},
{
associatedMasterId = m003;
attr = {
axisRules = (
{
},
{
max = 150;
min = 100;
}
);
};
layerId = "E71C6179-5698-4260-8380-EB811EB30242";
name = "Jul 2, 26 at 17:43";
shapes = (
{
closed = 1;
nodes = (
(189,-250,l),
(296,-182,o),
(377,-90,o),
(410,1,cs),
(596,520,l),
(386,520,l),
(319,227,l),
(309,181,l),
(307,181,l),
(295,227,l),
(216,520,l),
(6,520,l),
(249,-60,l),
(239,77,l),
(222,7,o),
(164,-55,o),
(67,-108,c)
);
}
);
width = 602;
},
{
associatedMasterId = m004;
attr = {
axisRules = (
{
},
{
max = 150;
min = 100;
}
);
};
layerId = "2802E16B-0A01-49A9-BE12-C95984A7E899";
name = "Jul 2, 26 at 17:43";
shapes = (
{
closed = 1;
nodes = (
(28,-250,l),
(146,-199,o),
(201,-141,o),
(261,1,cs),
(480,520,l),
(458,520,l),
(259,45,l),
(251,26,l),
(249,26,l),
(242,42,l),
(32,520,l),
(10,520,l),
(244,-10,l),
(243,9,l),
(185,-128,o),
(133,-183,o),
(20,-232,c)
);
}
);
width = 490;
},
{
associatedMasterId = m005;
attr = {
axisRules = (
{
},
{
max = 150;
min = 100;
}
);
};
layerId = "7D002933-CA8D-43F0-96CF-AA0618A9A1A3";
name = "Jul 2, 26 at 17:43";
shapes = (
{
closed = 1;
nodes = (
(109,-250,l),
(222,-190,o),
(289,-116,o),
(336,1,cs),
(538,520,l),
(422,520,l),
(297,159,l),
(280,108,l),
(278,108,l),
(260,159,l),
(124,520,l),
(8,520,l),
(247,-35,l),
(241,43,l),
(204,-60,o),
(149,-120,o),
(45,-170,c)
);
}
);
width = 546;
},
{
associatedMasterId = m006;
attr = {
axisRules = (
{
},
{
max = 150;
min = 100;
}
);
};
layerId = "74E36A52-9B46-4EA2-BEDA-BF5042DE2688";
name = "Jul 2, 26 at 17:45";
shapes = (
{
closed = 1;
nodes = (
(189,-250,l),
(296,-182,o),
(377,-90,o),
(410,1,cs),
(596,520,l),
(386,520,l),
(319,227,l),
(309,181,l),
(307,181,l),
(295,227,l),
(216,520,l),
(6,520,l),
(249,-60,l),
(239,77,l),
(222,7,o),
(164,-55,o),
(67,-108,c)
);
}
);
width = 602;
}
);
metricLeft = "=v";
metricRight = "=|";
},
{
export = 0;
glyphname = zero;
lastChange = "2026-06-08 09:00:40 +0000";
layers = (
{
layerId = m01;
shapes = (
{
closed = 1;
nodes = (
(659,-20,o),
(820,141,o),
(820,365,cs),
(820,589,o),
(659,750,o),
(435,750,cs),
(211,750,o),
(50,589,o),
(50,365,cs),
(50,141,o),
(211,-20,o),
(435,-20,cs)
);
},
{
closed = 1;
nodes = (
(222,0,o),
(70,152,o),
(70,365,cs),
(70,578,o),
(222,730,o),
(435,730,cs),
(648,730,o),
(800,578,o),
(800,365,cs),
(800,152,o),
(648,0,o),
(435,0,cs)
);
}
);
width = 600;
},
{
layerId = m002;
shapes = (
{
closed = 1;
nodes = (
(649,-20,o),
(810,141,o),
(810,365,cs),
(810,589,o),
(649,750,o),
(425,750,cs),
(201,750,o),
(40,589,o),
(40,365,cs),
(40,141,o),
(201,-20,o),
(425,-20,cs)
);
},
{
closed = 1;
nodes = (
(264,85,o),
(150,201,o),
(150,365,cs),
(150,529,o),
(264,645,o),
(425,645,cs),
(586,645,o),
(700,529,o),
(700,365,cs),
(700,201,o),
(586,85,o),
(425,85,cs)
);
}
);
width = 600;
},
{
layerId = m003;
shapes = (
{
closed = 1;
nodes = (
(639,-20,o),
(800,141,o),
(800,365,cs),
(800,589,o),
(639,750,o),
(415,750,cs),
(191,750,o),
(30,589,o),
(30,365,cs),
(30,141,o),
(191,-20,o),
(415,-20,cs)
);
},
{
closed = 1;
nodes = (
(307,170,o),
(230,251,o),
(230,365,cs),
(230,479,o),
(307,560,o),
(415,560,cs),
(523,560,o),
(600,479,o),
(600,365,cs),
(600,251,o),
(523,170,o),
(415,170,cs)
);
}
);
width = 600;
},
{
layerId = m004;
shapes = (
{
closed = 1;
nodes = (
(538,-20,o),
(650,124,o),
(650,365,cs),
(650,606,o),
(538,750,o),
(350,750,cs),
(162,750,o),
(50,606,o),
(50,365,cs),
(50,124,o),
(162,-20,o),
(350,-20,cs)
);
},
{
closed = 1;
nodes = (
(175,0,o),
(70,134,o),
(70,365,cs),
(70,596,o),
(175,730,o),
(350,730,cs),
(525,730,o),
(630,596,o),
(630,365,cs),
(630,134,o),
(525,0,o),
(350,0,cs)
);
}
);
width = 600;
},
{
layerId = m005;
shapes = (
{
closed = 1;
nodes = (
(569,-20,o),
(690,124,o),
(690,365,cs),
(690,606,o),
(569,750,o),
(365,750,cs),
(162,750,o),
(40,606,o),
(40,365,cs),
(40,124,o),
(162,-20,o),
(365,-20,cs)
);
},
{
closed = 1;
nodes = (
(230,78,o),
(150,185,o),
(150,365,cs),
(150,545,o),
(230,652,o),
(365,652,cs),
(500,652,o),
(580,545,o),
(580,365,cs),
(580,185,o),
(500,78,o),
(365,78,cs)
);
}
);
width = 600;
},
{
layerId = m006;
shapes = (
{
closed = 1;
nodes = (
(599,-20,o),
(730,124,o),
(730,365,cs),
(730,606,o),
(599,750,o),
(380,750,cs),
(161,750,o),
(30,606,o),
(30,365,cs),
(30,124,o),
(161,-20,o),
(380,-20,cs)
);
},
{
closed = 1;
nodes = (
(285,158,o),
(228,236,o),
(228,365,cs),
(228,494,o),
(285,572,o),
(380,572,cs),
(475,572,o),
(532,494,o),
(532,365,cs),
(532,236,o),
(475,158,o),
(380,158,cs)
);
}
);
width = 600;
}
);
unicode = 48;
},
{
color = 4;
glyphname = period;
lastChange = "2026-07-04 09:13:39 +0000";
layers = (
{
layerId = m01;
shapes = (
{
closed = 1;
nodes = (
(135,-10,o),
(148,2,o),
(148,19,cs),
(148,36,o),
(135,48,o),
(118,48,cs),
(101,48,o),
(88,36,o),
(88,19,cs),
(88,2,o),
(101,-10,o),
(118,-10,cs)
);
}
);
width = 236;
},
{
layerId = m002;
shapes = (
{
closed = 1;
nodes = (
(191,-10,o),
(222,20,o),
(222,62,cs),
(222,104,o),
(191,134,o),
(147,134,cs),
(103,134,o),
(72,104,o),
(72,62,cs),
(72,20,o),
(103,-10,o),
(147,-10,cs)
);
}
);
width = 294;
},
{
layerId = m003;
shapes = (
{
closed = 1;
nodes = (
(246,-10,o),
(296,38,o),
(296,105,cs),
(296,172,o),
(246,220,o),
(176,220,cs),
(106,220,o),
(56,172,o),
(56,105,cs),
(56,38,o),
(106,-10,o),
(176,-10,cs)
);
}
);
width = 352;
},
{
layerId = m004;
shapes = (
{
closed = 1;
nodes = (
(135,-10,o),
(148,2,o),
(148,19,cs),
(148,36,o),
(135,48,o),
(118,48,cs),
(101,48,o),
(88,36,o),
(88,19,cs),
(88,2,o),
(101,-10,o),
(118,-10,cs)
);
}
);
width = 236;
},
{
layerId = m005;
shapes = (
{
closed = 1;
nodes = (
(191,-10,o),
(222,20,o),
(222,62,cs),
(222,104,o),
(191,134,o),
(147,134,cs),
(103,134,o),
(72,104,o),
(72,62,cs),
(72,20,o),
(103,-10,o),
(147,-10,cs)
);
}
);
width = 294;
},
{
layerId = m006;
shapes = (
{
closed = 1;
nodes = (
(246,-10,o),
(296,38,o),
(296,105,cs),
(296,172,o),
(246,220,o),
(176,220,cs),
(106,220,o),
(56,172,o),
(56,105,cs),
(56,38,o),
(106,-10,o),
(176,-10,cs)
);
}
);
width = 352;
}
);
metricLeft = "=H*.8";
metricRight = "=|";
unicode = 46;
},
{
color = 4;
glyphname = comma;
lastChange = "2026-07-04 09:14:45 +0000";
layers = (
{
layerId = m01;
shapes = (
{
closed = 1;
nodes = (
(56,-170,l),
(111,130,l),
(90,130,l),
(35,-170,l)
);
}
);
width = 146;
},
{
layerId = m002;
shapes = (
{
closed = 1;
nodes = (
(113,-170,l),
(207,170,l),
(91,170,l),
(29,-170,l)
);
}
);
width = 236;
},
{
layerId = m003;
shapes = (
{
closed = 1;
nodes = (
(172,-170,l),
(302,210,l),
(92,210,l),
(22,-170,l)
);
}
);
width = 324;
},
{
layerId = m004;
shapes = (
{
closed = 1;
nodes = (
(56,-170,l),
(111,130,l),
(90,130,l),
(35,-170,l)
);
}
);
width = 146;
},
{
layerId = m005;
shapes = (
{
closed = 1;
nodes = (
(113,-170,l),
(207,170,l),
(91,170,l),
(29,-170,l)
);
}
);
width = 236;
},
{
layerId = m006;
shapes = (
{
closed = 1;
nodes = (
(172,-170,l),
(302,210,l),
(92,210,l),
(22,-170,l)
);
}
);
width = 324;
}
);
metricLeft = "=period*.4";
metricRight = "=|";
unicode = 44;
},
